<svg width="412" height="97" viewBox="0 0 412 97" fill="none" xmlns="http://www.w3.org/2000/svg">
<path d="M6.368 26.648L4.6328 25.6534L4.62888 25.6603L6.368 26.648ZM22.624 10.392L23.6045 12.1352L23.6117 12.1311L22.624 10.392ZM87.776 33.432V35.432H90.5426L89.6752 32.8049L87.776 33.432ZM67.168 33.432L65.365 34.2975L65.9095 35.432H67.168V33.432ZM58.464 23.832L57.4588 25.561L57.4673 25.566L57.476 25.5709L58.464 23.832ZM31.712 24.344L32.7356 26.0622L32.7462 26.0558L31.712 24.344ZM22.24 34.584L20.465 33.6624L20.458 33.6759L20.4511 33.6896L22.24 34.584ZM22.24 65.816L20.4444 66.6968L20.4545 66.7174L20.465 66.7376L22.24 65.816ZM31.712 76.184L30.6618 77.8861L30.6829 77.8991L30.7043 77.9116L31.712 76.184ZM58.464 76.568L59.4692 78.297L59.4754 78.2935L59.4815 78.2899L58.464 76.568ZM67.168 66.84V64.84H65.9095L65.365 65.9745L67.168 66.84ZM87.776 66.84L89.6769 67.4618L90.5345 64.84H87.776V66.84ZM72.032 88.216L73.1545 89.8713L73.1587 89.8685L72.032 88.216ZM22.624 90.008L21.6271 91.7418L21.6398 91.7492L21.6527 91.7563L22.624 90.008ZM6.368 73.752L4.62888 74.7396L4.63346 74.7477L4.63812 74.7558L6.368 73.752ZM2.48 50.2C2.48 41.7194 4.37039 34.2156 8.10712 27.6356L4.62888 25.6603C0.514948 32.9044 -1.52 41.1019 -1.52 50.2H2.48ZM8.10318 27.6426C11.94 20.9485 17.102 15.7928 23.6045 12.1351L21.6435 8.64885C14.4927 12.6712 8.81732 18.3528 4.63282 25.6534L8.10318 27.6426ZM23.6117 12.1311C30.2005 8.3893 37.5786 6.504 45.792 6.504V2.504C36.9387 2.504 28.8715 4.54402 21.6364 8.65288L23.6117 12.1311ZM45.792 6.504C55.4154 6.504 63.7607 8.96511 70.9053 13.8365L73.1587 10.5315C65.2846 5.16288 56.1366 2.504 45.792 2.504V6.504ZM70.9053 13.8365C78.0332 18.6964 83.0209 25.4096 85.8769 34.0591L89.6752 32.8049C86.5578 23.3637 81.0495 15.9116 73.1587 10.5315L70.9053 13.8365ZM87.776 31.432H67.168V35.432H87.776V31.432ZM68.9711 32.5665C66.7644 27.9694 63.595 24.4471 59.452 22.0931L57.476 25.5709C60.8423 27.4836 63.4756 30.3613 65.365 34.2975L68.9711 32.5665ZM59.4692 22.103C55.4523 19.7676 50.8288 18.632 45.664 18.632V22.632C50.2272 22.632 54.137 23.6298 57.4588 25.561L59.4692 22.103ZM45.664 18.632C40.1272 18.632 35.113 19.9526 30.6778 22.6322L32.7462 26.0558C36.503 23.7861 40.7901 22.632 45.664 22.632V18.632ZM30.6884 22.6258C26.3352 25.2192 22.9278 28.9192 20.465 33.6624L24.015 35.5056C26.1602 31.3741 29.0675 28.2475 32.7356 26.0622L30.6884 22.6258ZM20.4511 33.6896C18.0681 38.4557 16.912 43.9788 16.912 50.2H20.912C20.912 44.4745 21.9746 39.587 24.0289 35.4784L20.4511 33.6896ZM16.912 50.2C16.912 56.342 18.0703 61.8574 20.4444 66.6968L24.0356 64.9351C21.9723 60.7293 20.912 55.834 20.912 50.2H16.912ZM20.465 66.7376C22.9251 71.4755 26.3245 75.2099 30.6618 77.8861L32.7622 74.4819C29.0782 72.2088 26.163 69.0312 24.015 64.8944L20.465 66.7376ZM30.7043 77.9116C35.1355 80.4964 40.1402 81.768 45.664 81.768V77.768C40.7772 77.768 36.4805 76.6502 32.7197 74.4564L30.7043 77.9116ZM45.664 81.768C50.8288 81.768 55.4523 80.6324 59.4692 78.297L57.4588 74.839C54.137 76.7702 50.2272 77.768 45.664 77.768V81.768ZM59.4815 78.2899C63.6061 75.8525 66.767 72.2973 68.9711 67.7055L65.365 65.9745C63.473 69.9161 60.8312 72.8461 57.4465 74.8461L59.4815 78.2899ZM67.168 68.84H87.776V64.84H67.168V68.84ZM85.8751 66.2182C83.0173 74.9549 78.0283 81.707 70.9053 86.5635L73.1587 89.8685C81.0544 84.485 86.5614 76.9864 89.6769 67.4618L85.8751 66.2182ZM70.9095 86.5607C63.8565 91.3438 55.512 93.768 45.792 93.768V97.768C56.2107 97.768 65.3595 95.1575 73.1545 89.8713L70.9095 86.5607ZM45.792 93.768C37.5708 93.768 30.1869 91.9217 23.5953 88.2597L21.6527 91.7563C28.8851 95.7743 36.9465 97.768 45.792 97.768V93.768ZM23.6209 88.2742C17.1031 84.5264 11.9352 79.3615 8.09788 72.7482L4.63812 74.7558C8.82211 81.9665 14.4916 87.6389 21.6271 91.7418L23.6209 88.2742ZM8.10712 72.7643C4.37039 66.1844 2.48 58.6806 2.48 50.2H-1.52C-1.52 59.2981 0.514948 67.4956 4.62888 74.7396L8.10712 72.7643ZM157.354 26.648L156.362 28.3845L156.375 28.3922L156.389 28.3997L157.354 26.648ZM167.082 37.016L165.293 37.9104L165.303 37.9304L165.314 37.9502L167.082 37.016ZM170.666 95V97H172.666V95H170.666ZM152.746 95H150.746V97H152.746V95ZM148.522 42.904L147.048 44.2554L147.057 44.2658L147.067 44.276L148.522 42.904ZM125.226 42.904L123.772 41.5308L123.771 41.532L125.226 42.904ZM121.002 95V97H123.002V95H121.002ZM103.082 95H101.082V97H103.082V95ZM103.082 0.279999V-1.72H101.082V0.279999H103.082ZM121.002 0.279999H123.002V-1.72H121.002V0.279999ZM121.002 32.92H119.002V38.92L122.602 34.12L121.002 32.92ZM130.218 25.752L131.03 27.5796L131.047 27.5721L131.064 27.5644L130.218 25.752ZM143.018 25.064C148.087 25.064 152.517 26.1873 156.362 28.3845L158.346 24.9115C153.829 22.3301 148.701 21.064 143.018 21.064V25.064ZM156.389 28.3997C160.187 30.4923 163.155 33.6349 165.293 37.9104L168.871 36.1216C166.401 31.1811 162.884 27.4116 158.319 24.8963L156.389 28.3997ZM165.314 37.9502C167.517 42.1216 168.666 47.2454 168.666 53.4H172.666C172.666 46.7546 171.425 40.9558 168.85 36.0818L165.314 37.9502ZM168.666 53.4V95H172.666V53.4H168.666ZM170.666 93H152.746V97H170.666V93ZM154.746 95V55.832H150.746V95H154.746ZM154.746 55.832C154.746 49.8822 153.256 45.0094 149.977 41.532L147.067 44.276C149.42 46.772 150.746 50.5178 150.746 55.832H154.746ZM149.996 41.5526C146.737 37.9973 142.324 36.296 137.002 36.296V40.296C141.408 40.296 144.675 41.6667 147.048 44.2554L149.996 41.5526ZM137.002 36.296C131.605 36.296 127.116 37.9898 123.772 41.5308L126.68 44.2772C129.138 41.6742 132.5 40.296 137.002 40.296V36.296ZM123.771 41.532C120.492 45.0094 119.002 49.8822 119.002 55.832H123.002C123.002 50.5178 124.328 46.772 126.681 44.276L123.771 41.532ZM119.002 55.832V95H123.002V55.832H119.002ZM121.002 93H103.082V97H121.002V93ZM105.082 95V0.279999H101.082V95H105.082ZM103.082 2.28H121.002V-1.72H103.082V2.28ZM119.002 0.279999V32.92H123.002V0.279999H119.002ZM122.602 34.12C124.682 31.3462 127.472 29.1611 131.03 27.5796L129.406 23.9244C125.284 25.7562 121.93 28.3498 119.402 31.72L122.602 34.12ZM131.064 27.5644C134.612 25.9087 138.585 25.064 143.018 25.064V21.064C138.064 21.064 133.504 22.0113 129.372 23.9396L131.064 27.5644ZM187.323 40.216L185.551 39.289L185.545 39.2998L185.54 39.3106L187.323 40.216ZM198.971 27.416L197.938 25.7036L197.931 25.7076L197.924 25.7117L198.971 27.416ZM229.307 26.136L228.352 27.8932L228.36 27.8975L228.368 27.9017L229.307 26.136ZM238.907 34.2L237.297 35.3864L240.907 40.2858V34.2H238.907ZM238.907 24.088V22.088H236.907V24.088H238.907ZM256.955 24.088H258.955V22.088H256.955V24.088ZM256.955 95V97H258.955V95H256.955ZM238.907 95H236.907V97H238.907V95ZM238.907 84.632H240.907V78.2295L237.263 83.4936L238.907 84.632ZM229.307 92.952L230.246 94.7177L230.253 94.7142L230.26 94.7106L229.307 92.952ZM198.971 91.544L197.903 93.235L197.91 93.2392L197.916 93.2433L198.971 91.544ZM187.323 78.616L185.534 79.5104L185.542 79.5268L185.551 79.543L187.323 78.616ZM236.347 48.408L234.588 49.359L234.593 49.3692L234.599 49.3793L236.347 48.408ZM229.435 41.24L228.421 42.9639L228.44 42.9751L228.459 42.9859L229.435 41.24ZM210.875 41.112L209.877 39.3788L209.877 39.3788L210.875 41.112ZM203.963 48.28L202.224 47.2928L202.219 47.3007L202.215 47.3087L203.963 48.28ZM203.963 70.552L202.193 71.4835L202.208 71.5116L202.224 71.5392L203.963 70.552ZM210.875 77.848L209.838 79.5584L209.85 79.5652L209.861 79.5719L210.875 77.848ZM229.435 77.976L230.411 79.7219L230.43 79.7111L230.449 79.6999L229.435 77.976ZM236.347 70.808L238.095 71.7793L238.101 71.7692L238.106 71.759L236.347 70.808ZM185.099 59.288C185.099 52.3866 186.453 46.3476 189.106 41.1214L185.54 39.3106C182.561 45.1778 181.099 51.8534 181.099 59.288H185.099ZM189.095 41.143C191.846 35.8843 195.49 31.9001 200.018 29.1203L197.924 25.7117C192.724 28.9052 188.603 33.4544 185.551 39.289L189.095 41.143ZM200.004 29.1284C204.627 26.3391 209.77 24.936 215.483 24.936V20.936C209.078 20.936 203.214 22.5195 197.938 25.7036L200.004 29.1284ZM215.483 24.936C220.502 24.936 224.769 25.9462 228.352 27.8932L230.262 24.3787C225.994 22.0591 221.046 20.936 215.483 20.936V24.936ZM228.368 27.9017C232.148 29.9126 235.107 32.4137 237.297 35.3864L240.517 33.0136C237.929 29.5009 234.487 26.626 230.246 24.3702L228.368 27.9017ZM240.907 34.2V24.088H236.907V34.2H240.907ZM238.907 26.088H256.955V22.088H238.907V26.088ZM254.955 24.088V95H258.955V24.088H254.955ZM256.955 93H238.907V97H256.955V93ZM240.907 95V84.632H236.907V95H240.907ZM237.263 83.4936C235.163 86.527 232.216 89.1017 228.354 91.1934L230.26 94.7106C234.59 92.365 238.043 89.393 240.551 85.7704L237.263 83.4936ZM228.368 91.1863C224.691 93.1422 220.372 94.152 215.355 94.152V98.152C220.919 98.152 225.902 97.0284 230.246 94.7177L228.368 91.1863ZM215.355 94.152C209.744 94.152 204.65 92.715 200.026 89.8447L197.916 93.2433C203.191 96.517 209.019 98.152 215.355 98.152V94.152ZM200.039 89.853C195.499 86.9856 191.848 82.9518 189.095 77.689L185.551 79.543C188.601 85.3736 192.715 89.9584 197.903 93.235L200.039 89.853ZM189.112 77.7216C186.454 72.4067 185.099 66.2781 185.099 59.288H181.099C181.099 66.8046 182.56 73.5613 185.534 79.5104L189.112 77.7216ZM240.907 59.544C240.907 54.9322 240.002 50.8687 238.095 47.4367L234.599 49.3793C236.105 52.0913 236.907 55.4518 236.907 59.544H240.907ZM238.106 47.457C236.234 43.9934 233.67 41.3155 230.411 39.4941L228.459 42.9859C231.003 44.4072 233.046 46.5079 234.588 49.359L238.106 47.457ZM230.449 39.5161C227.244 37.6308 223.78 36.68 220.091 36.68V40.68C223.058 40.68 225.823 41.4358 228.421 42.9639L230.449 39.5161ZM220.091 36.68C216.422 36.68 213.004 37.5783 209.877 39.3788L211.873 42.8452C214.378 41.403 217.104 40.68 220.091 40.68V36.68ZM209.877 39.3788C206.717 41.1984 204.171 43.8624 202.224 47.2928L205.702 49.2672C207.339 46.383 209.401 44.2683 211.873 42.8452L209.877 39.3788ZM202.215 47.3087C200.311 50.7352 199.403 54.7538 199.403 59.288H203.403C203.403 55.2889 204.202 51.9688 205.711 49.2513L202.215 47.3087ZM199.403 59.288C199.403 63.8257 200.312 67.9097 202.193 71.4835L205.733 69.6205C204.2 66.7089 203.403 63.2836 203.403 59.288H199.403ZM202.224 71.5392C204.167 74.9625 206.701 77.6569 209.838 79.5584L211.912 76.1376C209.417 74.6257 207.343 72.4562 205.702 69.5648L202.224 71.5392ZM209.861 79.5719C213.057 81.4521 216.478 82.408 220.091 82.408V78.408C217.219 78.408 214.495 77.6572 211.889 76.1241L209.861 79.5719ZM220.091 82.408C223.76 82.408 227.211 81.5101 230.411 79.7219L228.459 76.2301C225.857 77.6846 223.078 78.408 220.091 78.408V82.408ZM230.449 79.6999C233.672 77.8042 236.223 75.1488 238.095 71.7793L234.599 69.8367C233.057 72.6112 231.001 74.7345 228.421 76.2521L230.449 79.6999ZM238.106 71.759C240.001 68.2536 240.907 64.158 240.907 59.544H236.907C236.907 63.634 236.106 67.0477 234.588 69.857L238.106 71.759ZM287.513 91.672L286.532 93.4152L286.543 93.421L286.553 93.4267L287.513 91.672ZM274.585 78.744L272.835 79.713L272.841 79.7232L272.847 79.7334L274.585 78.744ZM274.713 40.344L272.986 39.3346L272.981 39.3446L272.975 39.3546L274.713 40.344ZM287.897 27.544L288.845 29.3049L288.856 29.2993L288.866 29.2936L287.897 27.544ZM325.017 27.544L324.048 29.2936L324.058 29.2993L324.069 29.3049L325.017 27.544ZM338.073 40.344L336.335 41.3334L336.341 41.3434L336.346 41.3534L338.073 40.344ZM337.945 78.744L336.23 77.715L336.224 77.7248L336.218 77.7346L337.945 78.744ZM324.633 91.672L325.581 93.433L325.591 93.4278L324.633 91.672ZM315.033 78.232L315.991 79.9878L316 79.9829L316.009 79.9779L315.033 78.232ZM321.945 71.064L323.704 72.015L323.704 72.015L321.945 71.064ZM319.129 44.056L317.682 45.4361L317.698 45.4534L317.715 45.4702L319.129 44.056ZM293.273 44.056L291.826 42.6758L291.825 42.6767L293.273 44.056ZM293.145 75.16L291.664 76.5036L291.68 76.5217L291.697 76.5393L293.145 75.16ZM305.945 94.152C299.421 94.152 293.612 92.7278 288.473 89.9173L286.553 93.4267C292.337 96.5895 298.816 98.152 305.945 98.152V94.152ZM288.494 89.9288C283.355 87.0382 279.304 82.9921 276.323 77.7546L272.847 79.7334C276.18 85.5892 280.749 90.1618 286.532 93.4152L288.494 89.9288ZM276.335 77.775C273.449 72.5653 271.977 66.5077 271.977 59.544H267.977C267.977 67.0869 269.577 73.8294 272.835 79.713L276.335 77.775ZM271.977 59.544C271.977 52.5895 273.488 46.5393 276.451 41.3334L272.975 39.3546C269.624 45.242 267.977 51.9919 267.977 59.544H271.977ZM276.44 41.3534C279.501 36.1174 283.629 32.1138 288.845 29.3049L286.949 25.7831C281.072 28.9476 276.411 33.4773 272.986 39.3346L276.44 41.3534ZM288.866 29.2936C294.094 26.3983 299.943 24.936 306.457 24.936V20.936C299.318 20.936 292.794 22.5457 286.928 25.7944L288.866 29.2936ZM306.457 24.936C312.971 24.936 318.82 26.3983 324.048 29.2936L325.986 25.7944C320.12 22.5457 313.596 20.936 306.457 20.936V24.936ZM324.069 29.3049C329.28 32.1112 333.361 36.1084 336.335 41.3334L339.811 39.3546C336.471 33.4863 331.847 28.9501 325.965 25.7831L324.069 29.3049ZM336.346 41.3534C339.388 46.5559 340.937 52.5987 340.937 59.544H344.937C344.937 51.9826 343.243 45.2255 339.8 39.3346L336.346 41.3534ZM340.937 59.544C340.937 66.4799 339.35 72.5157 336.23 77.715L339.66 79.773C343.196 73.879 344.937 67.1147 344.937 59.544H340.937ZM336.218 77.7346C333.159 82.9677 328.987 87.0187 323.675 89.9162L325.591 93.4278C331.543 90.1813 336.246 85.6137 339.672 79.7534L336.218 77.7346ZM323.685 89.9111C318.457 92.7259 312.559 94.152 305.945 94.152V98.152C313.155 98.152 319.715 96.5914 325.581 93.4329L323.685 89.9111ZM305.945 82.536C309.518 82.536 312.878 81.6859 315.991 79.9878L314.075 76.4762C311.556 77.8501 308.857 78.536 305.945 78.536V82.536ZM316.009 79.9779C319.268 78.1565 321.832 75.4785 323.704 72.015L320.186 70.113C318.644 72.9641 316.601 75.0648 314.057 76.4861L316.009 79.9779ZM323.704 72.015C325.605 68.4992 326.505 64.3141 326.505 59.544H322.505C322.505 63.8193 321.698 67.3141 320.186 70.113L323.704 72.015ZM326.505 59.544C326.505 52.4533 324.613 46.7119 320.543 42.6418L317.715 45.4702C320.813 48.5681 322.505 53.1521 322.505 59.544H326.505ZM320.576 42.6758C316.696 38.6063 311.862 36.552 306.201 36.552V40.552C310.78 40.552 314.564 42.1671 317.682 45.4361L320.576 42.6758ZM306.201 36.552C300.54 36.552 295.706 38.6063 291.826 42.6758L294.72 45.4361C297.838 42.1671 301.622 40.552 306.201 40.552V36.552ZM291.825 42.6767C287.945 46.7501 286.153 52.4783 286.153 59.544H290.153C290.153 53.127 291.774 48.5299 294.721 45.4353L291.825 42.6767ZM286.153 59.544C286.153 66.6009 287.897 72.3512 291.664 76.5036L294.626 73.8164C291.737 70.6301 290.153 65.9698 290.153 59.544H286.153ZM291.697 76.5393C295.502 80.5348 300.299 82.536 305.945 82.536V78.536C301.351 78.536 297.615 76.9532 294.593 73.7807L291.697 76.5393ZM367.602 93.08L366.762 94.8949L366.776 94.9014L366.79 94.9076L367.602 93.08ZM356.594 84.504L354.985 85.6917L354.994 85.704L355.003 85.7161L356.594 84.504ZM352.242 72.6V70.6H350.121L350.245 72.7174L352.242 72.6ZM370.29 72.6L372.275 72.3519L372.056 70.6H370.29V72.6ZM374.258 79.384L373.03 80.9627L373.044 80.9735L373.058 80.984L374.258 79.384ZM391.026 80.024L389.884 78.3822L389.867 78.3942L389.85 78.4065L391.026 80.024ZM390.386 69.656L389.465 71.4315L389.504 71.4516L389.544 71.47L390.386 69.656ZM379.25 65.816L379.765 63.8835L379.743 63.8775L379.72 63.8721L379.25 65.816ZM366.194 61.848L365.435 63.6983L365.443 63.7017L365.451 63.705L366.194 61.848ZM357.49 55.576L355.965 56.87L355.976 56.8832L355.988 56.8962L357.49 55.576ZM357.234 33.432L355.604 32.2736L355.593 32.288L355.583 32.3026L357.234 33.432ZM366.962 25.752L366.157 23.9214L366.15 23.9244L366.143 23.9275L366.962 25.752ZM402.162 29.336L400.869 30.8618L400.877 30.8682L400.884 30.8746L402.162 29.336ZM410.482 46.36V48.36H412.63L412.477 46.2175L410.482 46.36ZM393.33 46.36L391.338 46.5411L391.504 48.36H393.33V46.36ZM389.746 39.704L388.466 41.2404L388.5 41.2692L388.536 41.2963L389.746 39.704ZM373.874 38.936L372.765 37.2719L372.746 37.2845L372.727 37.2975L373.874 38.936ZM374.898 49.432L373.954 51.195L373.978 51.2083L374.004 51.2209L374.898 49.432ZM386.034 53.144L385.541 55.0823L385.549 55.0843L386.034 53.144ZM407.282 63.512L405.738 64.7834L405.759 64.8082L405.78 64.8322L407.282 63.512ZM411.122 74.776H413.122V74.7578L413.122 74.7396L411.122 74.776ZM407.666 85.784L406.036 84.6256L406.025 84.64L406.015 84.6546L407.666 85.784ZM397.938 93.464L398.726 95.3023L398.735 95.2985L398.743 95.2946L397.938 93.464ZM383.218 94.152C377.653 94.152 372.731 93.1708 368.414 91.2524L366.79 94.9076C371.689 97.0852 377.177 98.152 383.218 98.152V94.152ZM368.442 91.2651C364.092 89.251 360.694 86.5855 358.185 83.2919L355.003 85.7161C357.955 89.5905 361.896 92.6424 366.762 94.8949L368.442 91.2651ZM358.203 83.3163C355.783 80.0368 354.471 76.439 354.239 72.4826L350.245 72.7174C350.525 77.465 352.115 81.8032 354.985 85.6917L358.203 83.3163ZM352.242 74.6H370.29V70.6H352.242V74.6ZM368.305 72.8481C368.717 76.1395 370.336 78.867 373.03 80.9627L375.486 77.8053C373.572 76.317 372.546 74.5219 372.275 72.3519L368.305 72.8481ZM373.058 80.984C375.85 83.0783 379.235 84.072 383.09 84.072V80.072C379.947 80.072 377.444 79.2737 375.458 77.784L373.058 80.984ZM383.09 84.072C386.736 84.072 389.856 83.3477 392.202 81.6415L389.85 78.4065C388.441 79.431 386.27 80.072 383.09 80.072V84.072ZM392.168 81.6658C394.593 79.9791 395.97 77.6509 395.97 74.776H391.97C391.97 76.1677 391.385 77.3382 389.884 78.3822L392.168 81.6658ZM395.97 74.776C395.97 73.2591 395.57 71.846 394.712 70.6211C393.866 69.4123 392.659 68.5064 391.228 67.842L389.544 71.47C390.502 71.915 391.087 72.4171 391.436 72.9149C391.773 73.3967 391.97 73.9889 391.97 74.776H395.97ZM391.307 67.8805C388.8 66.5806 384.912 65.256 379.765 63.8835L378.735 67.7485C383.828 69.1066 387.364 70.342 389.465 71.4315L391.307 67.8805ZM379.72 63.8721C374.483 62.605 370.23 61.3085 366.937 59.991L365.451 63.705C368.984 65.1182 373.436 66.467 378.78 67.7599L379.72 63.8721ZM366.953 59.9977C363.923 58.7544 361.272 56.8502 358.992 54.2558L355.988 56.8962C358.657 59.9338 361.809 62.211 365.435 63.6983L366.953 59.9977ZM359.015 54.282C357.013 51.9227 355.906 48.6307 355.906 44.184H351.906C351.906 49.2946 353.188 53.5973 355.965 56.87L359.015 54.282ZM355.906 44.184C355.906 40.6621 356.893 37.4717 358.885 34.5614L355.583 32.3026C353.137 35.8776 351.906 39.8552 351.906 44.184H355.906ZM358.864 34.5904C360.932 31.6798 363.875 29.3305 367.781 27.5765L366.143 23.9275C361.687 25.9281 358.144 28.6988 355.604 32.2736L358.864 34.5904ZM367.767 27.5826C371.73 25.8393 376.437 24.936 381.938 24.936V20.936C376.005 20.936 370.728 21.9101 366.157 23.9214L367.767 27.5826ZM381.938 24.936C390.048 24.936 396.287 26.9789 400.869 30.8618L403.455 27.8102C397.968 23.1598 390.724 20.936 381.938 20.936V24.936ZM400.884 30.8746C405.456 34.6716 408.01 39.8191 408.487 46.5025L412.477 46.2175C411.93 38.5649 408.937 32.363 403.44 27.7974L400.884 30.8746ZM410.482 44.36H393.33V48.36H410.482V44.36ZM395.322 46.1789C395.018 42.8385 393.564 40.0934 390.956 38.1117L388.536 41.2963C390.195 42.5572 391.13 44.2495 391.338 46.5411L395.322 46.1789ZM391.026 38.1676C388.52 36.0787 385.245 35.144 381.426 35.144V39.144C384.605 39.144 386.876 39.916 388.466 41.2404L391.026 38.1676ZM381.426 35.144C377.976 35.144 375.012 35.7735 372.765 37.2719L374.983 40.6001C376.32 39.7092 378.391 39.144 381.426 39.144V35.144ZM372.727 37.2975C370.471 38.8771 369.314 41.1607 369.314 43.928H373.314C373.314 42.4286 373.864 41.3843 375.021 40.5745L372.727 37.2975ZM369.314 43.928C369.314 45.4733 369.706 46.9157 370.534 48.1873C371.354 49.446 372.532 50.4335 373.954 51.195L375.842 47.669C374.875 47.1505 374.261 46.5806 373.886 46.0047C373.519 45.4416 373.314 44.772 373.314 43.928H369.314ZM374.004 51.2209C376.591 52.5144 380.472 53.7935 385.541 55.0823L386.527 51.2057C381.527 49.9345 377.984 48.7389 375.792 47.6431L374.004 51.2209ZM385.549 55.0843C390.614 56.3507 394.739 57.6461 397.947 58.9623L399.465 55.2617C396.017 53.8472 391.694 52.4973 386.519 51.2037L385.549 55.0843ZM397.947 58.9623C400.956 60.1967 403.549 62.125 405.738 64.7834L408.826 62.2406C406.236 59.0963 403.112 56.758 399.465 55.2617L397.947 58.9623ZM405.78 64.8322C407.869 67.21 409.043 70.4694 409.122 74.8124L413.122 74.7396C413.03 69.696 411.644 65.446 408.784 62.1918L405.78 64.8322ZM409.122 74.776C409.122 78.47 408.092 81.7319 406.036 84.6256L409.296 86.9424C411.848 83.3508 413.122 79.274 413.122 74.776H409.122ZM406.015 84.6546C404.044 87.5359 401.122 89.878 397.133 91.6334L398.743 95.2946C403.287 93.2953 406.851 90.5174 409.317 86.9134L406.015 84.6546ZM397.15 91.6257C393.269 93.2889 388.642 94.152 383.218 94.152V98.152C389.058 98.152 394.244 97.2231 398.726 95.3023L397.15 91.6257Z" fill="white"/>
</svg>
