<svg width="1155" height="129" viewBox="0 0 1155 129" fill="none" xmlns="http://www.w3.org/2000/svg">
<path d="M6.368 26.648L4.6328 25.6534L4.62888 25.6603L6.368 26.648ZM22.624 10.392L23.6045 12.1352L23.6117 12.1311L22.624 10.392ZM87.776 33.432V35.432H90.5426L89.6752 32.8049L87.776 33.432ZM67.168 33.432L65.365 34.2975L65.9095 35.432H67.168V33.432ZM58.464 23.832L57.4588 25.561L57.4673 25.566L57.476 25.5709L58.464 23.832ZM31.712 24.344L32.7356 26.0622L32.7462 26.0558L31.712 24.344ZM22.24 34.584L20.465 33.6624L20.458 33.6759L20.4511 33.6896L22.24 34.584ZM22.24 65.816L20.4444 66.6968L20.4545 66.7174L20.465 66.7376L22.24 65.816ZM31.712 76.184L30.6618 77.8861L30.6829 77.8991L30.7043 77.9116L31.712 76.184ZM58.464 76.568L59.4692 78.297L59.4754 78.2935L59.4815 78.2899L58.464 76.568ZM67.168 66.84V64.84H65.9095L65.365 65.9745L67.168 66.84ZM87.776 66.84L89.6769 67.4618L90.5345 64.84H87.776V66.84ZM72.032 88.216L73.1545 89.8713L73.1587 89.8685L72.032 88.216ZM22.624 90.008L21.6271 91.7418L21.6398 91.7492L21.6527 91.7563L22.624 90.008ZM6.368 73.752L4.62888 74.7396L4.63346 74.7477L4.63812 74.7558L6.368 73.752ZM2.48 50.2C2.48 41.7194 4.37039 34.2156 8.10712 27.6356L4.62888 25.6603C0.514948 32.9044 -1.52 41.1019 -1.52 50.2H2.48ZM8.10318 27.6426C11.94 20.9485 17.102 15.7928 23.6045 12.1351L21.6435 8.64885C14.4927 12.6712 8.81732 18.3528 4.63282 25.6534L8.10318 27.6426ZM23.6117 12.1311C30.2005 8.3893 37.5786 6.504 45.792 6.504V2.504C36.9387 2.504 28.8715 4.54402 21.6364 8.65288L23.6117 12.1311ZM45.792 6.504C55.4154 6.504 63.7607 8.96511 70.9053 13.8365L73.1587 10.5315C65.2846 5.16288 56.1366 2.504 45.792 2.504V6.504ZM70.9053 13.8365C78.0332 18.6964 83.0209 25.4096 85.8769 34.0591L89.6752 32.8049C86.5578 23.3637 81.0495 15.9116 73.1587 10.5315L70.9053 13.8365ZM87.776 31.432H67.168V35.432H87.776V31.432ZM68.9711 32.5665C66.7644 27.9694 63.595 24.4471 59.452 22.0931L57.476 25.5709C60.8423 27.4836 63.4756 30.3613 65.365 34.2975L68.9711 32.5665ZM59.4692 22.103C55.4523 19.7676 50.8288 18.632 45.664 18.632V22.632C50.2272 22.632 54.137 23.6298 57.4588 25.561L59.4692 22.103ZM45.664 18.632C40.1272 18.632 35.113 19.9526 30.6778 22.6322L32.7462 26.0558C36.503 23.7861 40.7901 22.632 45.664 22.632V18.632ZM30.6884 22.6258C26.3352 25.2192 22.9278 28.9192 20.465 33.6624L24.015 35.5056C26.1602 31.3741 29.0675 28.2475 32.7356 26.0622L30.6884 22.6258ZM20.4511 33.6896C18.0681 38.4557 16.912 43.9788 16.912 50.2H20.912C20.912 44.4745 21.9746 39.587 24.0289 35.4784L20.4511 33.6896ZM16.912 50.2C16.912 56.342 18.0703 61.8574 20.4444 66.6968L24.0356 64.9351C21.9723 60.7293 20.912 55.834 20.912 50.2H16.912ZM20.465 66.7376C22.9251 71.4755 26.3245 75.2099 30.6618 77.8861L32.7622 74.4819C29.0782 72.2088 26.163 69.0312 24.015 64.8944L20.465 66.7376ZM30.7043 77.9116C35.1355 80.4964 40.1402 81.768 45.664 81.768V77.768C40.7772 77.768 36.4805 76.6502 32.7197 74.4564L30.7043 77.9116ZM45.664 81.768C50.8288 81.768 55.4523 80.6324 59.4692 78.297L57.4588 74.839C54.137 76.7702 50.2272 77.768 45.664 77.768V81.768ZM59.4815 78.2899C63.6061 75.8525 66.767 72.2973 68.9711 67.7055L65.365 65.9745C63.473 69.9161 60.8312 72.8461 57.4465 74.8461L59.4815 78.2899ZM67.168 68.84H87.776V64.84H67.168V68.84ZM85.8751 66.2182C83.0173 74.9549 78.0283 81.707 70.9053 86.5635L73.1587 89.8685C81.0544 84.485 86.5614 76.9864 89.6769 67.4618L85.8751 66.2182ZM70.9095 86.5607C63.8565 91.3438 55.512 93.768 45.792 93.768V97.768C56.2107 97.768 65.3595 95.1575 73.1545 89.8713L70.9095 86.5607ZM45.792 93.768C37.5708 93.768 30.1869 91.9217 23.5953 88.2597L21.6527 91.7563C28.8851 95.7743 36.9465 97.768 45.792 97.768V93.768ZM23.6209 88.2742C17.1031 84.5264 11.9352 79.3615 8.09788 72.7482L4.63812 74.7558C8.82211 81.9665 14.4916 87.6389 21.6271 91.7418L23.6209 88.2742ZM8.10712 72.7643C4.37039 66.1844 2.48 58.6806 2.48 50.2H-1.52C-1.52 59.2981 0.514948 67.4956 4.62888 74.7396L8.10712 72.7643ZM116.138 91.672L115.157 93.4152L115.168 93.421L115.178 93.4267L116.138 91.672ZM103.21 78.744L101.46 79.713L101.466 79.7232L101.472 79.7334L103.21 78.744ZM103.338 40.344L101.611 39.3346L101.606 39.3446L101.6 39.3546L103.338 40.344ZM116.522 27.544L117.47 29.3049L117.481 29.2993L117.491 29.2936L116.522 27.544ZM153.642 27.544L152.673 29.2936L152.683 29.2993L152.694 29.3049L153.642 27.544ZM166.698 40.344L164.96 41.3334L164.966 41.3434L164.971 41.3534L166.698 40.344ZM166.57 78.744L164.855 77.715L164.849 77.7248L164.843 77.7346L166.57 78.744ZM153.258 91.672L154.206 93.433L154.216 93.4278L153.258 91.672ZM143.658 78.232L144.616 79.9878L144.625 79.9829L144.634 79.9779L143.658 78.232ZM150.57 71.064L152.329 72.015L152.329 72.015L150.57 71.064ZM147.754 44.056L146.307 45.4361L146.323 45.4534L146.34 45.4702L147.754 44.056ZM121.898 44.056L120.451 42.6758L120.45 42.6767L121.898 44.056ZM121.77 75.16L120.289 76.5036L120.305 76.5217L120.322 76.5393L121.77 75.16ZM134.57 94.152C128.046 94.152 122.237 92.7278 117.098 89.9173L115.178 93.4267C120.962 96.5895 127.441 98.152 134.57 98.152V94.152ZM117.119 89.9288C111.98 87.0382 107.929 82.9921 104.948 77.7546L101.472 79.7334C104.805 85.5892 109.374 90.1618 115.157 93.4152L117.119 89.9288ZM104.96 77.775C102.074 72.5653 100.602 66.5077 100.602 59.544H96.602C96.602 67.0869 98.2018 73.8294 101.46 79.713L104.96 77.775ZM100.602 59.544C100.602 52.5895 102.113 46.5393 105.076 41.3334L101.6 39.3546C98.2486 45.242 96.602 51.9919 96.602 59.544H100.602ZM105.065 41.3534C108.126 36.1174 112.254 32.1138 117.47 29.3049L115.574 25.7831C109.697 28.9476 105.036 33.4773 101.611 39.3346L105.065 41.3534ZM117.491 29.2936C122.719 26.3983 128.568 24.936 135.082 24.936V20.936C127.943 20.936 121.419 22.5457 115.553 25.7944L117.491 29.2936ZM135.082 24.936C141.596 24.936 147.445 26.3983 152.673 29.2936L154.611 25.7944C148.745 22.5457 142.221 20.936 135.082 20.936V24.936ZM152.694 29.3049C157.905 32.1112 161.986 36.1084 164.96 41.3334L168.436 39.3546C165.096 33.4863 160.472 28.9501 154.59 25.7831L152.694 29.3049ZM164.971 41.3534C168.013 46.5559 169.562 52.5987 169.562 59.544H173.562C173.562 51.9826 171.868 45.2255 168.425 39.3346L164.971 41.3534ZM169.562 59.544C169.562 66.4799 167.975 72.5157 164.855 77.715L168.285 79.773C171.821 73.879 173.562 67.1147 173.562 59.544H169.562ZM164.843 77.7346C161.784 82.9677 157.612 87.0187 152.3 89.9162L154.216 93.4278C160.168 90.1813 164.871 85.6137 168.297 79.7534L164.843 77.7346ZM152.31 89.9111C147.082 92.7259 141.184 94.152 134.57 94.152V98.152C141.78 98.152 148.34 96.5914 154.206 93.4329L152.31 89.9111ZM134.57 82.536C138.143 82.536 141.503 81.6859 144.616 79.9878L142.7 76.4762C140.181 77.8501 137.482 78.536 134.57 78.536V82.536ZM144.634 79.9779C147.893 78.1565 150.457 75.4785 152.329 72.015L148.811 70.113C147.269 72.9641 145.226 75.0648 142.682 76.4861L144.634 79.9779ZM152.329 72.015C154.23 68.4992 155.13 64.3141 155.13 59.544H151.13C151.13 63.8193 150.323 67.3141 148.811 70.113L152.329 72.015ZM155.13 59.544C155.13 52.4533 153.238 46.7119 149.168 42.6418L146.34 45.4702C149.438 48.5681 151.13 53.1521 151.13 59.544H155.13ZM149.201 42.6758C145.321 38.6063 140.487 36.552 134.826 36.552V40.552C139.405 40.552 143.189 42.1671 146.307 45.4361L149.201 42.6758ZM134.826 36.552C129.165 36.552 124.331 38.6063 120.451 42.6758L123.345 45.4361C126.463 42.1671 130.247 40.552 134.826 40.552V36.552ZM120.45 42.6767C116.57 46.7501 114.778 52.4783 114.778 59.544H118.778C118.778 53.127 120.399 48.5299 123.346 45.4353L120.45 42.6767ZM114.778 59.544C114.778 66.6009 116.522 72.3512 120.289 76.5036L123.251 73.8164C120.362 70.6301 118.778 65.9698 118.778 59.544H114.778ZM120.322 76.5393C124.127 80.5348 128.924 82.536 134.57 82.536V78.536C129.976 78.536 126.24 76.9532 123.218 73.7807L120.322 76.5393ZM293.763 31.128L292.338 32.5309L292.349 32.5423L292.36 32.5535L293.763 31.128ZM301.827 95V97H303.827V95H301.827ZM283.907 95H281.907V97H283.907V95ZM279.683 43.16L278.228 44.532L278.238 44.5426L278.248 44.5529L279.683 43.16ZM256.515 43.16L255.08 41.7664L255.08 41.767L256.515 43.16ZM252.291 95V97H254.291V95H252.291ZM234.371 95H232.371V97H234.371V95ZM230.147 43.16L228.692 44.532L228.702 44.5426L228.712 44.5529L230.147 43.16ZM206.851 43.16L205.416 41.7664L205.416 41.767L206.851 43.16ZM202.627 95V97H204.627V95H202.627ZM184.707 95H182.707V97H184.707V95ZM184.707 24.088V22.088H182.707V24.088H184.707ZM202.627 24.088H204.627V22.088H202.627V24.088ZM202.627 32.664H200.627V38.531L204.211 33.8856L202.627 32.664ZM211.459 25.624L210.616 23.8106L210.607 23.8144L210.599 23.8183L211.459 25.624ZM238.339 26.648L237.376 28.4012L237.39 28.4085L237.403 28.4156L238.339 26.648ZM248.451 36.632L246.698 37.5945L248.43 40.7491L250.194 37.6125L248.451 36.632ZM258.435 26.776L257.461 25.0293L257.454 25.0333L257.446 25.0374L258.435 26.776ZM272.771 25.064C281.029 25.064 287.481 27.5963 292.338 32.5309L295.188 29.7251C289.463 23.9077 281.921 21.064 272.771 21.064V25.064ZM292.36 32.5535C297.259 37.3741 299.827 44.2277 299.827 53.4H303.827C303.827 43.4576 301.019 35.4632 295.166 29.7025L292.36 32.5535ZM299.827 53.4V95H303.827V53.4H299.827ZM301.827 93H283.907V97H301.827V93ZM285.907 95V55.832H281.907V95H285.907ZM285.907 55.832C285.907 49.9621 284.414 45.1623 281.118 41.767L278.248 44.5529C280.584 46.9603 281.907 50.6086 281.907 55.832H285.907ZM281.138 41.788C277.875 38.3266 273.467 36.68 268.163 36.68V40.68C272.587 40.68 275.859 42.02 278.228 44.532L281.138 41.788ZM268.163 36.68C262.857 36.68 258.422 38.3267 255.08 41.7664L257.95 44.5536C260.411 42.02 263.741 40.68 268.163 40.68V36.68ZM255.08 41.767C251.784 45.1623 250.291 49.9621 250.291 55.832H254.291C254.291 50.6086 255.614 46.9603 257.95 44.5529L255.08 41.767ZM250.291 55.832V95H254.291V55.832H250.291ZM252.291 93H234.371V97H252.291V93ZM236.371 95V55.832H232.371V95H236.371ZM236.371 55.832C236.371 49.9621 234.878 45.1623 231.582 41.767L228.712 44.5529C231.048 46.9603 232.371 50.6086 232.371 55.832H236.371ZM231.602 41.788C228.339 38.3266 223.931 36.68 218.627 36.68V40.68C223.051 40.68 226.323 42.02 228.692 44.532L231.602 41.788ZM218.627 36.68C213.247 36.68 208.765 38.3197 205.416 41.7664L208.286 44.5536C210.74 42.0269 214.108 40.68 218.627 40.68V36.68ZM205.416 41.767C202.12 45.1623 200.627 49.9621 200.627 55.832H204.627C204.627 50.6086 205.95 46.9603 208.286 44.5529L205.416 41.767ZM200.627 55.832V95H204.627V55.832H200.627ZM202.627 93H184.707V97H202.627V93ZM186.707 95V24.088H182.707V95H186.707ZM184.707 26.088H202.627V22.088H184.707V26.088ZM200.627 24.088V32.664H204.627V24.088H200.627ZM204.211 33.8856C206.312 31.1609 209.003 29.0085 212.319 27.4297L210.599 23.8183C206.747 25.6528 203.55 28.1938 201.043 31.4424L204.211 33.8856ZM212.302 27.4374C215.688 25.8627 219.408 25.064 223.491 25.064V21.064C218.87 21.064 214.569 21.9719 210.616 23.8106L212.302 27.4374ZM223.491 25.064C228.741 25.064 233.353 26.192 237.376 28.4012L239.302 24.8948C234.621 22.3253 229.334 21.064 223.491 21.064V25.064ZM237.403 28.4156C241.407 30.5352 244.495 33.5819 246.698 37.5945L250.204 35.6695C247.628 30.9781 243.975 27.3688 239.275 24.8804L237.403 28.4156ZM250.194 37.6125C252.308 33.8538 255.366 30.8219 259.424 28.5146L257.446 25.0374C252.8 27.6794 249.202 31.2181 246.708 35.6515L250.194 37.6125ZM259.409 28.5227C263.546 26.2155 267.989 25.064 272.771 25.064V21.064C267.313 21.064 262.198 22.3872 257.461 25.0293L259.409 28.5227ZM336.752 34.328H334.752V40.5958L338.382 35.4864L336.752 34.328ZM346.224 26.264L347.163 28.0297L347.17 28.0262L347.177 28.0226L346.224 26.264ZM376.56 27.416L375.513 29.1203L375.52 29.1244L375.527 29.1284L376.56 27.416ZM388.208 40.216L386.425 41.1214L386.433 41.1379L386.442 41.1543L388.208 40.216ZM388.208 78.616L386.43 77.7001L386.425 77.7106L388.208 78.616ZM376.56 91.544L375.505 89.8447L375.499 89.8488L375.492 89.853L376.56 91.544ZM346.352 92.952L345.397 94.7092L345.405 94.7135L345.413 94.7177L346.352 92.952ZM336.752 84.888L338.342 83.6747L334.752 78.9706V84.888H336.752ZM336.752 128.792V130.792H338.752V128.792H336.752ZM318.832 128.792H316.832V130.792H318.832V128.792ZM318.832 24.088V22.088H316.832V24.088H318.832ZM336.752 24.088H338.752V22.088H336.752V24.088ZM371.568 48.28L369.809 49.231L369.824 49.2596L369.84 49.2877L371.568 48.28ZM364.656 41.112L363.658 42.8452L363.669 42.8516L363.68 42.8579L364.656 41.112ZM346.224 41.24L347.222 42.9732L347.23 42.9686L347.238 42.9639L346.224 41.24ZM339.312 48.408L337.573 47.4208L337.562 47.4388L337.553 47.457L339.312 48.408ZM339.312 70.68L337.553 71.631L337.562 71.6492L337.573 71.6672L339.312 70.68ZM346.224 77.976L345.187 79.6864L345.218 79.7047L345.248 79.7219L346.224 77.976ZM364.656 77.848L363.642 76.1241L363.631 76.1308L363.619 76.1376L364.656 77.848ZM371.568 70.552L369.829 69.5648L369.818 69.5828L369.809 69.601L371.568 70.552ZM338.382 35.4864C340.482 32.531 343.388 30.0379 347.163 28.0297L345.285 24.4983C341.039 26.7567 337.63 29.6397 335.122 33.1696L338.382 35.4864ZM347.177 28.0226C350.947 25.9803 355.264 24.936 360.176 24.936V20.936C354.678 20.936 349.693 22.1104 345.271 24.5054L347.177 28.0226ZM360.176 24.936C365.889 24.936 370.984 26.339 375.513 29.1203L377.607 25.7117C372.408 22.5196 366.58 20.936 360.176 20.936V24.936ZM375.527 29.1284C380.131 31.9068 383.765 35.8822 386.425 41.1214L389.991 39.3106C387.019 33.4565 382.888 28.8985 377.593 25.7036L375.527 29.1284ZM386.442 41.1543C389.165 46.2805 390.56 52.3052 390.56 59.288H394.56C394.56 51.7641 393.054 45.0741 389.974 39.2777L386.442 41.1543ZM390.56 59.288C390.56 66.2691 389.166 72.3899 386.43 77.7001L389.986 79.5319C393.053 73.5781 394.56 66.8135 394.56 59.288H390.56ZM386.425 77.7106C383.763 82.954 380.122 86.9789 375.505 89.8447L377.615 93.2433C382.896 89.9651 387.021 85.3713 389.991 79.5214L386.425 77.7106ZM375.492 89.853C370.965 92.7122 365.878 94.152 360.176 94.152V98.152C366.592 98.152 372.427 96.5198 377.628 93.235L375.492 89.853ZM360.176 94.152C355.25 94.152 350.973 93.1446 347.291 91.1863L345.413 94.7177C349.752 97.026 354.691 98.152 360.176 98.152V94.152ZM347.307 91.1948C343.605 89.183 340.63 86.6727 338.342 83.6747L335.162 86.1013C337.823 89.5886 341.248 92.4543 345.397 94.7092L347.307 91.1948ZM334.752 84.888V128.792H338.752V84.888H334.752ZM336.752 126.792H318.832V130.792H336.752V126.792ZM320.832 128.792V24.088H316.832V128.792H320.832ZM318.832 26.088H336.752V22.088H318.832V26.088ZM334.752 24.088V34.328H338.752V24.088H334.752ZM376.256 59.288C376.256 54.7381 375.299 50.706 373.296 47.2723L369.84 49.2877C371.421 51.998 372.256 55.3046 372.256 59.288H376.256ZM373.327 47.329C371.455 43.8654 368.891 41.1875 365.632 39.3661L363.68 42.8579C366.224 44.2792 368.267 46.3799 369.809 49.231L373.327 47.329ZM365.654 39.3788C362.527 37.5783 359.109 36.68 355.44 36.68V40.68C358.427 40.68 361.153 41.403 363.658 42.8452L365.654 39.3788ZM355.44 36.68C351.827 36.68 348.406 37.6359 345.21 39.5161L347.238 42.9639C349.844 41.4308 352.568 40.68 355.44 40.68V36.68ZM345.226 39.5068C342.066 41.3264 339.52 43.9904 337.573 47.4208L341.051 49.3952C342.688 46.511 344.75 44.3963 347.222 42.9732L345.226 39.5068ZM337.553 47.457C335.661 50.9569 334.752 55.0079 334.752 59.544H338.752C338.752 55.5468 339.55 52.1737 341.071 49.359L337.553 47.457ZM334.752 59.544C334.752 64.0801 335.661 68.1311 337.553 71.631L341.071 69.729C339.55 66.9143 338.752 63.5412 338.752 59.544H334.752ZM337.573 71.6672C339.516 75.0905 342.05 77.7849 345.187 79.6864L347.261 76.2656C344.766 74.7537 342.692 72.5842 341.051 69.6928L337.573 71.6672ZM345.248 79.7219C348.44 81.5055 351.847 82.408 355.44 82.408V78.408C352.548 78.408 349.811 77.6892 347.2 76.2301L345.248 79.7219ZM355.44 82.408C359.129 82.408 362.561 81.4566 365.693 79.5584L363.619 76.1376C361.119 77.6527 358.407 78.408 355.44 78.408V82.408ZM365.67 79.5719C368.907 77.668 371.459 74.959 373.327 71.503L369.809 69.601C368.263 72.4597 366.208 74.6147 363.642 76.1241L365.67 79.5719ZM373.307 71.5392C375.301 68.0263 376.256 63.9173 376.256 59.288H372.256C372.256 63.3627 371.419 66.7631 369.829 69.5648L373.307 71.5392ZM423.502 0.279999H425.502V-1.72H423.502V0.279999ZM423.502 95V97H425.502V95H423.502ZM405.582 95H403.582V97H405.582V95ZM405.582 0.279999V-1.72H403.582V0.279999H405.582ZM421.502 0.279999V95H425.502V0.279999H421.502ZM423.502 93H405.582V97H423.502V93ZM407.582 95V0.279999H403.582V95H407.582ZM405.582 2.28H423.502V-1.72H405.582V2.28ZM506.615 64.92V66.92H508.309L508.588 65.2488L506.615 64.92ZM454.775 64.92V62.92H452.601L452.782 65.0861L454.775 64.92ZM460.151 76.952L458.798 78.4247L458.798 78.4247L460.151 76.952ZM486.007 72.728V70.728H484.763L484.213 71.8443L486.007 72.728ZM505.335 72.728L507.251 73.3027L508.023 70.728H505.335V72.728ZM493.559 89.624L494.759 91.224L494.766 91.2184L494.774 91.2127L493.559 89.624ZM453.751 91.672L452.759 93.4085L452.775 93.4178L452.791 93.4267L453.751 91.672ZM441.079 78.744L439.318 79.6922L439.324 79.7026L439.329 79.713L441.079 78.744ZM441.079 40.216L439.318 39.2678L439.318 39.2678L441.079 40.216ZM453.623 27.416L454.594 29.1643L454.594 29.1643L453.623 27.416ZM490.231 27.288L489.269 29.0417L489.281 29.048L490.231 27.288ZM502.647 39.704L500.887 40.6539L500.896 40.6706L500.905 40.6872L502.647 39.704ZM488.567 52.888V54.888H490.604L490.567 52.851L488.567 52.888ZM483.575 41.88L482.264 43.3901L482.275 43.4L482.287 43.4098L483.575 41.88ZM460.407 41.752L461.733 43.2492L461.736 43.2468L460.407 41.752ZM454.903 52.888L452.923 52.6052L452.597 54.888H454.903V52.888ZM505.127 58.008C505.127 60.4821 504.962 62.6735 504.642 64.5912L508.588 65.2488C508.951 63.0705 509.127 60.6539 509.127 58.008H505.127ZM506.615 62.92H454.775V66.92H506.615V62.92ZM452.782 65.0861C453.242 70.6016 455.2 75.1185 458.798 78.4247L461.504 75.4793C458.787 72.9828 457.162 69.4784 456.768 64.7539L452.782 65.0861ZM458.798 78.4247C462.353 81.6918 466.731 83.304 471.799 83.304V79.304C467.651 79.304 464.264 78.0149 461.504 75.4793L458.798 78.4247ZM471.799 83.304C475.417 83.304 478.639 82.5249 481.377 80.8723C484.12 79.2165 486.25 76.7602 487.801 73.6117L484.213 71.8443C482.948 74.4131 481.302 76.2448 479.309 77.4477C477.311 78.6538 474.837 79.304 471.799 79.304V83.304ZM486.007 74.728H505.335V70.728H486.007V74.728ZM503.419 72.1533C501.496 78.566 497.821 83.8469 492.344 88.0353L494.774 91.2127C500.902 86.5264 505.078 80.5433 507.251 73.3027L503.419 72.1533ZM492.359 88.024C486.957 92.0752 480.272 94.152 472.183 94.152V98.152C480.99 98.152 488.555 95.8768 494.759 91.224L492.359 88.024ZM472.183 94.152C465.659 94.152 459.85 92.7278 454.711 89.9173L452.791 93.4267C458.575 96.5895 465.054 98.152 472.183 98.152V94.152ZM454.743 89.9355C449.693 87.0497 445.728 83.0094 442.829 77.775L439.329 79.713C442.574 85.5719 447.057 90.1503 452.759 93.4085L454.743 89.9355ZM442.84 77.7958C440.033 72.582 438.599 66.5169 438.599 59.544H434.599C434.599 67.0778 436.152 73.8127 439.318 79.6922L442.84 77.7958ZM438.599 59.544C438.599 52.4815 440.034 46.3747 442.84 41.1642L439.318 39.2678C436.15 45.1506 434.599 51.9292 434.599 59.544H438.599ZM442.84 41.1642C445.65 35.9456 449.561 31.9605 454.594 29.1643L452.652 25.6677C446.933 28.8448 442.481 33.3931 439.318 39.2678L442.84 41.1642ZM454.594 29.1643C459.634 26.3643 465.478 24.936 472.183 24.936V20.936C464.893 20.936 458.364 22.4943 452.652 25.6677L454.594 29.1643ZM472.183 24.936C478.628 24.936 484.307 26.3202 489.269 29.0416L491.193 25.5344C485.574 22.4531 479.22 20.936 472.183 20.936V24.936ZM489.281 29.048C494.314 31.7641 498.171 35.6212 500.887 40.6539L504.407 38.7541C501.32 33.0348 496.9 28.6146 491.181 25.528L489.281 29.048ZM500.905 40.6872C503.7 45.6385 505.127 51.3923 505.127 58.008H509.127C509.127 50.7996 507.567 44.3508 504.389 38.7208L500.905 40.6872ZM490.567 52.851C490.472 47.7227 488.589 43.4875 484.863 40.3502L482.287 43.4098C485.046 45.7338 486.492 48.8373 486.567 52.925L490.567 52.851ZM484.886 40.3699C481.245 37.2077 476.798 35.656 471.671 35.656V39.656C475.931 39.656 479.42 40.9203 482.264 43.3901L484.886 40.3699ZM471.671 35.656C466.786 35.656 462.547 37.174 459.078 40.2572L461.736 43.2468C464.411 40.8686 467.681 39.656 471.671 39.656V35.656ZM459.081 40.2548C455.669 43.2772 453.658 47.4597 452.923 52.6052L456.883 53.1708C457.513 48.759 459.172 45.5175 461.733 43.2492L459.081 40.2548ZM454.903 54.888H488.567V50.888H454.903V54.888ZM559.375 95L557.708 96.1049L558.301 97H559.375V95ZM544.783 72.984L546.45 71.8791L544.68 69.209L543.058 71.9713L544.783 72.984ZM531.855 95V97H533L533.58 96.0127L531.855 95ZM512.655 95L510.979 93.9088L508.966 97H512.655V95ZM535.823 59.416L537.499 60.5072L538.216 59.406L537.49 58.3108L535.823 59.416ZM512.399 24.088V22.088H508.673L510.732 25.1932L512.399 24.088ZM532.623 24.088L534.292 22.9854L533.699 22.088H532.623V24.088ZM547.087 45.976L545.418 47.0786L547.174 49.7348L548.805 47.0006L547.087 45.976ZM560.143 24.088V22.088H559.007L558.425 23.0634L560.143 24.088ZM579.343 24.088L581.013 25.189L583.058 22.088H579.343V24.088ZM556.047 59.416L554.377 58.315L553.65 59.418L554.379 60.5199L556.047 59.416ZM579.599 95V97H583.321L581.267 93.8961L579.599 95ZM561.042 93.8951L546.45 71.8791L543.116 74.0889L557.708 96.1049L561.042 93.8951ZM543.058 71.9713L530.13 93.9873L533.58 96.0127L546.508 73.9967L543.058 71.9713ZM531.855 93H512.655V97H531.855V93ZM514.331 96.0912L537.499 60.5072L534.147 58.3247L510.979 93.9088L514.331 96.0912ZM537.49 58.3108L514.066 22.9828L510.732 25.1932L534.156 60.5212L537.49 58.3108ZM512.399 26.088H532.623V22.088H512.399V26.088ZM530.954 25.1906L545.418 47.0786L548.756 44.8734L534.292 22.9854L530.954 25.1906ZM548.805 47.0006L561.861 25.1126L558.425 23.0634L545.369 44.9514L548.805 47.0006ZM560.143 26.088H579.343V22.088H560.143V26.088ZM577.673 22.987L554.377 58.315L557.717 60.517L581.013 25.189L577.673 22.987ZM554.379 60.5199L577.931 96.1039L581.267 93.8961L557.715 58.3121L554.379 60.5199ZM579.599 93H559.375V97H579.599V93ZM631.352 93.08L630.512 94.8949L630.526 94.9014L630.54 94.9076L631.352 93.08ZM620.344 84.504L618.735 85.6917L618.744 85.704L618.753 85.7161L620.344 84.504ZM615.992 72.6V70.6H613.871L613.995 72.7174L615.992 72.6ZM634.04 72.6L636.025 72.3519L635.806 70.6H634.04V72.6ZM638.008 79.384L636.78 80.9627L636.794 80.9735L636.808 80.984L638.008 79.384ZM654.776 80.024L653.634 78.3822L653.617 78.3942L653.6 78.4065L654.776 80.024ZM654.136 69.656L653.215 71.4315L653.254 71.4516L653.294 71.47L654.136 69.656ZM643 65.816L643.515 63.8835L643.493 63.8775L643.47 63.8721L643 65.816ZM629.944 61.848L629.185 63.6983L629.193 63.7017L629.201 63.705L629.944 61.848ZM621.24 55.576L619.715 56.87L619.726 56.8832L619.738 56.8962L621.24 55.576ZM620.984 33.432L619.354 32.2736L619.343 32.288L619.333 32.3026L620.984 33.432ZM630.712 25.752L629.907 23.9214L629.9 23.9244L629.893 23.9275L630.712 25.752ZM665.912 29.336L664.619 30.8618L664.627 30.8682L664.634 30.8746L665.912 29.336ZM674.232 46.36V48.36H676.38L676.227 46.2175L674.232 46.36ZM657.08 46.36L655.088 46.5411L655.254 48.36H657.08V46.36ZM653.496 39.704L652.216 41.2404L652.25 41.2692L652.286 41.2963L653.496 39.704ZM637.624 38.936L636.515 37.2719L636.496 37.2845L636.477 37.2975L637.624 38.936ZM638.648 49.432L637.704 51.195L637.728 51.2083L637.754 51.2209L638.648 49.432ZM649.784 53.144L649.291 55.0823L649.299 55.0843L649.784 53.144ZM671.032 63.512L669.488 64.7834L669.509 64.8082L669.53 64.8322L671.032 63.512ZM674.872 74.776H676.872V74.7578L676.872 74.7396L674.872 74.776ZM671.416 85.784L669.786 84.6256L669.775 84.64L669.765 84.6546L671.416 85.784ZM661.688 93.464L662.476 95.3023L662.485 95.2985L662.493 95.2946L661.688 93.464ZM646.968 94.152C641.403 94.152 636.481 93.1708 632.164 91.2524L630.54 94.9076C635.439 97.0852 640.927 98.152 646.968 98.152V94.152ZM632.192 91.2651C627.842 89.251 624.444 86.5855 621.935 83.2919L618.753 85.7161C621.705 89.5905 625.646 92.6424 630.512 94.8949L632.192 91.2651ZM621.953 83.3163C619.533 80.0368 618.221 76.439 617.989 72.4826L613.995 72.7174C614.275 77.465 615.865 81.8032 618.735 85.6917L621.953 83.3163ZM615.992 74.6H634.04V70.6H615.992V74.6ZM632.055 72.8481C632.467 76.1395 634.086 78.867 636.78 80.9627L639.236 77.8053C637.322 76.317 636.296 74.5219 636.025 72.3519L632.055 72.8481ZM636.808 80.984C639.6 83.0783 642.985 84.072 646.84 84.072V80.072C643.697 80.072 641.194 79.2737 639.208 77.784L636.808 80.984ZM646.84 84.072C650.486 84.072 653.606 83.3477 655.952 81.6415L653.6 78.4065C652.191 79.431 650.02 80.072 646.84 80.072V84.072ZM655.918 81.6658C658.343 79.9791 659.72 77.6509 659.72 74.776H655.72C655.72 76.1677 655.135 77.3382 653.634 78.3822L655.918 81.6658ZM659.72 74.776C659.72 73.2591 659.32 71.846 658.462 70.6211C657.616 69.4123 656.409 68.5064 654.978 67.842L653.294 71.47C654.252 71.915 654.837 72.4171 655.186 72.9149C655.523 73.3967 655.72 73.9889 655.72 74.776H659.72ZM655.057 67.8805C652.55 66.5806 648.662 65.256 643.515 63.8835L642.485 67.7485C647.578 69.1066 651.114 70.342 653.215 71.4315L655.057 67.8805ZM643.47 63.8721C638.233 62.605 633.98 61.3085 630.687 59.991L629.201 63.705C632.734 65.1182 637.186 66.467 642.53 67.7599L643.47 63.8721ZM630.703 59.9977C627.673 58.7544 625.022 56.8502 622.742 54.2558L619.738 56.8962C622.407 59.9338 625.559 62.211 629.185 63.6983L630.703 59.9977ZM622.765 54.282C620.763 51.9227 619.656 48.6307 619.656 44.184H615.656C615.656 49.2946 616.938 53.5973 619.715 56.87L622.765 54.282ZM619.656 44.184C619.656 40.6621 620.643 37.4717 622.635 34.5614L619.333 32.3026C616.887 35.8776 615.656 39.8552 615.656 44.184H619.656ZM622.614 34.5904C624.682 31.6798 627.625 29.3305 631.531 27.5765L629.893 23.9275C625.437 25.9281 621.894 28.6988 619.354 32.2736L622.614 34.5904ZM631.517 27.5826C635.48 25.8393 640.187 24.936 645.688 24.936V20.936C639.755 20.936 634.478 21.9101 629.907 23.9214L631.517 27.5826ZM645.688 24.936C653.798 24.936 660.037 26.9789 664.619 30.8618L667.205 27.8102C661.718 23.1598 654.474 20.936 645.688 20.936V24.936ZM664.634 30.8746C669.206 34.6716 671.76 39.8191 672.237 46.5025L676.227 46.2175C675.68 38.5649 672.687 32.363 667.19 27.7974L664.634 30.8746ZM674.232 44.36H657.08V48.36H674.232V44.36ZM659.072 46.1789C658.768 42.8385 657.314 40.0934 654.706 38.1117L652.286 41.2963C653.945 42.5572 654.88 44.2495 655.088 46.5411L659.072 46.1789ZM654.776 38.1676C652.27 36.0787 648.995 35.144 645.176 35.144V39.144C648.355 39.144 650.626 39.916 652.216 41.2404L654.776 38.1676ZM645.176 35.144C641.726 35.144 638.762 35.7735 636.515 37.2719L638.733 40.6001C640.07 39.7092 642.141 39.144 645.176 39.144V35.144ZM636.477 37.2975C634.221 38.8771 633.064 41.1607 633.064 43.928H637.064C637.064 42.4286 637.614 41.3843 638.771 40.5745L636.477 37.2975ZM633.064 43.928C633.064 45.4733 633.456 46.9157 634.284 48.1873C635.104 49.446 636.282 50.4335 637.704 51.195L639.592 47.669C638.625 47.1505 638.011 46.5806 637.636 46.0047C637.269 45.4416 637.064 44.772 637.064 43.928H633.064ZM637.754 51.2209C640.341 52.5144 644.222 53.7935 649.291 55.0823L650.277 51.2057C645.277 49.9345 641.734 48.7389 639.542 47.6431L637.754 51.2209ZM649.299 55.0843C654.364 56.3507 658.489 57.6461 661.697 58.9623L663.215 55.2617C659.767 53.8472 655.444 52.4973 650.269 51.2037L649.299 55.0843ZM661.697 58.9623C664.706 60.1967 667.299 62.125 669.488 64.7834L672.576 62.2406C669.986 59.0963 666.862 56.758 663.215 55.2617L661.697 58.9623ZM669.53 64.8322C671.619 67.21 672.793 70.4694 672.872 74.8124L676.872 74.7396C676.78 69.696 675.394 65.446 672.534 62.1918L669.53 64.8322ZM672.872 74.776C672.872 78.47 671.842 81.7319 669.786 84.6256L673.046 86.9424C675.598 83.3508 676.872 79.274 676.872 74.776H672.872ZM669.765 84.6546C667.794 87.5359 664.872 89.878 660.883 91.6334L662.493 95.2946C667.037 93.2953 670.601 90.5174 673.067 86.9134L669.765 84.6546ZM660.9 91.6257C657.019 93.2889 652.392 94.152 646.968 94.152V98.152C652.808 98.152 657.994 97.2231 662.476 95.3023L660.9 91.6257ZM757.422 24.088L759.266 24.863L760.432 22.088H757.422V24.088ZM713.518 128.536V130.536H714.847L715.362 129.311L713.518 128.536ZM694.446 128.536L692.612 127.739L691.396 130.536H694.446V128.536ZM709.806 93.208L711.64 94.0055L711.977 93.2298L711.656 92.4475L709.806 93.208ZM681.39 24.088V22.088H678.405L679.54 24.8485L681.39 24.088ZM701.486 24.088L703.362 23.3948L702.879 22.088H701.486V24.088ZM719.79 73.624L717.914 74.3172L719.777 79.359L721.663 74.3257L719.79 73.624ZM738.35 24.088V22.088H736.964L736.477 23.3863L738.35 24.088ZM755.578 23.313L711.674 127.761L715.362 129.311L759.266 24.863L755.578 23.313ZM713.518 126.536H694.446V130.536H713.518V126.536ZM696.28 129.333L711.64 94.0055L707.972 92.4105L692.612 127.739L696.28 129.333ZM711.656 92.4475L683.24 23.3275L679.54 24.8485L707.956 93.9685L711.656 92.4475ZM681.39 26.088H701.486V22.088H681.39V26.088ZM699.61 24.7812L717.914 74.3172L721.666 72.9308L703.362 23.3948L699.61 24.7812ZM721.663 74.3257L740.223 24.7897L736.477 23.3863L717.917 72.9223L721.663 74.3257ZM738.35 26.088H757.422V22.088H738.35V26.088ZM778.602 93.08L777.762 94.8949L777.776 94.9014L777.79 94.9076L778.602 93.08ZM767.594 84.504L765.985 85.6917L765.994 85.704L766.003 85.7161L767.594 84.504ZM763.242 72.6V70.6H761.121L761.245 72.7174L763.242 72.6ZM781.29 72.6L783.275 72.3519L783.056 70.6H781.29V72.6ZM785.258 79.384L784.03 80.9627L784.044 80.9735L784.058 80.984L785.258 79.384ZM802.026 80.024L800.884 78.3822L800.867 78.3942L800.85 78.4065L802.026 80.024ZM801.386 69.656L800.465 71.4315L800.504 71.4516L800.544 71.47L801.386 69.656ZM790.25 65.816L790.765 63.8835L790.743 63.8775L790.72 63.8721L790.25 65.816ZM777.194 61.848L776.435 63.6983L776.443 63.7017L776.451 63.705L777.194 61.848ZM768.49 55.576L766.965 56.87L766.976 56.8832L766.988 56.8962L768.49 55.576ZM768.234 33.432L766.604 32.2736L766.593 32.288L766.583 32.3026L768.234 33.432ZM777.962 25.752L777.157 23.9214L777.15 23.9244L777.143 23.9275L777.962 25.752ZM813.162 29.336L811.869 30.8618L811.877 30.8682L811.884 30.8746L813.162 29.336ZM821.482 46.36V48.36H823.63L823.477 46.2175L821.482 46.36ZM804.33 46.36L802.338 46.5411L802.504 48.36H804.33V46.36ZM800.746 39.704L799.466 41.2404L799.5 41.2692L799.536 41.2963L800.746 39.704ZM784.874 38.936L783.765 37.2719L783.746 37.2845L783.727 37.2975L784.874 38.936ZM785.898 49.432L784.954 51.195L784.978 51.2083L785.004 51.2209L785.898 49.432ZM797.034 53.144L796.541 55.0823L796.549 55.0843L797.034 53.144ZM818.282 63.512L816.738 64.7834L816.759 64.8082L816.78 64.8322L818.282 63.512ZM822.122 74.776H824.122V74.7578L824.122 74.7396L822.122 74.776ZM818.666 85.784L817.036 84.6256L817.025 84.64L817.015 84.6546L818.666 85.784ZM808.938 93.464L809.726 95.3023L809.735 95.2985L809.743 95.2946L808.938 93.464ZM794.218 94.152C788.653 94.152 783.731 93.1708 779.414 91.2524L777.79 94.9076C782.689 97.0852 788.177 98.152 794.218 98.152V94.152ZM779.442 91.2651C775.092 89.251 771.694 86.5855 769.185 83.2919L766.003 85.7161C768.955 89.5905 772.896 92.6424 777.762 94.8949L779.442 91.2651ZM769.203 83.3163C766.783 80.0368 765.471 76.439 765.239 72.4826L761.245 72.7174C761.525 77.465 763.115 81.8032 765.985 85.6917L769.203 83.3163ZM763.242 74.6H781.29V70.6H763.242V74.6ZM779.305 72.8481C779.717 76.1395 781.336 78.867 784.03 80.9627L786.486 77.8053C784.572 76.317 783.546 74.5219 783.275 72.3519L779.305 72.8481ZM784.058 80.984C786.85 83.0783 790.235 84.072 794.09 84.072V80.072C790.947 80.072 788.444 79.2737 786.458 77.784L784.058 80.984ZM794.09 84.072C797.736 84.072 800.856 83.3477 803.202 81.6415L800.85 78.4065C799.441 79.431 797.27 80.072 794.09 80.072V84.072ZM803.168 81.6658C805.593 79.9791 806.97 77.6509 806.97 74.776H802.97C802.97 76.1677 802.385 77.3382 800.884 78.3822L803.168 81.6658ZM806.97 74.776C806.97 73.2591 806.57 71.846 805.712 70.6211C804.866 69.4123 803.659 68.5064 802.228 67.842L800.544 71.47C801.502 71.915 802.087 72.4171 802.436 72.9149C802.773 73.3967 802.97 73.9889 802.97 74.776H806.97ZM802.307 67.8805C799.8 66.5806 795.912 65.256 790.765 63.8835L789.735 67.7485C794.828 69.1066 798.364 70.342 800.465 71.4315L802.307 67.8805ZM790.72 63.8721C785.483 62.605 781.23 61.3085 777.937 59.991L776.451 63.705C779.984 65.1182 784.436 66.467 789.78 67.7599L790.72 63.8721ZM777.953 59.9977C774.923 58.7544 772.272 56.8502 769.992 54.2558L766.988 56.8962C769.657 59.9338 772.809 62.211 776.435 63.6983L777.953 59.9977ZM770.015 54.282C768.013 51.9227 766.906 48.6307 766.906 44.184H762.906C762.906 49.2946 764.188 53.5973 766.965 56.87L770.015 54.282ZM766.906 44.184C766.906 40.6621 767.893 37.4717 769.885 34.5614L766.583 32.3026C764.137 35.8776 762.906 39.8552 762.906 44.184H766.906ZM769.864 34.5904C771.932 31.6798 774.875 29.3305 778.781 27.5765L777.143 23.9275C772.687 25.9281 769.144 28.6988 766.604 32.2736L769.864 34.5904ZM778.767 27.5826C782.73 25.8393 787.437 24.936 792.938 24.936V20.936C787.005 20.936 781.728 21.9101 777.157 23.9214L778.767 27.5826ZM792.938 24.936C801.048 24.936 807.287 26.9789 811.869 30.8618L814.455 27.8102C808.968 23.1598 801.724 20.936 792.938 20.936V24.936ZM811.884 30.8746C816.456 34.6716 819.01 39.8191 819.487 46.5025L823.477 46.2175C822.93 38.5649 819.937 32.363 814.44 27.7974L811.884 30.8746ZM821.482 44.36H804.33V48.36H821.482V44.36ZM806.322 46.1789C806.018 42.8385 804.564 40.0934 801.956 38.1117L799.536 41.2963C801.195 42.5572 802.13 44.2495 802.338 46.5411L806.322 46.1789ZM802.026 38.1676C799.52 36.0787 796.245 35.144 792.426 35.144V39.144C795.605 39.144 797.876 39.916 799.466 41.2404L802.026 38.1676ZM792.426 35.144C788.976 35.144 786.012 35.7735 783.765 37.2719L785.983 40.6001C787.32 39.7092 789.391 39.144 792.426 39.144V35.144ZM783.727 37.2975C781.471 38.8771 780.314 41.1607 780.314 43.928H784.314C784.314 42.4286 784.864 41.3843 786.021 40.5745L783.727 37.2975ZM780.314 43.928C780.314 45.4733 780.706 46.9157 781.534 48.1873C782.354 49.446 783.532 50.4335 784.954 51.195L786.842 47.669C785.875 47.1505 785.261 46.5806 784.886 46.0047C784.519 45.4416 784.314 44.772 784.314 43.928H780.314ZM785.004 51.2209C787.591 52.5144 791.472 53.7935 796.541 55.0823L797.527 51.2057C792.527 49.9345 788.984 48.7389 786.792 47.6431L785.004 51.2209ZM796.549 55.0843C801.614 56.3507 805.739 57.6461 808.947 58.9623L810.465 55.2617C807.017 53.8472 802.694 52.4973 797.519 51.2037L796.549 55.0843ZM808.947 58.9623C811.956 60.1967 814.549 62.125 816.738 64.7834L819.826 62.2406C817.236 59.0963 814.112 56.758 810.465 55.2617L808.947 58.9623ZM816.78 64.8322C818.869 67.21 820.043 70.4694 820.122 74.8124L824.122 74.7396C824.03 69.696 822.644 65.446 819.784 62.1918L816.78 64.8322ZM820.122 74.776C820.122 78.47 819.092 81.7319 817.036 84.6256L820.296 86.9424C822.848 83.3508 824.122 79.274 824.122 74.776H820.122ZM817.015 84.6546C815.044 87.5359 812.122 89.878 808.133 91.6334L809.743 95.2946C814.287 93.2953 817.851 90.5174 820.317 86.9134L817.015 84.6546ZM808.15 91.6257C804.269 93.2889 799.642 94.152 794.218 94.152V98.152C800.058 98.152 805.244 97.2231 809.726 95.3023L808.15 91.6257ZM857.696 38.808V36.808H855.696V38.808H857.696ZM859.36 78.36L857.946 79.7742L858 79.8285L858.058 79.8785L859.36 78.36ZM873.568 79.896H875.568V77.896H873.568V79.896ZM873.568 95V97H875.568V95H873.568ZM839.648 38.808H841.648V36.808H839.648V38.808ZM831.2 38.808H829.2V40.808H831.2V38.808ZM831.2 24.088V22.088H829.2V24.088H831.2ZM839.648 24.088V26.088H841.648V24.088H839.648ZM839.648 6.55199V4.55199H837.648V6.55199H839.648ZM857.696 6.55199H859.696V4.55199H857.696V6.55199ZM857.696 24.088H855.696V26.088H857.696V24.088ZM873.568 24.088H875.568V22.088H873.568V24.088ZM873.568 38.808V40.808H875.568V38.808H873.568ZM855.696 38.808V73.112H859.696V38.808H855.696ZM855.696 73.112C855.696 75.7593 856.305 78.1333 857.946 79.7742L860.774 76.9458C860.196 76.3681 859.696 75.2434 859.696 73.112H855.696ZM858.058 79.8785C859.801 81.3718 862.359 81.896 865.248 81.896V77.896C862.676 77.896 861.309 77.3962 860.662 76.8415L858.058 79.8785ZM865.248 81.896H873.568V77.896H865.248V81.896ZM871.568 79.896V95H875.568V79.896H871.568ZM873.568 93H862.304V97H873.568V93ZM862.304 93C855.046 93 849.973 91.2363 846.706 88.0617C843.45 84.8974 841.648 79.9996 841.648 72.984H837.648C837.648 80.6457 839.622 86.756 843.918 90.9303C848.203 95.0944 854.458 97 862.304 97V93ZM841.648 72.984V38.808H837.648V72.984H841.648ZM839.648 36.808H831.2V40.808H839.648V36.808ZM833.2 38.808V24.088H829.2V38.808H833.2ZM831.2 26.088H839.648V22.088H831.2V26.088ZM841.648 24.088V6.55199H837.648V24.088H841.648ZM839.648 8.55199H857.696V4.55199H839.648V8.55199ZM855.696 6.55199V24.088H859.696V6.55199H855.696ZM857.696 26.088H873.568V22.088H857.696V26.088ZM871.568 24.088V38.808H875.568V24.088H871.568ZM873.568 36.808H857.696V40.808H873.568V36.808ZM951.865 64.92V66.92H953.559L953.838 65.2488L951.865 64.92ZM900.025 64.92V62.92H897.851L898.032 65.0861L900.025 64.92ZM905.401 76.952L904.048 78.4247L904.048 78.4247L905.401 76.952ZM931.257 72.728V70.728H930.013L929.463 71.8443L931.257 72.728ZM950.585 72.728L952.501 73.3027L953.273 70.728H950.585V72.728ZM938.809 89.624L940.009 91.224L940.016 91.2184L940.024 91.2127L938.809 89.624ZM899.001 91.672L898.009 93.4085L898.025 93.4178L898.041 93.4267L899.001 91.672ZM886.329 78.744L884.568 79.6922L884.574 79.7026L884.579 79.713L886.329 78.744ZM886.329 40.216L884.568 39.2678L884.568 39.2678L886.329 40.216ZM898.873 27.416L899.844 29.1643L899.844 29.1643L898.873 27.416ZM935.481 27.288L934.519 29.0417L934.531 29.048L935.481 27.288ZM947.897 39.704L946.137 40.6539L946.146 40.6706L946.155 40.6872L947.897 39.704ZM933.817 52.888V54.888H935.854L935.817 52.851L933.817 52.888ZM928.825 41.88L927.514 43.3901L927.525 43.4L927.537 43.4098L928.825 41.88ZM905.657 41.752L906.983 43.2492L906.986 43.2468L905.657 41.752ZM900.153 52.888L898.173 52.6052L897.847 54.888H900.153V52.888ZM950.377 58.008C950.377 60.4821 950.212 62.6735 949.892 64.5912L953.838 65.2488C954.201 63.0705 954.377 60.6539 954.377 58.008H950.377ZM951.865 62.92H900.025V66.92H951.865V62.92ZM898.032 65.0861C898.492 70.6016 900.45 75.1185 904.048 78.4247L906.754 75.4793C904.037 72.9828 902.412 69.4784 902.018 64.7539L898.032 65.0861ZM904.048 78.4247C907.603 81.6918 911.981 83.304 917.049 83.304V79.304C912.901 79.304 909.514 78.0149 906.754 75.4793L904.048 78.4247ZM917.049 83.304C920.667 83.304 923.889 82.5249 926.627 80.8723C929.37 79.2165 931.5 76.7602 933.051 73.6117L929.463 71.8443C928.198 74.4131 926.552 76.2448 924.559 77.4477C922.561 78.6538 920.087 79.304 917.049 79.304V83.304ZM931.257 74.728H950.585V70.728H931.257V74.728ZM948.669 72.1533C946.746 78.566 943.071 83.8469 937.594 88.0353L940.024 91.2127C946.152 86.5264 950.328 80.5433 952.501 73.3027L948.669 72.1533ZM937.609 88.024C932.207 92.0752 925.522 94.152 917.433 94.152V98.152C926.24 98.152 933.805 95.8768 940.009 91.224L937.609 88.024ZM917.433 94.152C910.909 94.152 905.1 92.7278 899.961 89.9173L898.041 93.4267C903.825 96.5895 910.304 98.152 917.433 98.152V94.152ZM899.993 89.9355C894.943 87.0497 890.978 83.0094 888.079 77.775L884.579 79.713C887.824 85.5719 892.307 90.1503 898.009 93.4085L899.993 89.9355ZM888.09 77.7958C885.283 72.582 883.849 66.5169 883.849 59.544H879.849C879.849 67.0778 881.402 73.8127 884.568 79.6922L888.09 77.7958ZM883.849 59.544C883.849 52.4815 885.284 46.3747 888.09 41.1642L884.568 39.2678C881.4 45.1506 879.849 51.9292 879.849 59.544H883.849ZM888.09 41.1642C890.9 35.9456 894.811 31.9605 899.844 29.1643L897.902 25.6677C892.183 28.8448 887.731 33.3931 884.568 39.2678L888.09 41.1642ZM899.844 29.1643C904.884 26.3643 910.728 24.936 917.433 24.936V20.936C910.143 20.936 903.614 22.4943 897.902 25.6677L899.844 29.1643ZM917.433 24.936C923.878 24.936 929.557 26.3202 934.519 29.0416L936.443 25.5344C930.824 22.4531 924.47 20.936 917.433 20.936V24.936ZM934.531 29.048C939.564 31.7641 943.421 35.6212 946.137 40.6539L949.657 38.7541C946.57 33.0348 942.15 28.6146 936.431 25.528L934.531 29.048ZM946.155 40.6872C948.95 45.6385 950.377 51.3923 950.377 58.008H954.377C954.377 50.7996 952.817 44.3508 949.639 38.7208L946.155 40.6872ZM935.817 52.851C935.722 47.7227 933.839 43.4875 930.113 40.3502L927.537 43.4098C930.296 45.7338 931.742 48.8373 931.817 52.925L935.817 52.851ZM930.136 40.3699C926.495 37.2077 922.048 35.656 916.921 35.656V39.656C921.181 39.656 924.67 40.9203 927.514 43.3901L930.136 40.3699ZM916.921 35.656C912.036 35.656 907.797 37.174 904.328 40.2572L906.986 43.2468C909.661 40.8686 912.931 39.656 916.921 39.656V35.656ZM904.331 40.2548C900.919 43.2772 898.908 47.4597 898.173 52.6052L902.133 53.1708C902.763 48.759 904.422 45.5175 906.983 43.2492L904.331 40.2548ZM900.153 54.888H933.817V50.888H900.153V54.888ZM1074.51 31.128L1073.09 32.5309L1073.1 32.5423L1073.11 32.5535L1074.51 31.128ZM1082.58 95V97H1084.58V95H1082.58ZM1064.66 95H1062.66V97H1064.66V95ZM1060.43 43.16L1058.98 44.532L1058.99 44.5426L1059 44.5529L1060.43 43.16ZM1037.27 43.16L1035.83 41.7664L1035.83 41.767L1037.27 43.16ZM1033.04 95V97H1035.04V95H1033.04ZM1015.12 95H1013.12V97H1015.12V95ZM1010.9 43.16L1009.44 44.532L1009.45 44.5426L1009.46 44.5529L1010.9 43.16ZM987.601 43.16L986.166 41.7664L986.166 41.767L987.601 43.16ZM983.377 95V97H985.377V95H983.377ZM965.457 95H963.457V97H965.457V95ZM965.457 24.088V22.088H963.457V24.088H965.457ZM983.377 24.088H985.377V22.088H983.377V24.088ZM983.377 32.664H981.377V38.531L984.961 33.8856L983.377 32.664ZM992.209 25.624L991.366 23.8106L991.357 23.8144L991.349 23.8183L992.209 25.624ZM1019.09 26.648L1018.13 28.4012L1018.14 28.4085L1018.15 28.4156L1019.09 26.648ZM1029.2 36.632L1027.45 37.5945L1029.18 40.7491L1030.94 37.6125L1029.2 36.632ZM1039.19 26.776L1038.21 25.0293L1038.2 25.0333L1038.2 25.0374L1039.19 26.776ZM1053.52 25.064C1061.78 25.064 1068.23 27.5963 1073.09 32.5309L1075.94 29.7251C1070.21 23.9077 1062.67 21.064 1053.52 21.064V25.064ZM1073.11 32.5535C1078.01 37.3741 1080.58 44.2277 1080.58 53.4H1084.58C1084.58 43.4576 1081.77 35.4632 1075.92 29.7025L1073.11 32.5535ZM1080.58 53.4V95H1084.58V53.4H1080.58ZM1082.58 93H1064.66V97H1082.58V93ZM1066.66 95V55.832H1062.66V95H1066.66ZM1066.66 55.832C1066.66 49.9621 1065.16 45.1623 1061.87 41.767L1059 44.5529C1061.33 46.9603 1062.66 50.6086 1062.66 55.832H1066.66ZM1061.89 41.788C1058.62 38.3266 1054.22 36.68 1048.91 36.68V40.68C1053.34 40.68 1056.61 42.02 1058.98 44.532L1061.89 41.788ZM1048.91 36.68C1043.61 36.68 1039.17 38.3267 1035.83 41.7664L1038.7 44.5536C1041.16 42.02 1044.49 40.68 1048.91 40.68V36.68ZM1035.83 41.767C1032.53 45.1623 1031.04 49.9621 1031.04 55.832H1035.04C1035.04 50.6086 1036.36 46.9603 1038.7 44.5529L1035.83 41.767ZM1031.04 55.832V95H1035.04V55.832H1031.04ZM1033.04 93H1015.12V97H1033.04V93ZM1017.12 95V55.832H1013.12V95H1017.12ZM1017.12 55.832C1017.12 49.9621 1015.63 45.1623 1012.33 41.767L1009.46 44.5529C1011.8 46.9603 1013.12 50.6086 1013.12 55.832H1017.12ZM1012.35 41.788C1009.09 38.3266 1004.68 36.68 999.377 36.68V40.68C1003.8 40.68 1007.07 42.02 1009.44 44.532L1012.35 41.788ZM999.377 36.68C993.997 36.68 989.515 38.3197 986.166 41.7664L989.036 44.5536C991.49 42.0269 994.858 40.68 999.377 40.68V36.68ZM986.166 41.767C982.87 45.1623 981.377 49.9621 981.377 55.832H985.377C985.377 50.6086 986.7 46.9603 989.036 44.5529L986.166 41.767ZM981.377 55.832V95H985.377V55.832H981.377ZM983.377 93H965.457V97H983.377V93ZM967.457 95V24.088H963.457V95H967.457ZM965.457 26.088H983.377V22.088H965.457V26.088ZM981.377 24.088V32.664H985.377V24.088H981.377ZM984.961 33.8856C987.062 31.1609 989.753 29.0085 993.069 27.4297L991.349 23.8183C987.497 25.6528 984.3 28.1938 981.793 31.4424L984.961 33.8856ZM993.052 27.4374C996.438 25.8627 1000.16 25.064 1004.24 25.064V21.064C999.62 21.064 995.319 21.9719 991.366 23.8106L993.052 27.4374ZM1004.24 25.064C1009.49 25.064 1014.1 26.192 1018.13 28.4012L1020.05 24.8948C1015.37 22.3253 1010.08 21.064 1004.24 21.064V25.064ZM1018.15 28.4156C1022.16 30.5352 1025.24 33.5819 1027.45 37.5945L1030.95 35.6695C1028.38 30.9781 1024.73 27.3688 1020.02 24.8804L1018.15 28.4156ZM1030.94 37.6125C1033.06 33.8538 1036.12 30.8219 1040.17 28.5146L1038.2 25.0374C1033.55 27.6794 1029.95 31.2181 1027.46 35.6515L1030.94 37.6125ZM1040.16 28.5227C1044.3 26.2155 1048.74 25.064 1053.52 25.064V21.064C1048.06 21.064 1042.95 22.3872 1038.21 25.0293L1040.16 28.5227ZM1111.1 93.08L1110.26 94.8949L1110.28 94.9014L1110.29 94.9076L1111.1 93.08ZM1100.09 84.504L1098.48 85.6917L1098.49 85.704L1098.5 85.7161L1100.09 84.504ZM1095.74 72.6V70.6H1093.62L1093.75 72.7174L1095.74 72.6ZM1113.79 72.6L1115.77 72.3519L1115.56 70.6H1113.79V72.6ZM1117.76 79.384L1116.53 80.9627L1116.54 80.9735L1116.56 80.984L1117.76 79.384ZM1134.53 80.024L1133.38 78.3822L1133.37 78.3942L1133.35 78.4065L1134.53 80.024ZM1133.89 69.656L1132.97 71.4315L1133 71.4516L1133.04 71.47L1133.89 69.656ZM1122.75 65.816L1123.27 63.8835L1123.24 63.8775L1123.22 63.8721L1122.75 65.816ZM1109.69 61.848L1108.93 63.6983L1108.94 63.7017L1108.95 63.705L1109.69 61.848ZM1100.99 55.576L1099.46 56.87L1099.48 56.8832L1099.49 56.8962L1100.99 55.576ZM1100.73 33.432L1099.1 32.2736L1099.09 32.288L1099.08 32.3026L1100.73 33.432ZM1110.46 25.752L1109.66 23.9214L1109.65 23.9244L1109.64 23.9275L1110.46 25.752ZM1145.66 29.336L1144.37 30.8618L1144.38 30.8682L1144.38 30.8746L1145.66 29.336ZM1153.98 46.36V48.36H1156.13L1155.98 46.2175L1153.98 46.36ZM1136.83 46.36L1134.84 46.5411L1135 48.36H1136.83V46.36ZM1133.25 39.704L1131.97 41.2404L1132 41.2692L1132.04 41.2963L1133.25 39.704ZM1117.37 38.936L1116.26 37.2719L1116.25 37.2845L1116.23 37.2975L1117.37 38.936ZM1118.4 49.432L1117.45 51.195L1117.48 51.2083L1117.5 51.2209L1118.4 49.432ZM1129.53 53.144L1129.04 55.0823L1129.05 55.0843L1129.53 53.144ZM1150.78 63.512L1149.24 64.7834L1149.26 64.8082L1149.28 64.8322L1150.78 63.512ZM1154.62 74.776H1156.62V74.7578L1156.62 74.7396L1154.62 74.776ZM1151.17 85.784L1149.54 84.6256L1149.53 84.64L1149.52 84.6546L1151.17 85.784ZM1141.44 93.464L1142.23 95.3023L1142.23 95.2985L1142.24 95.2946L1141.44 93.464ZM1126.72 94.152C1121.15 94.152 1116.23 93.1708 1111.91 91.2524L1110.29 94.9076C1115.19 97.0852 1120.68 98.152 1126.72 98.152V94.152ZM1111.94 91.2651C1107.59 89.251 1104.19 86.5855 1101.68 83.2919L1098.5 85.7161C1101.46 89.5905 1105.4 92.6424 1110.26 94.8949L1111.94 91.2651ZM1101.7 83.3163C1099.28 80.0368 1097.97 76.439 1097.74 72.4826L1093.75 72.7174C1094.02 77.465 1095.61 81.8032 1098.48 85.6917L1101.7 83.3163ZM1095.74 74.6H1113.79V70.6H1095.74V74.6ZM1111.81 72.8481C1112.22 76.1395 1113.84 78.867 1116.53 80.9627L1118.99 77.8053C1117.07 76.317 1116.05 74.5219 1115.77 72.3519L1111.81 72.8481ZM1116.56 80.984C1119.35 83.0783 1122.74 84.072 1126.59 84.072V80.072C1123.45 80.072 1120.94 79.2737 1118.96 77.784L1116.56 80.984ZM1126.59 84.072C1130.24 84.072 1133.36 83.3477 1135.7 81.6415L1133.35 78.4065C1131.94 79.431 1129.77 80.072 1126.59 80.072V84.072ZM1135.67 81.6658C1138.09 79.9791 1139.47 77.6509 1139.47 74.776H1135.47C1135.47 76.1677 1134.88 77.3382 1133.38 78.3822L1135.67 81.6658ZM1139.47 74.776C1139.47 73.2591 1139.07 71.846 1138.21 70.6211C1137.37 69.4123 1136.16 68.5064 1134.73 67.842L1133.04 71.47C1134 71.915 1134.59 72.4171 1134.94 72.9149C1135.27 73.3967 1135.47 73.9889 1135.47 74.776H1139.47ZM1134.81 67.8805C1132.3 66.5806 1128.41 65.256 1123.27 63.8835L1122.23 67.7485C1127.33 69.1066 1130.86 70.342 1132.97 71.4315L1134.81 67.8805ZM1123.22 63.8721C1117.98 62.605 1113.73 61.3085 1110.44 59.991L1108.95 63.705C1112.48 65.1182 1116.94 66.467 1122.28 67.7599L1123.22 63.8721ZM1110.45 59.9977C1107.42 58.7544 1104.77 56.8502 1102.49 54.2558L1099.49 56.8962C1102.16 59.9338 1105.31 62.211 1108.93 63.6983L1110.45 59.9977ZM1102.52 54.282C1100.51 51.9227 1099.41 48.6307 1099.41 44.184H1095.41C1095.41 49.2946 1096.69 53.5973 1099.46 56.87L1102.52 54.282ZM1099.41 44.184C1099.41 40.6621 1100.39 37.4717 1102.38 34.5614L1099.08 32.3026C1096.64 35.8776 1095.41 39.8552 1095.41 44.184H1099.41ZM1102.36 34.5904C1104.43 31.6798 1107.37 29.3305 1111.28 27.5765L1109.64 23.9275C1105.19 25.9281 1101.64 28.6988 1099.1 32.2736L1102.36 34.5904ZM1111.27 27.5826C1115.23 25.8393 1119.94 24.936 1125.44 24.936V20.936C1119.5 20.936 1114.23 21.9101 1109.66 23.9214L1111.27 27.5826ZM1125.44 24.936C1133.55 24.936 1139.79 26.9789 1144.37 30.8618L1146.96 27.8102C1141.47 23.1598 1134.22 20.936 1125.44 20.936V24.936ZM1144.38 30.8746C1148.96 34.6716 1151.51 39.8191 1151.99 46.5025L1155.98 46.2175C1155.43 38.5649 1152.44 32.363 1146.94 27.7974L1144.38 30.8746ZM1153.98 44.36H1136.83V48.36H1153.98V44.36ZM1138.82 46.1789C1138.52 42.8385 1137.06 40.0934 1134.46 38.1117L1132.04 41.2963C1133.69 42.5572 1134.63 44.2495 1134.84 46.5411L1138.82 46.1789ZM1134.53 38.1676C1132.02 36.0787 1128.74 35.144 1124.93 35.144V39.144C1128.1 39.144 1130.38 39.916 1131.97 41.2404L1134.53 38.1676ZM1124.93 35.144C1121.48 35.144 1118.51 35.7735 1116.26 37.2719L1118.48 40.6001C1119.82 39.7092 1121.89 39.144 1124.93 39.144V35.144ZM1116.23 37.2975C1113.97 38.8771 1112.81 41.1607 1112.81 43.928H1116.81C1116.81 42.4286 1117.36 41.3843 1118.52 40.5745L1116.23 37.2975ZM1112.81 43.928C1112.81 45.4733 1113.21 46.9157 1114.03 48.1873C1114.85 49.446 1116.03 50.4335 1117.45 51.195L1119.34 47.669C1118.37 47.1505 1117.76 46.5806 1117.39 46.0047C1117.02 45.4416 1116.81 44.772 1116.81 43.928H1112.81ZM1117.5 51.2209C1120.09 52.5144 1123.97 53.7935 1129.04 55.0823L1130.03 51.2057C1125.03 49.9345 1121.48 48.7389 1119.29 47.6431L1117.5 51.2209ZM1129.05 55.0843C1134.11 56.3507 1138.24 57.6461 1141.45 58.9623L1142.97 55.2617C1139.52 53.8472 1135.19 52.4973 1130.02 51.2037L1129.05 55.0843ZM1141.45 58.9623C1144.46 60.1967 1147.05 62.125 1149.24 64.7834L1152.33 62.2406C1149.74 59.0963 1146.61 56.758 1142.97 55.2617L1141.45 58.9623ZM1149.28 64.8322C1151.37 67.21 1152.54 70.4694 1152.62 74.8124L1156.62 74.7396C1156.53 69.696 1155.14 65.446 1152.28 62.1918L1149.28 64.8322ZM1152.62 74.776C1152.62 78.47 1151.59 81.7319 1149.54 84.6256L1152.8 86.9424C1155.35 83.3508 1156.62 79.274 1156.62 74.776H1152.62ZM1149.52 84.6546C1147.54 87.5359 1144.62 89.878 1140.63 91.6334L1142.24 95.2946C1146.79 93.2953 1150.35 90.5174 1152.82 86.9134L1149.52 84.6546ZM1140.65 91.6257C1136.77 93.2889 1132.14 94.152 1126.72 94.152V98.152C1132.56 98.152 1137.74 97.2231 1142.23 95.3023L1140.65 91.6257Z" fill="white"/>
</svg>
