<svg width="844" height="103" viewBox="0 0 844 103" fill="none" xmlns="http://www.w3.org/2000/svg">
<path d="M56.768 17.16L55.848 18.9359L55.8567 18.9403L56.768 17.16ZM73.28 32.904L71.5369 33.8845L71.5442 33.8975L71.5517 33.9104L73.28 32.904ZM73.28 80.008L71.5516 79.0016L71.5476 79.0086L73.28 80.008ZM56.768 95.496L55.8567 93.7157L55.848 93.7202L56.768 95.496ZM0.832001 101H-1.168V103H0.832001V101ZM0.832001 11.656V9.656H-1.168V11.656H0.832001ZM53.184 78.088L51.7698 76.6738L51.7698 76.6738L53.184 78.088ZM53.184 34.696L51.7468 36.0868L51.7524 36.0927L51.7581 36.0985L53.184 34.696ZM18.752 26.76V24.76H16.752V26.76H18.752ZM18.752 85.768H16.752V87.768H18.752V85.768ZM32.064 13.656C41.187 13.656 49.0959 15.4377 55.848 18.9358L57.688 15.3842C50.2748 11.5436 41.7144 9.656 32.064 9.656V13.656ZM55.8567 18.9403C62.6853 22.4359 67.8952 27.4104 71.5369 33.8845L75.0232 31.9235C70.9848 24.7442 65.1868 19.2228 57.6793 15.3797L55.8567 18.9403ZM71.5517 33.9104C75.274 40.3032 77.168 47.7962 77.168 56.456H81.168C81.168 47.1958 79.1366 38.9875 75.0084 31.8976L71.5517 33.9104ZM77.168 56.456C77.168 65.1158 75.274 72.6088 71.5517 79.0016L75.0084 81.0144C79.1366 73.9245 81.168 65.7162 81.168 56.456H77.168ZM71.5476 79.0086C67.9098 85.3141 62.6987 90.2132 55.8567 93.7157L57.6793 97.2763C65.1733 93.4401 70.9702 88.0139 75.0124 81.0074L71.5476 79.0086ZM55.848 93.7202C49.0959 97.2182 41.187 99 32.064 99V103C41.7144 103 50.2748 101.112 57.688 97.2718L55.848 93.7202ZM32.064 99H0.832001V103H32.064V99ZM2.832 101V11.656H-1.168V101H2.832ZM0.832001 13.656H32.064V9.656H0.832001V13.656ZM31.424 87.768C41.1771 87.768 49.0012 85.0992 54.5982 79.5022L51.7698 76.6738C47.1268 81.3168 40.4442 83.768 31.424 83.768V87.768ZM54.5982 79.5022C60.1919 73.9085 62.864 66.1298 62.864 56.456H58.864C58.864 65.3849 56.4161 72.0275 51.7698 76.6738L54.5982 79.5022ZM62.864 56.456C62.864 46.7804 60.1913 38.968 54.6099 33.2935L51.7581 36.0985C56.4167 40.8346 58.864 47.5289 58.864 56.456H62.864ZM54.6212 33.3052C49.0276 27.5251 41.1954 24.76 31.424 24.76V28.76C40.426 28.76 47.1004 31.2856 51.7468 36.0868L54.6212 33.3052ZM31.424 24.76H18.752V28.76H31.424V24.76ZM16.752 26.76V85.768H20.752V26.76H16.752ZM18.752 87.768H31.424V83.768H18.752V87.768ZM92.198 46.216L90.4258 45.289L90.4202 45.2998L90.4147 45.3106L92.198 46.216ZM103.846 33.416L102.813 31.7036L102.806 31.7076L102.799 31.7117L103.846 33.416ZM134.182 32.136L133.227 33.8932L133.235 33.8975L133.243 33.9017L134.182 32.136ZM143.782 40.2L142.172 41.3864L145.782 46.2858V40.2H143.782ZM143.782 30.088V28.088H141.782V30.088H143.782ZM161.83 30.088H163.83V28.088H161.83V30.088ZM161.83 101V103H163.83V101H161.83ZM143.782 101H141.782V103H143.782V101ZM143.782 90.632H145.782V84.2295L142.138 89.4936L143.782 90.632ZM134.182 98.952L135.121 100.718L135.128 100.714L135.135 100.711L134.182 98.952ZM103.846 97.544L102.778 99.235L102.785 99.2392L102.791 99.2433L103.846 97.544ZM92.198 84.616L90.4091 85.5104L90.4173 85.5268L90.4258 85.543L92.198 84.616ZM141.222 54.408L139.463 55.359L139.468 55.3692L139.474 55.3793L141.222 54.408ZM134.31 47.24L133.296 48.9639L133.315 48.9751L133.334 48.9859L134.31 47.24ZM115.75 47.112L114.752 45.3788L114.752 45.3788L115.75 47.112ZM108.838 54.28L107.099 53.2928L107.094 53.3007L107.09 53.3087L108.838 54.28ZM108.838 76.552L107.068 77.4835L107.083 77.5116L107.099 77.5392L108.838 76.552ZM115.75 83.848L114.713 85.5584L114.725 85.5652L114.736 85.5719L115.75 83.848ZM134.31 83.976L135.286 85.7219L135.305 85.7111L135.324 85.6999L134.31 83.976ZM141.222 76.808L142.97 77.7793L142.976 77.7692L142.981 77.759L141.222 76.808ZM89.974 65.288C89.974 58.3866 91.328 52.3476 93.9813 47.1214L90.4147 45.3106C87.436 51.1778 85.974 57.8534 85.974 65.288H89.974ZM93.9702 47.143C96.7209 41.8843 100.365 37.9001 104.893 35.1203L102.799 31.7117C97.5986 34.9052 93.4778 39.4544 90.4258 45.289L93.9702 47.143ZM104.879 35.1284C109.502 32.3391 114.645 30.936 120.358 30.936V26.936C113.953 26.936 108.089 28.5195 102.813 31.7036L104.879 35.1284ZM120.358 30.936C125.377 30.936 129.644 31.9462 133.227 33.8932L135.137 30.3787C130.869 28.0591 125.921 26.936 120.358 26.936V30.936ZM133.243 33.9017C137.023 35.9126 139.982 38.4137 142.172 41.3864L145.392 39.0136C142.804 35.5009 139.362 32.626 135.121 30.3702L133.243 33.9017ZM145.782 40.2V30.088H141.782V40.2H145.782ZM143.782 32.088H161.83V28.088H143.782V32.088ZM159.83 30.088V101H163.83V30.088H159.83ZM161.83 99H143.782V103H161.83V99ZM145.782 101V90.632H141.782V101H145.782ZM142.138 89.4936C140.038 92.527 137.091 95.1017 133.229 97.1934L135.135 100.711C139.465 98.365 142.918 95.393 145.426 91.7704L142.138 89.4936ZM133.243 97.1863C129.566 99.1422 125.247 100.152 120.23 100.152V104.152C125.794 104.152 130.777 103.028 135.121 100.718L133.243 97.1863ZM120.23 100.152C114.619 100.152 109.525 98.715 104.901 95.8447L102.791 99.2433C108.066 102.517 113.894 104.152 120.23 104.152V100.152ZM104.914 95.853C100.374 92.9856 96.723 88.9518 93.9702 83.689L90.4258 85.543C93.4756 91.3736 97.5901 95.9584 102.778 99.235L104.914 95.853ZM93.9869 83.7216C91.3294 78.4067 89.974 72.2781 89.974 65.288H85.974C85.974 72.8046 87.4346 79.5613 90.4091 85.5104L93.9869 83.7216ZM145.782 65.544C145.782 60.9322 144.877 56.8687 142.97 53.4367L139.474 55.3793C140.98 58.0913 141.782 61.4518 141.782 65.544H145.782ZM142.981 53.457C141.109 49.9934 138.545 47.3155 135.286 45.4941L133.334 48.9859C135.878 50.4072 137.921 52.5079 139.463 55.359L142.981 53.457ZM135.324 45.5161C132.119 43.6308 128.655 42.68 124.966 42.68V46.68C127.933 46.68 130.698 47.4358 133.296 48.9639L135.324 45.5161ZM124.966 42.68C121.297 42.68 117.879 43.5783 114.752 45.3788L116.748 48.8452C119.253 47.403 121.979 46.68 124.966 46.68V42.68ZM114.752 45.3788C111.592 47.1984 109.046 49.8624 107.099 53.2928L110.577 55.2672C112.214 52.383 114.276 50.2683 116.748 48.8452L114.752 45.3788ZM107.09 53.3087C105.186 56.7352 104.278 60.7538 104.278 65.288H108.278C108.278 61.2889 109.077 57.9688 110.586 55.2513L107.09 53.3087ZM104.278 65.288C104.278 69.8257 105.187 73.9097 107.068 77.4835L110.608 75.6205C109.075 72.7089 108.278 69.2836 108.278 65.288H104.278ZM107.099 77.5392C109.042 80.9625 111.576 83.6569 114.713 85.5584L116.787 82.1376C114.292 80.6257 112.218 78.4562 110.577 75.5648L107.099 77.5392ZM114.736 85.5719C117.932 87.4521 121.353 88.408 124.966 88.408V84.408C122.094 84.408 119.37 83.6572 116.764 82.1241L114.736 85.5719ZM124.966 88.408C128.635 88.408 132.086 87.5101 135.286 85.7219L133.334 82.2301C130.732 83.6846 127.953 84.408 124.966 84.408V88.408ZM135.324 85.6999C138.547 83.8042 141.098 81.1488 142.97 77.7793L139.474 75.8367C137.932 78.6112 135.876 80.7345 133.296 82.2521L135.324 85.6999ZM142.981 77.759C144.876 74.2536 145.782 70.158 145.782 65.544H141.782C141.782 69.634 140.981 73.0477 139.463 75.857L142.981 77.759ZM200.196 44.808V42.808H198.196V44.808H200.196ZM201.86 84.36L200.446 85.7742L200.5 85.8285L200.558 85.8785L201.86 84.36ZM216.068 85.896H218.068V83.896H216.068V85.896ZM216.068 101V103H218.068V101H216.068ZM182.148 44.808H184.148V42.808H182.148V44.808ZM173.7 44.808H171.7V46.808H173.7V44.808ZM173.7 30.088V28.088H171.7V30.088H173.7ZM182.148 30.088V32.088H184.148V30.088H182.148ZM182.148 12.552V10.552H180.148V12.552H182.148ZM200.196 12.552H202.196V10.552H200.196V12.552ZM200.196 30.088H198.196V32.088H200.196V30.088ZM216.068 30.088H218.068V28.088H216.068V30.088ZM216.068 44.808V46.808H218.068V44.808H216.068ZM198.196 44.808V79.112H202.196V44.808H198.196ZM198.196 79.112C198.196 81.7593 198.805 84.1333 200.446 85.7742L203.274 82.9458C202.696 82.3681 202.196 81.2434 202.196 79.112H198.196ZM200.558 85.8785C202.301 87.3718 204.859 87.896 207.748 87.896V83.896C205.176 83.896 203.809 83.3962 203.162 82.8415L200.558 85.8785ZM207.748 87.896H216.068V83.896H207.748V87.896ZM214.068 85.896V101H218.068V85.896H214.068ZM216.068 99H204.804V103H216.068V99ZM204.804 99C197.546 99 192.473 97.2363 189.206 94.0617C185.95 90.8974 184.148 85.9996 184.148 78.984H180.148C180.148 86.6457 182.122 92.756 186.418 96.9303C190.703 101.094 196.958 103 204.804 103V99ZM184.148 78.984V44.808H180.148V78.984H184.148ZM182.148 42.808H173.7V46.808H182.148V42.808ZM175.7 44.808V30.088H171.7V44.808H175.7ZM173.7 32.088H182.148V28.088H173.7V32.088ZM184.148 30.088V12.552H180.148V30.088H184.148ZM182.148 14.552H200.196V10.552H182.148V14.552ZM198.196 12.552V30.088H202.196V12.552H198.196ZM200.196 32.088H216.068V28.088H200.196V32.088ZM214.068 30.088V44.808H218.068V30.088H214.068ZM216.068 42.808H200.196V46.808H216.068V42.808ZM228.573 46.216L226.801 45.289L226.795 45.2998L226.79 45.3106L228.573 46.216ZM240.221 33.416L239.188 31.7036L239.181 31.7076L239.174 31.7117L240.221 33.416ZM270.557 32.136L269.602 33.8932L269.61 33.8975L269.618 33.9017L270.557 32.136ZM280.157 40.2L278.547 41.3864L282.157 46.2858V40.2H280.157ZM280.157 30.088V28.088H278.157V30.088H280.157ZM298.205 30.088H300.205V28.088H298.205V30.088ZM298.205 101V103H300.205V101H298.205ZM280.157 101H278.157V103H280.157V101ZM280.157 90.632H282.157V84.2295L278.513 89.4936L280.157 90.632ZM270.557 98.952L271.496 100.718L271.503 100.714L271.51 100.711L270.557 98.952ZM240.221 97.544L239.153 99.235L239.16 99.2392L239.166 99.2433L240.221 97.544ZM228.573 84.616L226.784 85.5104L226.792 85.5268L226.801 85.543L228.573 84.616ZM277.597 54.408L275.838 55.359L275.843 55.3692L275.849 55.3793L277.597 54.408ZM270.685 47.24L269.671 48.9639L269.69 48.9751L269.709 48.9859L270.685 47.24ZM252.125 47.112L251.127 45.3788L251.127 45.3788L252.125 47.112ZM245.213 54.28L243.474 53.2928L243.469 53.3007L243.465 53.3087L245.213 54.28ZM245.213 76.552L243.443 77.4835L243.458 77.5116L243.474 77.5392L245.213 76.552ZM252.125 83.848L251.088 85.5584L251.1 85.5652L251.111 85.5719L252.125 83.848ZM270.685 83.976L271.661 85.7219L271.68 85.7111L271.699 85.6999L270.685 83.976ZM277.597 76.808L279.345 77.7793L279.351 77.7692L279.356 77.759L277.597 76.808ZM226.349 65.288C226.349 58.3866 227.703 52.3476 230.356 47.1214L226.79 45.3106C223.811 51.1778 222.349 57.8534 222.349 65.288H226.349ZM230.345 47.143C233.096 41.8843 236.74 37.9001 241.268 35.1203L239.174 31.7117C233.974 34.9052 229.853 39.4544 226.801 45.289L230.345 47.143ZM241.254 35.1284C245.877 32.3391 251.02 30.936 256.733 30.936V26.936C250.328 26.936 244.464 28.5195 239.188 31.7036L241.254 35.1284ZM256.733 30.936C261.752 30.936 266.019 31.9462 269.602 33.8932L271.512 30.3787C267.244 28.0591 262.296 26.936 256.733 26.936V30.936ZM269.618 33.9017C273.398 35.9126 276.357 38.4137 278.547 41.3864L281.767 39.0136C279.179 35.5009 275.737 32.626 271.496 30.3702L269.618 33.9017ZM282.157 40.2V30.088H278.157V40.2H282.157ZM280.157 32.088H298.205V28.088H280.157V32.088ZM296.205 30.088V101H300.205V30.088H296.205ZM298.205 99H280.157V103H298.205V99ZM282.157 101V90.632H278.157V101H282.157ZM278.513 89.4936C276.413 92.527 273.466 95.1017 269.604 97.1934L271.51 100.711C275.84 98.365 279.293 95.393 281.801 91.7704L278.513 89.4936ZM269.618 97.1863C265.941 99.1422 261.622 100.152 256.605 100.152V104.152C262.169 104.152 267.152 103.028 271.496 100.718L269.618 97.1863ZM256.605 100.152C250.994 100.152 245.9 98.715 241.276 95.8447L239.166 99.2433C244.441 102.517 250.269 104.152 256.605 104.152V100.152ZM241.289 95.853C236.749 92.9856 233.098 88.9518 230.345 83.689L226.801 85.543C229.851 91.3736 233.965 95.9584 239.153 99.235L241.289 95.853ZM230.362 83.7216C227.704 78.4067 226.349 72.2781 226.349 65.288H222.349C222.349 72.8046 223.81 79.5613 226.784 85.5104L230.362 83.7216ZM282.157 65.544C282.157 60.9322 281.252 56.8687 279.345 53.4367L275.849 55.3793C277.355 58.0913 278.157 61.4518 278.157 65.544H282.157ZM279.356 53.457C277.484 49.9934 274.92 47.3155 271.661 45.4941L269.709 48.9859C272.253 50.4072 274.296 52.5079 275.838 55.359L279.356 53.457ZM271.699 45.5161C268.494 43.6308 265.03 42.68 261.341 42.68V46.68C264.308 46.68 267.073 47.4358 269.671 48.9639L271.699 45.5161ZM261.341 42.68C257.672 42.68 254.254 43.5783 251.127 45.3788L253.123 48.8452C255.628 47.403 258.354 46.68 261.341 46.68V42.68ZM251.127 45.3788C247.967 47.1984 245.421 49.8624 243.474 53.2928L246.952 55.2672C248.589 52.383 250.651 50.2683 253.123 48.8452L251.127 45.3788ZM243.465 53.3087C241.561 56.7352 240.653 60.7538 240.653 65.288H244.653C244.653 61.2889 245.452 57.9688 246.961 55.2513L243.465 53.3087ZM240.653 65.288C240.653 69.8257 241.562 73.9097 243.443 77.4835L246.983 75.6205C245.45 72.7089 244.653 69.2836 244.653 65.288H240.653ZM243.474 77.5392C245.417 80.9625 247.951 83.6569 251.088 85.5584L253.162 82.1376C250.667 80.6257 248.593 78.4562 246.952 75.5648L243.474 77.5392ZM251.111 85.5719C254.307 87.4521 257.728 88.408 261.341 88.408V84.408C258.469 84.408 255.745 83.6572 253.139 82.1241L251.111 85.5719ZM261.341 88.408C265.01 88.408 268.461 87.5101 271.661 85.7219L269.709 82.2301C267.107 83.6846 264.328 84.408 261.341 84.408V88.408ZM271.699 85.6999C274.922 83.8042 277.473 81.1488 279.345 77.7793L275.849 75.8367C274.307 78.6112 272.251 80.7345 269.671 82.2521L271.699 85.6999ZM279.356 77.759C281.251 74.2536 282.157 70.158 282.157 65.544H278.157C278.157 69.634 277.356 73.0477 275.838 75.857L279.356 77.759ZM360.159 98.696L359.367 100.533L359.379 100.538L360.159 98.696ZM348.383 89.48L346.763 90.6522L346.763 90.6522L348.383 89.48ZM343.903 75.272V73.272H341.872L341.903 75.3032L343.903 75.272ZM363.103 75.272L365.098 75.1328L364.968 73.272H363.103V75.272ZM366.943 83.976L365.584 85.4435L365.597 85.4558L365.611 85.4679L366.943 83.976ZM386.527 84.232L387.796 85.7775L387.813 85.7641L387.829 85.7505L386.527 84.232ZM387.679 69.768L386.229 71.1455L386.229 71.1455L387.679 69.768ZM381.535 65.8L380.747 67.6383L380.786 67.655L380.826 67.67L381.535 65.8ZM371.551 62.472L370.987 64.3907L370.999 64.3944L371.012 64.3979L371.551 62.472ZM357.343 57.48L356.483 59.2857L356.509 59.2979L356.535 59.3094L357.343 57.48ZM347.999 49.928L346.399 51.128L346.416 51.1505L346.433 51.1725L347.999 49.928ZM348.127 22.536L349.786 23.6537L349.786 23.6537L348.127 22.536ZM359.263 13.576L360.051 15.4143L360.065 15.4084L360.078 15.4023L359.263 13.576ZM398.047 17.16L396.806 18.7286L396.819 18.7387L396.832 18.7487L398.047 17.16ZM407.647 35.848V37.848H409.801L409.641 35.6995L407.647 35.848ZM387.935 35.848L385.938 35.9589L386.043 37.848H387.935V35.848ZM383.967 28.296L382.665 29.8145L382.694 29.8393L382.724 29.863L383.967 28.296ZM365.919 27.912L364.633 26.3806L364.617 26.3936L364.602 26.4068L365.919 27.912ZM365.151 41.736L363.699 43.1115L363.736 43.1507L363.776 43.1879L365.151 41.736ZM371.039 45.576L370.227 47.4036L370.267 47.4214L370.308 47.4375L371.039 45.576ZM381.023 48.904L380.448 50.8197L380.459 50.8227L381.023 48.904ZM404.703 61.704L403.122 62.9291L403.122 62.9291L404.703 61.704ZM404.959 88.456L403.247 87.4218L403.247 87.4218L404.959 88.456ZM394.079 98.312L394.973 100.101L394.986 100.095L394.999 100.088L394.079 98.312ZM377.055 99.896C371.057 99.896 365.695 98.8697 360.939 96.8545L359.379 100.538C364.692 102.789 370.595 103.896 377.055 103.896V99.896ZM360.951 96.8594C356.302 94.8556 352.675 92.0006 350.003 88.3078L346.763 90.6522C349.894 94.9807 354.117 98.2697 359.367 100.533L360.951 96.8594ZM350.003 88.3078C347.367 84.6638 345.982 80.3362 345.903 75.2408L341.903 75.3032C341.994 81.1304 343.596 86.2749 346.763 90.6522L350.003 88.3078ZM343.903 77.272H363.103V73.272H343.903V77.272ZM361.108 75.4112C361.393 79.4952 362.844 82.906 365.584 85.4435L368.302 82.5085C366.434 80.7793 365.325 78.3875 365.098 75.1328L361.108 75.4112ZM365.611 85.4679C368.46 88.0116 372.225 89.176 376.671 89.176V85.176C372.925 85.176 370.205 84.207 368.275 82.4841L365.611 85.4679ZM376.671 89.176C381.152 89.176 384.941 88.1231 387.796 85.7775L385.258 82.6865C383.334 84.2663 380.552 85.176 376.671 85.176V89.176ZM387.829 85.7505C390.676 83.3095 392.111 80.1021 392.111 76.296H388.111C388.111 78.9752 387.156 81.0585 385.225 82.7135L387.829 85.7505ZM392.111 76.296C392.111 73.2067 391.148 70.5159 389.129 68.3905L386.229 71.1455C387.453 72.4335 388.111 74.0946 388.111 76.296H392.111ZM389.129 68.3905C387.276 66.4405 384.965 64.9618 382.244 63.93L380.826 67.67C383.055 68.5155 384.839 69.6822 386.229 71.1455L389.129 68.3905ZM382.323 63.9617C379.816 62.8873 376.392 61.7504 372.09 60.5461L371.012 64.3979C375.244 65.5829 378.475 66.6647 380.747 67.6383L382.323 63.9617ZM372.115 60.5533C366.359 58.8601 361.712 57.2241 358.151 55.6506L356.535 59.3094C360.312 60.9785 365.138 62.6705 370.987 64.3907L372.115 60.5533ZM358.203 55.6743C354.913 54.1077 352.034 51.7904 349.565 48.6835L346.433 51.1725C349.254 54.7216 352.605 57.439 356.483 59.2857L358.203 55.6743ZM349.599 48.728C347.371 45.757 346.159 41.6973 346.159 36.36H342.159C342.159 42.2867 343.507 47.2723 346.399 51.128L349.599 48.728ZM346.159 36.36C346.159 31.4189 347.388 27.2106 349.786 23.6537L346.468 21.4183C343.575 25.7121 342.159 30.7197 342.159 36.36H346.159ZM349.786 23.6537C352.195 20.0784 355.59 17.3263 360.051 15.4143L358.475 11.7377C353.379 13.9217 349.35 17.143 346.468 21.4183L349.786 23.6537ZM360.078 15.4023C364.56 13.4017 369.736 12.376 375.647 12.376V8.376C369.27 8.376 363.524 9.48366 358.448 11.7497L360.078 15.4023ZM375.647 12.376C384.534 12.376 391.527 14.5522 396.806 18.7286L399.288 15.5914C393.133 10.7225 385.192 8.376 375.647 8.376V12.376ZM396.832 18.7487C402.132 22.8018 405.093 28.4801 405.653 35.9965L409.641 35.6995C409.007 27.1733 405.567 20.3928 399.262 15.5713L396.832 18.7487ZM407.647 33.848H387.935V37.848H407.647V33.848ZM389.932 35.7371C389.729 32.0771 388.119 29.0362 385.21 26.729L382.724 29.863C384.765 31.4812 385.8 33.4749 385.938 35.9589L389.932 35.7371ZM385.269 26.7775C382.426 24.3412 378.721 23.224 374.367 23.224V27.224C378.035 27.224 380.729 28.1548 382.665 29.8145L385.269 26.7775ZM374.367 23.224C370.522 23.224 367.211 24.2149 364.633 26.3806L367.205 29.4434C368.894 28.0251 371.215 27.224 374.367 27.224V23.224ZM364.602 26.4068C362.014 28.6716 360.847 31.8881 360.847 35.72H364.847C364.847 32.7253 365.728 30.7364 367.236 29.4171L364.602 26.4068ZM360.847 35.72C360.847 38.5818 361.785 41.0911 363.699 43.1115L366.603 40.3605C365.445 39.1382 364.847 37.6368 364.847 35.72H360.847ZM363.776 43.1879C365.582 44.899 367.741 46.2991 370.227 47.4036L371.851 43.7484C369.729 42.8049 367.963 41.645 366.526 40.2841L363.776 43.1879ZM370.308 47.4375C372.772 48.4058 376.161 49.5335 380.448 50.8197L381.598 46.9883C377.352 45.7145 374.084 44.6235 371.77 43.7145L370.308 47.4375ZM380.459 50.8227C386.208 52.5136 390.841 54.1878 394.388 55.8374L396.074 52.2106C392.282 50.4468 387.444 48.7077 381.587 46.9853L380.459 50.8227ZM394.388 55.8374C397.748 57.4006 400.659 59.7505 403.122 62.9291L406.284 60.4789C403.457 56.8308 400.052 54.0607 396.074 52.2106L394.388 55.8374ZM403.122 62.9291C405.427 65.903 406.671 69.9135 406.671 75.144H410.671C410.671 69.2812 409.27 64.3317 406.284 60.4789L403.122 62.9291ZM406.671 75.144C406.671 79.5575 405.534 83.6373 403.247 87.4218L406.671 89.4902C409.334 85.0827 410.671 80.2878 410.671 75.144H406.671ZM403.247 87.4218C400.986 91.1642 397.652 94.2092 393.159 96.536L394.999 100.088C400.063 97.4655 403.983 93.9398 406.671 89.4902L403.247 87.4218ZM393.185 96.5231C388.74 98.7454 383.385 99.896 377.055 99.896V103.896C383.866 103.896 389.861 102.657 394.973 100.101L393.185 96.5231ZM424.079 46.344L425.834 47.3036L425.84 47.2922L424.079 46.344ZM436.495 33.544L437.478 35.2856L437.489 35.2797L437.499 35.2736L436.495 33.544ZM476.431 35.592L475.205 37.172L475.218 37.1821L475.231 37.192L476.431 35.592ZM488.079 54.024V56.024H490.634L490.021 53.5438L488.079 54.024ZM468.751 54.024L466.854 54.6565L467.309 56.024H468.751V54.024ZM463.503 46.856L462.303 48.456L462.335 48.4799L462.368 48.5024L463.503 46.856ZM442.383 49.8L443.934 51.0625L443.941 51.0538L443.948 51.045L442.383 49.8ZM442.383 81.288L440.818 82.533L440.825 82.5418L440.832 82.5505L442.383 81.288ZM468.751 77.064V75.064H467.321L466.859 76.4166L468.751 77.064ZM488.079 77.064L490.017 77.5592L490.654 75.064H488.079V77.064ZM476.431 95.368L477.66 96.9455L477.66 96.9455L476.431 95.368ZM436.495 97.672L435.491 99.4016L435.501 99.4077L435.512 99.4136L436.495 97.672ZM424.079 84.872L422.318 85.8202L422.324 85.8316L424.079 84.872ZM421.599 65.544C421.599 58.4806 423.035 52.4221 425.834 47.3036L422.324 45.3844C419.15 51.1886 417.599 57.9301 417.599 65.544H421.599ZM425.84 47.2922C428.654 42.0652 432.529 38.0795 437.478 35.2856L435.512 31.8024C429.88 34.9818 425.477 39.5294 422.318 45.3958L425.84 47.2922ZM437.499 35.2736C442.451 32.3986 448.155 30.936 454.671 30.936V26.936C447.533 26.936 441.121 28.5454 435.491 31.8144L437.499 35.2736ZM454.671 30.936C463.114 30.936 469.908 33.0614 475.205 37.172L477.657 34.012C471.519 29.2479 463.806 26.936 454.671 26.936V30.936ZM475.231 37.192C480.618 41.2323 484.271 46.9555 486.137 54.5042L490.021 53.5438C487.962 45.2205 483.849 38.6557 477.631 33.992L475.231 37.192ZM488.079 52.024H468.751V56.024H488.079V52.024ZM470.648 53.3915C469.498 49.9416 467.499 47.1821 464.638 45.2096L462.368 48.5024C464.457 49.9432 465.956 51.9624 466.854 54.6565L470.648 53.3915ZM464.703 45.256C461.902 43.1556 458.471 42.168 454.543 42.168V46.168C457.783 46.168 460.325 46.9724 462.303 48.456L464.703 45.256ZM454.543 42.168C448.861 42.168 444.212 44.2875 440.818 48.555L443.948 51.045C446.527 47.8031 449.985 46.168 454.543 46.168V42.168ZM440.832 48.5375C437.45 52.6919 435.903 58.4559 435.903 65.544H439.903C439.903 58.9787 441.342 54.2468 443.934 51.0625L440.832 48.5375ZM435.903 65.544C435.903 72.5577 437.455 78.3056 440.818 82.533L443.948 80.043C441.338 76.7611 439.903 72.0129 439.903 65.544H435.903ZM440.832 82.5505C444.233 86.7286 448.878 88.792 454.543 88.792V84.792C449.968 84.792 446.507 83.1861 443.934 80.0255L440.832 82.5505ZM454.543 88.792C458.467 88.792 461.886 87.9129 464.665 86.0102C467.453 84.1009 469.422 81.2802 470.643 77.7114L466.859 76.4166C465.861 79.3331 464.353 81.3764 462.405 82.7097C460.448 84.0497 457.873 84.792 454.543 84.792V88.792ZM468.751 79.064H488.079V75.064H468.751V79.064ZM486.141 76.5688C484.279 83.855 480.627 89.5619 475.202 93.7905L477.66 96.9455C483.84 92.1288 487.953 85.633 490.017 77.5592L486.141 76.5688ZM475.202 93.7905C469.812 97.9915 463.014 100.152 454.671 100.152V104.152C463.736 104.152 471.445 101.79 477.66 96.9455L475.202 93.7905ZM454.671 100.152C448.145 100.152 442.433 98.7275 437.478 95.9304L435.512 99.4136C441.138 102.59 447.543 104.152 454.671 104.152V100.152ZM437.499 95.9424C432.53 93.0571 428.648 89.0593 425.834 83.9124L422.324 85.8316C425.483 91.6074 429.879 96.1429 435.491 99.4016L437.499 95.9424ZM425.84 83.9238C423.034 78.7133 421.599 72.6065 421.599 65.544H417.599C417.599 73.1588 419.15 79.9374 422.318 85.8202L425.84 83.9238ZM502.359 18.696L500.945 20.1102L500.974 20.1397L501.005 20.1679L502.359 18.696ZM502.359 3.71999L503.743 5.16397L503.744 5.16277L502.359 3.71999ZM518.103 3.71999L516.689 5.13421L516.718 5.16366L516.749 5.19186L518.103 3.71999ZM518.103 18.696L519.487 20.14L519.488 20.1388L518.103 18.696ZM519.127 30.088H521.127V28.088H519.127V30.088ZM519.127 101V103H521.127V101H519.127ZM501.207 101H499.207V103H501.207V101ZM501.207 30.088V28.088H499.207V30.088H501.207ZM510.295 19.64C507.591 19.64 505.443 18.8156 503.713 17.2241L501.005 20.1679C503.542 22.5017 506.685 23.64 510.295 23.64V19.64ZM503.773 17.2818C502.113 15.6217 501.287 13.6187 501.287 11.144H497.287C497.287 14.6426 498.509 17.6743 500.945 20.1102L503.773 17.2818ZM501.287 11.144C501.287 8.67023 502.111 6.72764 503.743 5.16397L500.975 2.27602C498.511 4.63768 497.287 7.64443 497.287 11.144H501.287ZM503.744 5.16277C505.478 3.4981 507.616 2.64799 510.295 2.64799V-1.35201C506.66 -1.35201 503.507 -0.154111 500.974 2.27722L503.744 5.16277ZM510.295 2.64799C512.975 2.64799 515.052 3.49694 516.689 5.13421L519.517 2.30578C517.058 -0.152953 513.93 -1.35201 510.295 -1.35201V2.64799ZM516.749 5.19186C518.457 6.76299 519.303 8.69747 519.303 11.144H523.303C523.303 7.61719 522.016 4.60233 519.457 2.24813L516.749 5.19186ZM519.303 11.144C519.303 13.5922 518.454 15.5866 516.718 17.2532L519.488 20.1388C522.019 17.7094 523.303 14.6691 523.303 11.144H519.303ZM516.719 17.252C515.087 18.8163 513 19.64 510.295 19.64V23.64C513.905 23.64 517.023 22.5011 519.487 20.14L516.719 17.252ZM517.127 30.088V101H521.127V30.088H517.127ZM519.127 99H501.207V103H519.127V99ZM503.207 101V30.088H499.207V101H503.207ZM501.207 32.088H519.127V28.088H501.207V32.088ZM602.24 70.92V72.92H603.934L604.213 71.2488L602.24 70.92ZM550.4 70.92V68.92H548.226L548.407 71.0861L550.4 70.92ZM555.776 82.952L554.423 84.4247L554.423 84.4247L555.776 82.952ZM581.632 78.728V76.728H580.388L579.838 77.8443L581.632 78.728ZM600.96 78.728L602.876 79.3027L603.648 76.728H600.96V78.728ZM589.184 95.624L590.384 97.224L590.391 97.2184L590.399 97.2127L589.184 95.624ZM549.376 97.672L548.384 99.4085L548.4 99.4178L548.416 99.4267L549.376 97.672ZM536.704 84.744L534.943 85.6922L534.949 85.7026L534.954 85.713L536.704 84.744ZM536.704 46.216L534.943 45.2678L534.943 45.2678L536.704 46.216ZM549.248 33.416L550.219 35.1643L550.219 35.1643L549.248 33.416ZM585.856 33.288L584.894 35.0417L584.906 35.048L585.856 33.288ZM598.272 45.704L596.512 46.6539L596.521 46.6706L596.53 46.6872L598.272 45.704ZM584.192 58.888V60.888H586.229L586.192 58.851L584.192 58.888ZM579.2 47.88L577.889 49.3901L577.9 49.4L577.912 49.4098L579.2 47.88ZM556.032 47.752L557.358 49.2492L557.361 49.2468L556.032 47.752ZM550.528 58.888L548.548 58.6052L548.222 60.888H550.528V58.888ZM600.752 64.008C600.752 66.4821 600.587 68.6735 600.267 70.5912L604.213 71.2488C604.576 69.0705 604.752 66.6539 604.752 64.008H600.752ZM602.24 68.92H550.4V72.92H602.24V68.92ZM548.407 71.0861C548.867 76.6016 550.825 81.1185 554.423 84.4247L557.129 81.4793C554.412 78.9828 552.787 75.4784 552.393 70.7539L548.407 71.0861ZM554.423 84.4247C557.978 87.6918 562.356 89.304 567.424 89.304V85.304C563.276 85.304 559.889 84.0149 557.129 81.4793L554.423 84.4247ZM567.424 89.304C571.042 89.304 574.264 88.5249 577.002 86.8723C579.745 85.2165 581.875 82.7602 583.426 79.6117L579.838 77.8443C578.573 80.4131 576.927 82.2448 574.934 83.4477C572.936 84.6538 570.462 85.304 567.424 85.304V89.304ZM581.632 80.728H600.96V76.728H581.632V80.728ZM599.044 78.1533C597.121 84.566 593.446 89.8469 587.969 94.0353L590.399 97.2127C596.527 92.5264 600.703 86.5433 602.876 79.3027L599.044 78.1533ZM587.984 94.024C582.582 98.0752 575.897 100.152 567.808 100.152V104.152C576.615 104.152 584.18 101.877 590.384 97.224L587.984 94.024ZM567.808 100.152C561.284 100.152 555.475 98.7278 550.336 95.9173L548.416 99.4267C554.2 102.59 560.679 104.152 567.808 104.152V100.152ZM550.368 95.9355C545.318 93.0497 541.353 89.0094 538.454 83.775L534.954 85.713C538.199 91.5719 542.682 96.1503 548.384 99.4085L550.368 95.9355ZM538.465 83.7958C535.658 78.582 534.224 72.5169 534.224 65.544H530.224C530.224 73.0778 531.777 79.8127 534.943 85.6922L538.465 83.7958ZM534.224 65.544C534.224 58.4815 535.659 52.3747 538.465 47.1642L534.943 45.2678C531.775 51.1506 530.224 57.9292 530.224 65.544H534.224ZM538.465 47.1642C541.275 41.9456 545.186 37.9605 550.219 35.1643L548.277 31.6677C542.558 34.8448 538.106 39.3931 534.943 45.2678L538.465 47.1642ZM550.219 35.1643C555.259 32.3643 561.103 30.936 567.808 30.936V26.936C560.518 26.936 553.989 28.4943 548.277 31.6677L550.219 35.1643ZM567.808 30.936C574.253 30.936 579.932 32.3202 584.894 35.0416L586.818 31.5344C581.199 28.4531 574.845 26.936 567.808 26.936V30.936ZM584.906 35.048C589.939 37.7641 593.796 41.6212 596.512 46.6539L600.032 44.7541C596.945 39.0348 592.525 34.6146 586.806 31.528L584.906 35.048ZM596.53 46.6872C599.325 51.6385 600.752 57.3923 600.752 64.008H604.752C604.752 56.7996 603.192 50.3508 600.014 44.7208L596.53 46.6872ZM586.192 58.851C586.097 53.7227 584.214 49.4875 580.488 46.3502L577.912 49.4098C580.671 51.7338 582.117 54.8373 582.192 58.925L586.192 58.851ZM580.511 46.3699C576.87 43.2077 572.423 41.656 567.296 41.656V45.656C571.556 45.656 575.045 46.9203 577.889 49.3901L580.511 46.3699ZM567.296 41.656C562.411 41.656 558.172 43.174 554.703 46.2572L557.361 49.2468C560.036 46.8686 563.306 45.656 567.296 45.656V41.656ZM554.706 46.2548C551.294 49.2772 549.283 53.4597 548.548 58.6052L552.508 59.1708C553.138 54.759 554.797 51.5175 557.358 49.2492L554.706 46.2548ZM550.528 60.888H584.192V56.888H550.528V60.888ZM675.608 37.128L674.171 38.5192L674.177 38.525L674.182 38.5307L675.608 37.128ZM683.416 101V103H685.416V101H683.416ZM665.496 101H663.496V103H665.496V101ZM661.272 48.904L659.798 50.2554L659.807 50.2658L659.817 50.276L661.272 48.904ZM637.976 48.904L636.522 47.5308L636.521 47.532L637.976 48.904ZM633.752 101V103H635.752V101H633.752ZM615.832 101H613.832V103H615.832V101ZM615.832 30.088V28.088H613.832V30.088H615.832ZM633.752 30.088H635.752V28.088H633.752V30.088ZM633.752 38.92H631.752V44.7491L635.331 40.1479L633.752 38.92ZM642.84 31.752L643.683 33.5654L643.692 33.5612L643.701 33.557L642.84 31.752ZM655.128 31.064C663.111 31.064 669.393 33.5841 674.171 38.5192L677.045 35.7368C671.413 29.9199 664.041 27.064 655.128 27.064V31.064ZM674.182 38.5307C678.922 43.3482 681.416 50.21 681.416 59.4H685.416C685.416 49.4754 682.704 41.4891 677.034 35.7253L674.182 38.5307ZM681.416 59.4V101H685.416V59.4H681.416ZM683.416 99H665.496V103H683.416V99ZM667.496 101V61.832H663.496V101H667.496ZM667.496 61.832C667.496 55.8822 666.006 51.0094 662.727 47.532L659.817 50.276C662.17 52.772 663.496 56.5178 663.496 61.832H667.496ZM662.746 47.5526C659.487 43.9973 655.074 42.296 649.752 42.296V46.296C654.158 46.296 657.425 47.6667 659.798 50.2554L662.746 47.5526ZM649.752 42.296C644.355 42.296 639.866 43.9898 636.522 47.5308L639.43 50.2772C641.888 47.6742 645.25 46.296 649.752 46.296V42.296ZM636.521 47.532C633.242 51.0094 631.752 55.8822 631.752 61.832H635.752C635.752 56.5178 637.078 52.772 639.431 50.276L636.521 47.532ZM631.752 61.832V101H635.752V61.832H631.752ZM633.752 99H615.832V103H633.752V99ZM617.832 101V30.088H613.832V101H617.832ZM615.832 32.088H633.752V28.088H615.832V32.088ZM631.752 30.088V38.92H635.752V30.088H631.752ZM635.331 40.1479C637.517 37.3368 640.29 35.1436 643.683 33.5654L641.997 29.9386C638.051 31.7737 634.766 34.3592 632.173 37.6921L635.331 40.1479ZM643.701 33.557C647.169 31.9018 650.969 31.064 655.128 31.064V27.064C650.413 27.064 646.02 28.0182 641.979 29.947L643.701 33.557ZM700.329 46.344L702.084 47.3036L702.09 47.2922L700.329 46.344ZM712.745 33.544L713.728 35.2856L713.739 35.2797L713.749 35.2736L712.745 33.544ZM752.681 35.592L751.455 37.172L751.468 37.1821L751.481 37.192L752.681 35.592ZM764.329 54.024V56.024H766.884L766.271 53.5438L764.329 54.024ZM745.001 54.024L743.104 54.6565L743.559 56.024H745.001V54.024ZM739.753 46.856L738.553 48.456L738.585 48.4799L738.618 48.5024L739.753 46.856ZM718.633 49.8L720.184 51.0625L720.191 51.0538L720.198 51.045L718.633 49.8ZM718.633 81.288L717.068 82.533L717.075 82.5418L717.082 82.5505L718.633 81.288ZM745.001 77.064V75.064H743.571L743.109 76.4166L745.001 77.064ZM764.329 77.064L766.267 77.5592L766.904 75.064H764.329V77.064ZM752.681 95.368L753.91 96.9455L753.91 96.9455L752.681 95.368ZM712.745 97.672L711.741 99.4016L711.751 99.4077L711.762 99.4136L712.745 97.672ZM700.329 84.872L698.568 85.8202L698.574 85.8316L700.329 84.872ZM697.849 65.544C697.849 58.4806 699.285 52.4221 702.084 47.3036L698.574 45.3844C695.4 51.1886 693.849 57.9301 693.849 65.544H697.849ZM702.09 47.2922C704.904 42.0652 708.779 38.0795 713.728 35.2856L711.762 31.8024C706.13 34.9818 701.727 39.5294 698.568 45.3958L702.09 47.2922ZM713.749 35.2736C718.701 32.3986 724.405 30.936 730.921 30.936V26.936C723.783 26.936 717.371 28.5454 711.741 31.8144L713.749 35.2736ZM730.921 30.936C739.364 30.936 746.158 33.0614 751.455 37.172L753.907 34.012C747.769 29.2479 740.056 26.936 730.921 26.936V30.936ZM751.481 37.192C756.868 41.2323 760.521 46.9555 762.387 54.5042L766.271 53.5438C764.212 45.2205 760.099 38.6557 753.881 33.992L751.481 37.192ZM764.329 52.024H745.001V56.024H764.329V52.024ZM746.898 53.3915C745.748 49.9416 743.749 47.1821 740.888 45.2096L738.618 48.5024C740.707 49.9432 742.206 51.9624 743.104 54.6565L746.898 53.3915ZM740.953 45.256C738.152 43.1556 734.721 42.168 730.793 42.168V46.168C734.033 46.168 736.575 46.9724 738.553 48.456L740.953 45.256ZM730.793 42.168C725.111 42.168 720.462 44.2875 717.068 48.555L720.198 51.045C722.777 47.8031 726.235 46.168 730.793 46.168V42.168ZM717.082 48.5375C713.7 52.6919 712.153 58.4559 712.153 65.544H716.153C716.153 58.9787 717.592 54.2468 720.184 51.0625L717.082 48.5375ZM712.153 65.544C712.153 72.5577 713.705 78.3056 717.068 82.533L720.198 80.043C717.588 76.7611 716.153 72.0129 716.153 65.544H712.153ZM717.082 82.5505C720.483 86.7286 725.128 88.792 730.793 88.792V84.792C726.218 84.792 722.757 83.1861 720.184 80.0255L717.082 82.5505ZM730.793 88.792C734.717 88.792 738.136 87.9129 740.915 86.0102C743.703 84.1009 745.672 81.2802 746.893 77.7114L743.109 76.4166C742.111 79.3331 740.603 81.3764 738.655 82.7097C736.698 84.0497 734.123 84.792 730.793 84.792V88.792ZM745.001 79.064H764.329V75.064H745.001V79.064ZM762.391 76.5688C760.529 83.855 756.877 89.5619 751.452 93.7905L753.91 96.9455C760.09 92.1288 764.203 85.633 766.267 77.5592L762.391 76.5688ZM751.452 93.7905C746.062 97.9915 739.264 100.152 730.921 100.152V104.152C739.986 104.152 747.695 101.79 753.91 96.9455L751.452 93.7905ZM730.921 100.152C724.395 100.152 718.683 98.7275 713.728 95.9304L711.762 99.4136C717.388 102.59 723.793 104.152 730.921 104.152V100.152ZM713.749 95.9424C708.78 93.0571 704.898 89.0593 702.084 83.9124L698.574 85.8316C701.733 91.6074 706.129 96.1429 711.741 99.4016L713.749 95.9424ZM702.09 83.9238C699.284 78.7133 697.849 72.6065 697.849 65.544H693.849C693.849 73.1588 695.4 79.9374 698.568 85.8202L702.09 83.9238ZM842.865 70.92V72.92H844.559L844.838 71.2488L842.865 70.92ZM791.025 70.92V68.92H788.851L789.032 71.0861L791.025 70.92ZM796.401 82.952L795.048 84.4247L795.048 84.4247L796.401 82.952ZM822.257 78.728V76.728H821.013L820.463 77.8443L822.257 78.728ZM841.585 78.728L843.501 79.3027L844.273 76.728H841.585V78.728ZM829.809 95.624L831.009 97.224L831.016 97.2184L831.024 97.2127L829.809 95.624ZM790.001 97.672L789.009 99.4085L789.025 99.4178L789.041 99.4267L790.001 97.672ZM777.329 84.744L775.568 85.6922L775.574 85.7026L775.579 85.713L777.329 84.744ZM777.329 46.216L775.568 45.2678L775.568 45.2678L777.329 46.216ZM789.873 33.416L790.844 35.1643L790.844 35.1643L789.873 33.416ZM826.481 33.288L825.519 35.0417L825.531 35.048L826.481 33.288ZM838.897 45.704L837.137 46.6539L837.146 46.6706L837.155 46.6872L838.897 45.704ZM824.817 58.888V60.888H826.854L826.817 58.851L824.817 58.888ZM819.825 47.88L818.514 49.3901L818.525 49.4L818.537 49.4098L819.825 47.88ZM796.657 47.752L797.983 49.2492L797.986 49.2468L796.657 47.752ZM791.153 58.888L789.173 58.6052L788.847 60.888H791.153V58.888ZM841.377 64.008C841.377 66.4821 841.212 68.6735 840.892 70.5912L844.838 71.2488C845.201 69.0705 845.377 66.6539 845.377 64.008H841.377ZM842.865 68.92H791.025V72.92H842.865V68.92ZM789.032 71.0861C789.492 76.6016 791.45 81.1185 795.048 84.4247L797.754 81.4793C795.037 78.9828 793.412 75.4784 793.018 70.7539L789.032 71.0861ZM795.048 84.4247C798.603 87.6918 802.981 89.304 808.049 89.304V85.304C803.901 85.304 800.514 84.0149 797.754 81.4793L795.048 84.4247ZM808.049 89.304C811.667 89.304 814.889 88.5249 817.627 86.8723C820.37 85.2165 822.5 82.7602 824.051 79.6117L820.463 77.8443C819.198 80.4131 817.552 82.2448 815.559 83.4477C813.561 84.6538 811.087 85.304 808.049 85.304V89.304ZM822.257 80.728H841.585V76.728H822.257V80.728ZM839.669 78.1533C837.746 84.566 834.071 89.8469 828.594 94.0353L831.024 97.2127C837.152 92.5264 841.328 86.5433 843.501 79.3027L839.669 78.1533ZM828.609 94.024C823.207 98.0752 816.522 100.152 808.433 100.152V104.152C817.24 104.152 824.805 101.877 831.009 97.224L828.609 94.024ZM808.433 100.152C801.909 100.152 796.1 98.7278 790.961 95.9173L789.041 99.4267C794.825 102.59 801.304 104.152 808.433 104.152V100.152ZM790.993 95.9355C785.943 93.0497 781.978 89.0094 779.079 83.775L775.579 85.713C778.824 91.5719 783.307 96.1503 789.009 99.4085L790.993 95.9355ZM779.09 83.7958C776.283 78.582 774.849 72.5169 774.849 65.544H770.849C770.849 73.0778 772.402 79.8127 775.568 85.6922L779.09 83.7958ZM774.849 65.544C774.849 58.4815 776.284 52.3747 779.09 47.1642L775.568 45.2678C772.4 51.1506 770.849 57.9292 770.849 65.544H774.849ZM779.09 47.1642C781.9 41.9456 785.811 37.9605 790.844 35.1643L788.902 31.6677C783.183 34.8448 778.731 39.3931 775.568 45.2678L779.09 47.1642ZM790.844 35.1643C795.884 32.3643 801.728 30.936 808.433 30.936V26.936C801.143 26.936 794.614 28.4943 788.902 31.6677L790.844 35.1643ZM808.433 30.936C814.878 30.936 820.557 32.3202 825.519 35.0416L827.443 31.5344C821.824 28.4531 815.47 26.936 808.433 26.936V30.936ZM825.531 35.048C830.564 37.7641 834.421 41.6212 837.137 46.6539L840.657 44.7541C837.57 39.0348 833.15 34.6146 827.431 31.528L825.531 35.048ZM837.155 46.6872C839.95 51.6385 841.377 57.3923 841.377 64.008H845.377C845.377 56.7996 843.817 50.3508 840.639 44.7208L837.155 46.6872ZM826.817 58.851C826.722 53.7227 824.839 49.4875 821.113 46.3502L818.537 49.4098C821.296 51.7338 822.742 54.8373 822.817 58.925L826.817 58.851ZM821.136 46.3699C817.495 43.2077 813.048 41.656 807.921 41.656V45.656C812.181 45.656 815.67 46.9203 818.514 49.3901L821.136 46.3699ZM807.921 41.656C803.036 41.656 798.797 43.174 795.328 46.2572L797.986 49.2468C800.661 46.8686 803.931 45.656 807.921 45.656V41.656ZM795.331 46.2548C791.919 49.2772 789.908 53.4597 789.173 58.6052L793.133 59.1708C793.763 54.759 795.422 51.5175 797.983 49.2492L795.331 46.2548ZM791.153 60.888H824.817V56.888H791.153V60.888Z" fill="white"/>
</svg>
