<svg width="512" height="97" viewBox="0 0 512 97" fill="none" xmlns="http://www.w3.org/2000/svg">
<path d="M56 5.656H58V3.656H56V5.656ZM56 20.12V22.12H58V20.12H56ZM18.752 20.12V18.12H16.752V20.12H18.752ZM18.752 43.032H16.752V45.032H18.752V43.032ZM47.296 43.032H49.296V41.032H47.296V43.032ZM47.296 57.24V59.24H49.296V57.24H47.296ZM18.752 57.24V55.24H16.752V57.24H18.752ZM18.752 95V97H20.752V95H18.752ZM0.832001 95H-1.168V97H0.832001V95ZM0.832001 5.656V3.656H-1.168V5.656H0.832001ZM54 5.656V20.12H58V5.656H54ZM56 18.12H18.752V22.12H56V18.12ZM16.752 20.12V43.032H20.752V20.12H16.752ZM18.752 45.032H47.296V41.032H18.752V45.032ZM45.296 43.032V57.24H49.296V43.032H45.296ZM47.296 55.24H18.752V59.24H47.296V55.24ZM16.752 57.24V95H20.752V57.24H16.752ZM18.752 93H0.832001V97H18.752V93ZM2.832 95V5.656H-1.168V95H2.832ZM0.832001 7.656H56V3.656H0.832001V7.656ZM86.627 35.096H84.627V42.1792L88.3316 36.142L86.627 35.096ZM95.587 26.264L94.599 24.5251L94.5903 24.53L94.5818 24.535L95.587 26.264ZM108.387 23.064H110.387V21.064H108.387V23.064ZM108.387 41.88V43.88H110.387V41.88H108.387ZM90.851 45.848L89.5035 44.3701L89.4925 44.3801L89.4817 44.3903L90.851 45.848ZM86.627 95V97H88.627V95H86.627ZM68.707 95H66.707V97H68.707V95ZM68.707 24.088V22.088H66.707V24.088H68.707ZM86.627 24.088H88.627V22.088H86.627V24.088ZM88.3316 36.142C90.4694 32.6583 93.22 29.9536 96.5922 27.993L94.5818 24.535C90.6154 26.841 87.3926 30.0244 84.9224 34.05L88.3316 36.142ZM96.575 28.0029C99.9973 26.0585 103.917 25.064 108.387 25.064V21.064C103.3 21.064 98.6861 22.2029 94.599 24.5251L96.575 28.0029ZM106.387 23.064V41.88H110.387V23.064H106.387ZM108.387 39.88H103.651V43.88H108.387V39.88ZM103.651 39.88C97.7353 39.88 92.906 41.2678 89.5035 44.3701L92.1985 47.3259C94.5987 45.1375 98.3027 43.88 103.651 43.88V39.88ZM89.4817 44.3903C86.0576 47.6069 84.627 52.9152 84.627 59.672H88.627C88.627 53.2875 90.0124 49.3798 92.2204 47.3057L89.4817 44.3903ZM84.627 59.672V95H88.627V59.672H84.627ZM86.627 93H68.707V97H86.627V93ZM70.707 95V24.088H66.707V95H70.707ZM68.707 26.088H86.627V22.088H68.707V26.088ZM84.627 24.088V35.096H88.627V24.088H84.627ZM120.073 40.216L118.301 39.289L118.295 39.2998L118.29 39.3106L120.073 40.216ZM131.721 27.416L130.688 25.7036L130.681 25.7076L130.674 25.7117L131.721 27.416ZM162.057 26.136L161.102 27.8932L161.11 27.8975L161.118 27.9017L162.057 26.136ZM171.657 34.2L170.047 35.3864L173.657 40.2858V34.2H171.657ZM171.657 24.088V22.088H169.657V24.088H171.657ZM189.705 24.088H191.705V22.088H189.705V24.088ZM189.705 95V97H191.705V95H189.705ZM171.657 95H169.657V97H171.657V95ZM171.657 84.632H173.657V78.2295L170.013 83.4936L171.657 84.632ZM162.057 92.952L162.996 94.7177L163.003 94.7142L163.01 94.7106L162.057 92.952ZM131.721 91.544L130.653 93.235L130.66 93.2392L130.666 93.2433L131.721 91.544ZM120.073 78.616L118.284 79.5104L118.292 79.5268L118.301 79.543L120.073 78.616ZM169.097 48.408L167.338 49.359L167.343 49.3692L167.349 49.3793L169.097 48.408ZM162.185 41.24L161.171 42.9639L161.19 42.9751L161.209 42.9859L162.185 41.24ZM143.625 41.112L142.627 39.3788L142.627 39.3788L143.625 41.112ZM136.713 48.28L134.974 47.2928L134.969 47.3007L134.965 47.3087L136.713 48.28ZM136.713 70.552L134.943 71.4835L134.958 71.5116L134.974 71.5392L136.713 70.552ZM143.625 77.848L142.588 79.5584L142.6 79.5652L142.611 79.5719L143.625 77.848ZM162.185 77.976L163.161 79.7219L163.18 79.7111L163.199 79.6999L162.185 77.976ZM169.097 70.808L170.845 71.7793L170.851 71.7692L170.856 71.759L169.097 70.808ZM117.849 59.288C117.849 52.3866 119.203 46.3476 121.856 41.1214L118.29 39.3106C115.311 45.1778 113.849 51.8534 113.849 59.288H117.849ZM121.845 41.143C124.596 35.8843 128.24 31.9001 132.768 29.1203L130.674 25.7117C125.474 28.9052 121.353 33.4544 118.301 39.289L121.845 41.143ZM132.754 29.1284C137.377 26.3391 142.52 24.936 148.233 24.936V20.936C141.828 20.936 135.964 22.5195 130.688 25.7036L132.754 29.1284ZM148.233 24.936C153.252 24.936 157.519 25.9462 161.102 27.8932L163.012 24.3787C158.744 22.0591 153.796 20.936 148.233 20.936V24.936ZM161.118 27.9017C164.898 29.9126 167.857 32.4137 170.047 35.3864L173.267 33.0136C170.679 29.5009 167.237 26.626 162.996 24.3702L161.118 27.9017ZM173.657 34.2V24.088H169.657V34.2H173.657ZM171.657 26.088H189.705V22.088H171.657V26.088ZM187.705 24.088V95H191.705V24.088H187.705ZM189.705 93H171.657V97H189.705V93ZM173.657 95V84.632H169.657V95H173.657ZM170.013 83.4936C167.913 86.527 164.966 89.1017 161.104 91.1934L163.01 94.7106C167.34 92.365 170.793 89.393 173.301 85.7704L170.013 83.4936ZM161.118 91.1863C157.441 93.1422 153.122 94.152 148.105 94.152V98.152C153.669 98.152 158.652 97.0284 162.996 94.7177L161.118 91.1863ZM148.105 94.152C142.494 94.152 137.4 92.715 132.776 89.8447L130.666 93.2433C135.941 96.517 141.769 98.152 148.105 98.152V94.152ZM132.789 89.853C128.249 86.9856 124.598 82.9518 121.845 77.689L118.301 79.543C121.351 85.3736 125.465 89.9584 130.653 93.235L132.789 89.853ZM121.862 77.7216C119.204 72.4067 117.849 66.2781 117.849 59.288H113.849C113.849 66.8046 115.31 73.5613 118.284 79.5104L121.862 77.7216ZM173.657 59.544C173.657 54.9322 172.752 50.8687 170.845 47.4367L167.349 49.3793C168.855 52.0913 169.657 55.4518 169.657 59.544H173.657ZM170.856 47.457C168.984 43.9934 166.42 41.3155 163.161 39.4941L161.209 42.9859C163.753 44.4072 165.796 46.5079 167.338 49.359L170.856 47.457ZM163.199 39.5161C159.994 37.6308 156.53 36.68 152.841 36.68V40.68C155.808 40.68 158.573 41.4358 161.171 42.9639L163.199 39.5161ZM152.841 36.68C149.172 36.68 145.754 37.5783 142.627 39.3788L144.623 42.8452C147.128 41.403 149.854 40.68 152.841 40.68V36.68ZM142.627 39.3788C139.467 41.1984 136.921 43.8624 134.974 47.2928L138.452 49.2672C140.089 46.383 142.151 44.2683 144.623 42.8452L142.627 39.3788ZM134.965 47.3087C133.061 50.7352 132.153 54.7538 132.153 59.288H136.153C136.153 55.2889 136.952 51.9688 138.461 49.2513L134.965 47.3087ZM132.153 59.288C132.153 63.8257 133.062 67.9097 134.943 71.4835L138.483 69.6205C136.95 66.7089 136.153 63.2836 136.153 59.288H132.153ZM134.974 71.5392C136.917 74.9625 139.451 77.6569 142.588 79.5584L144.662 76.1376C142.167 74.6257 140.093 72.4562 138.452 69.5648L134.974 71.5392ZM142.611 79.5719C145.807 81.4521 149.228 82.408 152.841 82.408V78.408C149.969 78.408 147.245 77.6572 144.639 76.1241L142.611 79.5719ZM152.841 82.408C156.51 82.408 159.961 81.5101 163.161 79.7219L161.209 76.2301C158.607 77.6846 155.828 78.408 152.841 78.408V82.408ZM163.199 79.6999C166.422 77.8042 168.973 75.1488 170.845 71.7793L167.349 69.8367C165.807 72.6112 163.751 74.7345 161.171 76.2521L163.199 79.6999ZM170.856 71.759C172.751 68.2536 173.657 64.158 173.657 59.544H169.657C169.657 63.634 168.856 67.0477 167.338 69.857L170.856 71.759ZM207.079 40.344L208.834 41.3036L208.84 41.2922L207.079 40.344ZM219.495 27.544L220.478 29.2856L220.489 29.2797L220.499 29.2736L219.495 27.544ZM259.431 29.592L258.205 31.172L258.218 31.1821L258.231 31.192L259.431 29.592ZM271.079 48.024V50.024H273.634L273.021 47.5438L271.079 48.024ZM251.751 48.024L249.854 48.6565L250.309 50.024H251.751V48.024ZM246.503 40.856L245.303 42.456L245.335 42.4799L245.368 42.5024L246.503 40.856ZM225.383 43.8L226.934 45.0625L226.941 45.0538L226.948 45.045L225.383 43.8ZM225.383 75.288L223.818 76.533L223.825 76.5418L223.832 76.5505L225.383 75.288ZM251.751 71.064V69.064H250.321L249.859 70.4166L251.751 71.064ZM271.079 71.064L273.017 71.5592L273.654 69.064H271.079V71.064ZM259.431 89.368L260.66 90.9455L260.66 90.9455L259.431 89.368ZM219.495 91.672L218.491 93.4016L218.501 93.4077L218.512 93.4136L219.495 91.672ZM207.079 78.872L205.318 79.8202L205.324 79.8316L207.079 78.872ZM204.599 59.544C204.599 52.4806 206.035 46.4221 208.834 41.3036L205.324 39.3844C202.15 45.1886 200.599 51.9301 200.599 59.544H204.599ZM208.84 41.2922C211.654 36.0652 215.529 32.0795 220.478 29.2856L218.512 25.8024C212.88 28.9818 208.477 33.5294 205.318 39.3958L208.84 41.2922ZM220.499 29.2736C225.451 26.3986 231.155 24.936 237.671 24.936V20.936C230.533 20.936 224.121 22.5454 218.491 25.8144L220.499 29.2736ZM237.671 24.936C246.114 24.936 252.908 27.0614 258.205 31.172L260.657 28.012C254.519 23.2479 246.806 20.936 237.671 20.936V24.936ZM258.231 31.192C263.618 35.2323 267.271 40.9555 269.137 48.5042L273.021 47.5438C270.962 39.2205 266.849 32.6557 260.631 27.992L258.231 31.192ZM271.079 46.024H251.751V50.024H271.079V46.024ZM253.648 47.3915C252.498 43.9416 250.499 41.1821 247.638 39.2096L245.368 42.5024C247.457 43.9432 248.956 45.9624 249.854 48.6565L253.648 47.3915ZM247.703 39.256C244.902 37.1556 241.471 36.168 237.543 36.168V40.168C240.783 40.168 243.325 40.9724 245.303 42.456L247.703 39.256ZM237.543 36.168C231.861 36.168 227.212 38.2875 223.818 42.555L226.948 45.045C229.527 41.8031 232.985 40.168 237.543 40.168V36.168ZM223.832 42.5375C220.45 46.6919 218.903 52.4559 218.903 59.544H222.903C222.903 52.9787 224.342 48.2468 226.934 45.0625L223.832 42.5375ZM218.903 59.544C218.903 66.5577 220.455 72.3056 223.818 76.533L226.948 74.043C224.338 70.7611 222.903 66.0129 222.903 59.544H218.903ZM223.832 76.5505C227.233 80.7286 231.878 82.792 237.543 82.792V78.792C232.968 78.792 229.507 77.1861 226.934 74.0255L223.832 76.5505ZM237.543 82.792C241.467 82.792 244.886 81.9129 247.665 80.0102C250.453 78.1009 252.422 75.2802 253.643 71.7114L249.859 70.4166C248.861 73.3331 247.353 75.3764 245.405 76.7097C243.448 78.0497 240.873 78.792 237.543 78.792V82.792ZM251.751 73.064H271.079V69.064H251.751V73.064ZM269.141 70.5688C267.279 77.855 263.627 83.5619 258.202 87.7905L260.66 90.9455C266.84 86.1288 270.953 79.633 273.017 71.5592L269.141 70.5688ZM258.202 87.7905C252.812 91.9915 246.014 94.152 237.671 94.152V98.152C246.736 98.152 254.445 95.7898 260.66 90.9455L258.202 87.7905ZM237.671 94.152C231.145 94.152 225.433 92.7275 220.478 89.9304L218.512 93.4136C224.138 96.5898 230.543 98.152 237.671 98.152V94.152ZM220.499 89.9424C215.53 87.0571 211.648 83.0593 208.834 77.9124L205.324 79.8316C208.483 85.6074 212.879 90.1429 218.491 93.4016L220.499 89.9424ZM208.84 77.9238C206.034 72.7133 204.599 66.6065 204.599 59.544H200.599C200.599 67.1588 202.15 73.9374 205.318 79.8202L208.84 77.9238ZM305.071 38.808V36.808H303.071V38.808H305.071ZM306.735 78.36L305.321 79.7742L305.375 79.8285L305.433 79.8785L306.735 78.36ZM320.943 79.896H322.943V77.896H320.943V79.896ZM320.943 95V97H322.943V95H320.943ZM287.023 38.808H289.023V36.808H287.023V38.808ZM278.575 38.808H276.575V40.808H278.575V38.808ZM278.575 24.088V22.088H276.575V24.088H278.575ZM287.023 24.088V26.088H289.023V24.088H287.023ZM287.023 6.55199V4.55199H285.023V6.55199H287.023ZM305.071 6.55199H307.071V4.55199H305.071V6.55199ZM305.071 24.088H303.071V26.088H305.071V24.088ZM320.943 24.088H322.943V22.088H320.943V24.088ZM320.943 38.808V40.808H322.943V38.808H320.943ZM303.071 38.808V73.112H307.071V38.808H303.071ZM303.071 73.112C303.071 75.7593 303.68 78.1333 305.321 79.7742L308.149 76.9458C307.571 76.3681 307.071 75.2434 307.071 73.112H303.071ZM305.433 79.8785C307.176 81.3718 309.734 81.896 312.623 81.896V77.896C310.051 77.896 308.684 77.3962 308.037 76.8415L305.433 79.8785ZM312.623 81.896H320.943V77.896H312.623V81.896ZM318.943 79.896V95H322.943V79.896H318.943ZM320.943 93H309.679V97H320.943V93ZM309.679 93C302.421 93 297.348 91.2363 294.081 88.0617C290.825 84.8974 289.023 79.9996 289.023 72.984H285.023C285.023 80.6457 286.997 86.756 291.293 90.9303C295.578 95.0944 301.833 97 309.679 97V93ZM289.023 72.984V38.808H285.023V72.984H289.023ZM287.023 36.808H278.575V40.808H287.023V36.808ZM280.575 38.808V24.088H276.575V38.808H280.575ZM278.575 26.088H287.023V22.088H278.575V26.088ZM289.023 24.088V6.55199H285.023V24.088H289.023ZM287.023 8.55199H305.071V4.55199H287.023V8.55199ZM303.071 6.55199V24.088H307.071V6.55199H303.071ZM305.071 26.088H320.943V22.088H305.071V26.088ZM318.943 24.088V38.808H322.943V24.088H318.943ZM320.943 36.808H305.071V40.808H320.943V36.808ZM333.448 40.216L331.676 39.289L331.67 39.2998L331.665 39.3106L333.448 40.216ZM345.096 27.416L344.063 25.7036L344.056 25.7076L344.049 25.7117L345.096 27.416ZM375.432 26.136L374.477 27.8932L374.485 27.8975L374.493 27.9017L375.432 26.136ZM385.032 34.2L383.422 35.3864L387.032 40.2858V34.2H385.032ZM385.032 24.088V22.088H383.032V24.088H385.032ZM403.08 24.088H405.08V22.088H403.08V24.088ZM403.08 95V97H405.08V95H403.08ZM385.032 95H383.032V97H385.032V95ZM385.032 84.632H387.032V78.2295L383.388 83.4936L385.032 84.632ZM375.432 92.952L376.371 94.7177L376.378 94.7142L376.385 94.7106L375.432 92.952ZM345.096 91.544L344.028 93.235L344.035 93.2392L344.041 93.2433L345.096 91.544ZM333.448 78.616L331.659 79.5104L331.667 79.5268L331.676 79.543L333.448 78.616ZM382.472 48.408L380.713 49.359L380.718 49.3692L380.724 49.3793L382.472 48.408ZM375.56 41.24L374.546 42.9639L374.565 42.9751L374.584 42.9859L375.56 41.24ZM357 41.112L356.002 39.3788L356.002 39.3788L357 41.112ZM350.088 48.28L348.349 47.2928L348.344 47.3007L348.34 47.3087L350.088 48.28ZM350.088 70.552L348.318 71.4835L348.333 71.5116L348.349 71.5392L350.088 70.552ZM357 77.848L355.963 79.5584L355.975 79.5652L355.986 79.5719L357 77.848ZM375.56 77.976L376.536 79.7219L376.555 79.7111L376.574 79.6999L375.56 77.976ZM382.472 70.808L384.22 71.7793L384.226 71.7692L384.231 71.759L382.472 70.808ZM331.224 59.288C331.224 52.3866 332.578 46.3476 335.231 41.1214L331.665 39.3106C328.686 45.1778 327.224 51.8534 327.224 59.288H331.224ZM335.22 41.143C337.971 35.8843 341.615 31.9001 346.143 29.1203L344.049 25.7117C338.849 28.9052 334.728 33.4544 331.676 39.289L335.22 41.143ZM346.129 29.1284C350.752 26.3391 355.895 24.936 361.608 24.936V20.936C355.203 20.936 349.339 22.5195 344.063 25.7036L346.129 29.1284ZM361.608 24.936C366.627 24.936 370.894 25.9462 374.477 27.8932L376.387 24.3787C372.119 22.0591 367.171 20.936 361.608 20.936V24.936ZM374.493 27.9017C378.273 29.9126 381.232 32.4137 383.422 35.3864L386.642 33.0136C384.054 29.5009 380.612 26.626 376.371 24.3702L374.493 27.9017ZM387.032 34.2V24.088H383.032V34.2H387.032ZM385.032 26.088H403.08V22.088H385.032V26.088ZM401.08 24.088V95H405.08V24.088H401.08ZM403.08 93H385.032V97H403.08V93ZM387.032 95V84.632H383.032V95H387.032ZM383.388 83.4936C381.288 86.527 378.341 89.1017 374.479 91.1934L376.385 94.7106C380.715 92.365 384.168 89.393 386.676 85.7704L383.388 83.4936ZM374.493 91.1863C370.816 93.1422 366.497 94.152 361.48 94.152V98.152C367.044 98.152 372.027 97.0284 376.371 94.7177L374.493 91.1863ZM361.48 94.152C355.869 94.152 350.775 92.715 346.151 89.8447L344.041 93.2433C349.316 96.517 355.144 98.152 361.48 98.152V94.152ZM346.164 89.853C341.624 86.9856 337.973 82.9518 335.22 77.689L331.676 79.543C334.726 85.3736 338.84 89.9584 344.028 93.235L346.164 89.853ZM335.237 77.7216C332.579 72.4067 331.224 66.2781 331.224 59.288H327.224C327.224 66.8046 328.685 73.5613 331.659 79.5104L335.237 77.7216ZM387.032 59.544C387.032 54.9322 386.127 50.8687 384.22 47.4367L380.724 49.3793C382.23 52.0913 383.032 55.4518 383.032 59.544H387.032ZM384.231 47.457C382.359 43.9934 379.795 41.3155 376.536 39.4941L374.584 42.9859C377.128 44.4072 379.171 46.5079 380.713 49.359L384.231 47.457ZM376.574 39.5161C373.369 37.6308 369.905 36.68 366.216 36.68V40.68C369.183 40.68 371.948 41.4358 374.546 42.9639L376.574 39.5161ZM366.216 36.68C362.547 36.68 359.129 37.5783 356.002 39.3788L357.998 42.8452C360.503 41.403 363.229 40.68 366.216 40.68V36.68ZM356.002 39.3788C352.842 41.1984 350.296 43.8624 348.349 47.2928L351.827 49.2672C353.464 46.383 355.526 44.2683 357.998 42.8452L356.002 39.3788ZM348.34 47.3087C346.436 50.7352 345.528 54.7538 345.528 59.288H349.528C349.528 55.2889 350.327 51.9688 351.836 49.2513L348.34 47.3087ZM345.528 59.288C345.528 63.8257 346.437 67.9097 348.318 71.4835L351.858 69.6205C350.325 66.7089 349.528 63.2836 349.528 59.288H345.528ZM348.349 71.5392C350.292 74.9625 352.826 77.6569 355.963 79.5584L358.037 76.1376C355.542 74.6257 353.468 72.4562 351.827 69.5648L348.349 71.5392ZM355.986 79.5719C359.182 81.4521 362.603 82.408 366.216 82.408V78.408C363.344 78.408 360.62 77.6572 358.014 76.1241L355.986 79.5719ZM366.216 82.408C369.885 82.408 373.336 81.5101 376.536 79.7219L374.584 76.2301C371.982 77.6846 369.203 78.408 366.216 78.408V82.408ZM376.574 79.6999C379.797 77.8042 382.348 75.1488 384.22 71.7793L380.724 69.8367C379.182 72.6112 377.126 74.7345 374.546 76.2521L376.574 79.6999ZM384.231 71.759C386.126 68.2536 387.032 64.158 387.032 59.544H383.032C383.032 63.634 382.231 67.0477 380.713 69.857L384.231 71.759ZM438.502 0.279999H440.502V-1.72H438.502V0.279999ZM438.502 95V97H440.502V95H438.502ZM420.582 95H418.582V97H420.582V95ZM420.582 0.279999V-1.72H418.582V0.279999H420.582ZM436.502 0.279999V95H440.502V0.279999H436.502ZM438.502 93H420.582V97H438.502V93ZM422.582 95V0.279999H418.582V95H422.582ZM420.582 2.28H438.502V-1.72H420.582V2.28ZM467.727 93.08L466.887 94.8949L466.901 94.9014L466.915 94.9076L467.727 93.08ZM456.719 84.504L455.11 85.6917L455.119 85.704L455.128 85.7161L456.719 84.504ZM452.367 72.6V70.6H450.246L450.37 72.7174L452.367 72.6ZM470.415 72.6L472.4 72.3519L472.181 70.6H470.415V72.6ZM474.383 79.384L473.155 80.9627L473.169 80.9735L473.183 80.984L474.383 79.384ZM491.151 80.024L490.009 78.3822L489.992 78.3942L489.975 78.4065L491.151 80.024ZM490.511 69.656L489.59 71.4315L489.629 71.4516L489.669 71.47L490.511 69.656ZM479.375 65.816L479.89 63.8835L479.868 63.8775L479.845 63.8721L479.375 65.816ZM466.319 61.848L465.56 63.6983L465.568 63.7017L465.576 63.705L466.319 61.848ZM457.615 55.576L456.09 56.87L456.101 56.8832L456.113 56.8962L457.615 55.576ZM457.359 33.432L455.729 32.2736L455.718 32.288L455.708 32.3026L457.359 33.432ZM467.087 25.752L466.282 23.9214L466.275 23.9244L466.268 23.9275L467.087 25.752ZM502.287 29.336L500.994 30.8618L501.002 30.8682L501.009 30.8746L502.287 29.336ZM510.607 46.36V48.36H512.755L512.602 46.2175L510.607 46.36ZM493.455 46.36L491.463 46.5411L491.629 48.36H493.455V46.36ZM489.871 39.704L488.591 41.2404L488.625 41.2692L488.661 41.2963L489.871 39.704ZM473.999 38.936L472.89 37.2719L472.871 37.2845L472.852 37.2975L473.999 38.936ZM475.023 49.432L474.079 51.195L474.103 51.2083L474.129 51.2209L475.023 49.432ZM486.159 53.144L485.666 55.0823L485.674 55.0843L486.159 53.144ZM507.407 63.512L505.863 64.7834L505.884 64.8082L505.905 64.8322L507.407 63.512ZM511.247 74.776H513.247V74.7578L513.247 74.7396L511.247 74.776ZM507.791 85.784L506.161 84.6256L506.15 84.64L506.14 84.6546L507.791 85.784ZM498.063 93.464L498.851 95.3023L498.86 95.2985L498.868 95.2946L498.063 93.464ZM483.343 94.152C477.778 94.152 472.856 93.1708 468.539 91.2524L466.915 94.9076C471.814 97.0852 477.302 98.152 483.343 98.152V94.152ZM468.567 91.2651C464.217 89.251 460.819 86.5855 458.31 83.2919L455.128 85.7161C458.08 89.5905 462.021 92.6424 466.887 94.8949L468.567 91.2651ZM458.328 83.3163C455.908 80.0368 454.596 76.439 454.364 72.4826L450.37 72.7174C450.65 77.465 452.24 81.8032 455.11 85.6917L458.328 83.3163ZM452.367 74.6H470.415V70.6H452.367V74.6ZM468.43 72.8481C468.842 76.1395 470.461 78.867 473.155 80.9627L475.611 77.8053C473.697 76.317 472.671 74.5219 472.4 72.3519L468.43 72.8481ZM473.183 80.984C475.975 83.0783 479.36 84.072 483.215 84.072V80.072C480.072 80.072 477.569 79.2737 475.583 77.784L473.183 80.984ZM483.215 84.072C486.861 84.072 489.981 83.3477 492.327 81.6415L489.975 78.4065C488.566 79.431 486.395 80.072 483.215 80.072V84.072ZM492.293 81.6658C494.718 79.9791 496.095 77.6509 496.095 74.776H492.095C492.095 76.1677 491.51 77.3382 490.009 78.3822L492.293 81.6658ZM496.095 74.776C496.095 73.2591 495.695 71.846 494.837 70.6211C493.991 69.4123 492.784 68.5064 491.353 67.842L489.669 71.47C490.627 71.915 491.212 72.4171 491.561 72.9149C491.898 73.3967 492.095 73.9889 492.095 74.776H496.095ZM491.432 67.8805C488.925 66.5806 485.037 65.256 479.89 63.8835L478.86 67.7485C483.953 69.1066 487.489 70.342 489.59 71.4315L491.432 67.8805ZM479.845 63.8721C474.608 62.605 470.355 61.3085 467.062 59.991L465.576 63.705C469.109 65.1182 473.561 66.467 478.905 67.7599L479.845 63.8721ZM467.078 59.9977C464.048 58.7544 461.397 56.8502 459.117 54.2558L456.113 56.8962C458.782 59.9338 461.934 62.211 465.56 63.6983L467.078 59.9977ZM459.14 54.282C457.138 51.9227 456.031 48.6307 456.031 44.184H452.031C452.031 49.2946 453.313 53.5973 456.09 56.87L459.14 54.282ZM456.031 44.184C456.031 40.6621 457.018 37.4717 459.01 34.5614L455.708 32.3026C453.262 35.8776 452.031 39.8552 452.031 44.184H456.031ZM458.989 34.5904C461.057 31.6798 464 29.3305 467.906 27.5765L466.268 23.9275C461.812 25.9281 458.269 28.6988 455.729 32.2736L458.989 34.5904ZM467.892 27.5826C471.855 25.8393 476.562 24.936 482.063 24.936V20.936C476.13 20.936 470.853 21.9101 466.282 23.9214L467.892 27.5826ZM482.063 24.936C490.173 24.936 496.412 26.9789 500.994 30.8618L503.58 27.8102C498.093 23.1598 490.849 20.936 482.063 20.936V24.936ZM501.009 30.8746C505.581 34.6716 508.135 39.8191 508.612 46.5025L512.602 46.2175C512.055 38.5649 509.062 32.363 503.565 27.7974L501.009 30.8746ZM510.607 44.36H493.455V48.36H510.607V44.36ZM495.447 46.1789C495.143 42.8385 493.689 40.0934 491.081 38.1117L488.661 41.2963C490.32 42.5572 491.255 44.2495 491.463 46.5411L495.447 46.1789ZM491.151 38.1676C488.645 36.0787 485.37 35.144 481.551 35.144V39.144C484.73 39.144 487.001 39.916 488.591 41.2404L491.151 38.1676ZM481.551 35.144C478.101 35.144 475.137 35.7735 472.89 37.2719L475.108 40.6001C476.445 39.7092 478.516 39.144 481.551 39.144V35.144ZM472.852 37.2975C470.596 38.8771 469.439 41.1607 469.439 43.928H473.439C473.439 42.4286 473.989 41.3843 475.146 40.5745L472.852 37.2975ZM469.439 43.928C469.439 45.4733 469.831 46.9157 470.659 48.1873C471.479 49.446 472.657 50.4335 474.079 51.195L475.967 47.669C475 47.1505 474.386 46.5806 474.011 46.0047C473.644 45.4416 473.439 44.772 473.439 43.928H469.439ZM474.129 51.2209C476.716 52.5144 480.597 53.7935 485.666 55.0823L486.652 51.2057C481.652 49.9345 478.109 48.7389 475.917 47.6431L474.129 51.2209ZM485.674 55.0843C490.739 56.3507 494.864 57.6461 498.072 58.9623L499.59 55.2617C496.142 53.8472 491.819 52.4973 486.644 51.2037L485.674 55.0843ZM498.072 58.9623C501.081 60.1967 503.674 62.125 505.863 64.7834L508.951 62.2406C506.361 59.0963 503.237 56.758 499.59 55.2617L498.072 58.9623ZM505.905 64.8322C507.994 67.21 509.168 70.4694 509.247 74.8124L513.247 74.7396C513.155 69.696 511.769 65.446 508.909 62.1918L505.905 64.8322ZM509.247 74.776C509.247 78.47 508.217 81.7319 506.161 84.6256L509.421 86.9424C511.973 83.3508 513.247 79.274 513.247 74.776H509.247ZM506.14 84.6546C504.169 87.5359 501.247 89.878 497.258 91.6334L498.868 95.2946C503.412 93.2953 506.976 90.5174 509.442 86.9134L506.14 84.6546ZM497.275 91.6257C493.394 93.2889 488.767 94.152 483.343 94.152V98.152C489.183 98.152 494.369 97.2231 498.851 95.3023L497.275 91.6257Z" fill="white"/>
</svg>
