<svg width="160" height="144" viewBox="0 0 160 144" fill="none" xmlns="http://www.w3.org/2000/svg">
<path fill-rule="evenodd" clip-rule="evenodd" d="M93.5372 39.2139C98.0494 39.2136 102.46 40.6404 106.212 43.3141C109.964 45.9878 112.889 49.7881 114.616 54.2346C116.343 58.6811 116.795 63.5741 115.915 68.2947C115.035 73.0153 112.862 77.3515 109.672 80.7551C106.482 84.1587 102.417 86.4767 97.9915 87.416C93.5661 88.3554 88.9789 87.8738 84.8101 86.0323C80.6413 84.1908 77.078 81.072 74.5709 77.0703C72.0638 73.0687 70.7254 68.3638 70.7251 63.5508C70.7366 57.1007 73.1437 50.9183 77.4192 46.357C81.6947 41.7957 87.4903 39.2273 93.5372 39.2139Z" fill="#FAFAFA"/>
<path fill-rule="evenodd" clip-rule="evenodd" d="M84.2487 94.1762C74.8811 94.1482 68.6799 89.044 65.7584 80.8907C62.8369 72.7373 63.1989 61.3391 63.1989 48.9804C63.1989 37.3696 64.657 23.0789 57.3822 13.2453C52.4622 6.45278 45.3197 1.89179 37.3831 0.474469C28.7061 -1.23191 17.5693 1.90671 11.1914 6.02067C17.0283 7.63103 22.1318 11.417 25.5784 16.6935C36.7257 33.4645 36.0526 56.0055 44.8869 74.5761C51.5305 88.5628 64.9717 99.7895 80.4181 100.204L131.908 100.181V37.1327C128.529 36.8078 125.124 36.9596 121.782 37.584C117.834 38.2569 113.982 39.46 110.318 41.1646C111.791 42.4494 113.132 43.8979 114.318 45.4856C116.095 44.6617 117.948 44.0368 119.846 43.6207C121.956 43.0825 124.111 42.7738 126.278 42.6994V94.1762" fill="white"/>
<path fill-rule="evenodd" clip-rule="evenodd" d="M77.6537 113.133C69.5542 113.217 61.492 111.954 53.7575 109.388C36.8495 103.292 26.7389 88.9041 20.8593 71.8142C18.0917 64.6194 16.5532 56.6638 12.032 50.3679C9.06092 46.1859 4.79895 43.2595 0 42.1064C2.56818 39.6668 5.63713 37.9038 8.96017 36.9593C18.2263 34.438 25.5151 39.3277 28.2232 49.0811C30.8108 58.4056 33.129 68.1236 37.0907 76.7114C45.6261 94.7076 60.9676 106.509 79.9247 107.092L138.417 107.12L138.523 31.3777C126.635 28.7668 115.024 31.3777 104.461 36.9723C102.066 35.8287 99.5212 35.0804 96.915 34.7531C108.913 26.2927 123.447 22.9346 137.651 25.341C139.888 25.6477 142.064 26.3326 144.099 27.37L144.059 113.138" fill="#FAFAFA"/>
<path fill-rule="evenodd" clip-rule="evenodd" d="M159.758 140.088C156.351 140.247 155.533 140.247 151.541 140.247C151.513 137.171 151.485 136.269 151.541 132.513C155.132 132.513 155.79 132.513 158.856 132.61L159.014 132.379C159.042 131.349 159.042 131.023 159.145 129.887L159.014 129.665C155.79 129.73 154.788 129.762 151.541 129.73C151.541 126.747 151.541 125.814 151.622 122.83C154.975 122.86 156.11 122.86 159.517 122.991L159.676 122.767C159.729 121.599 159.781 121.21 159.86 120.242L159.701 120.016C154.842 120.081 153.812 120.081 148.609 120.111L148.452 120.333C148.636 124.063 148.636 127.164 148.636 132.6C148.636 138.523 148.555 140.267 148.478 142.822L148.609 143.057C153.627 142.992 154.445 142.953 159.596 142.953L159.781 142.731C159.835 141.627 159.835 141.403 159.912 140.306M144.011 141.369C143.957 138.333 143.931 135.252 143.931 132.214C143.931 128.235 143.983 124.195 144.038 120.244L143.877 120.018C142.828 120.083 142.56 120.113 141.37 120.113L141.21 120.335C141.315 122.573 141.343 123.319 141.448 128.397L141.66 139.137L138.385 132.05C136.637 128.296 134.791 124.186 132.995 120.242L132.731 120.016C131.224 120.081 130.96 120.081 129.327 120.111L129.194 120.333C129.327 124.734 129.35 129.173 129.35 133.574C129.35 136.647 129.327 139.756 129.219 142.826L129.376 143.061C130.219 142.976 131.066 142.941 131.913 142.956L132.074 142.734C132.016 141.407 132.016 141.336 131.941 138.656C131.913 137.3 131.859 135.972 131.832 134.611L131.568 123.513L135.743 132.638C137.331 136.03 138.89 139.432 140.443 142.826L140.656 143.061C142.242 142.956 142.347 142.956 143.906 142.956L144.038 142.734L144.011 141.369ZM124.605 120.018C123.556 120.083 123.39 120.083 122.176 120.113L122.045 120.335C122.229 124.026 122.257 128.779 122.257 132.537C122.417 134.468 122.22 136.414 121.675 138.264C121.35 138.926 120.879 139.493 120.302 139.916C119.726 140.339 119.061 140.606 118.365 140.692C117.67 140.778 116.965 140.682 116.313 140.411C115.66 140.14 115.08 139.704 114.622 139.139C113.699 137.811 113.648 135.838 113.648 132.612C113.648 129.469 113.648 123.614 113.75 120.253L113.617 120.027C112.3 120.093 112.115 120.093 110.662 120.122L110.475 120.344C110.554 124.55 110.554 125.109 110.554 129.794V133.093C110.554 136.88 110.554 138.824 111.98 140.828C112.683 141.721 113.573 142.425 114.579 142.882C115.584 143.339 116.677 143.537 117.767 143.46C118.785 143.521 119.803 143.337 120.745 142.919C121.687 142.502 122.528 141.863 123.206 141.05C124.418 139.046 124.958 136.663 124.738 134.29L124.712 131.379C124.685 128.955 124.685 127.92 124.685 126.53C124.685 123.975 124.712 123.201 124.766 120.257L124.605 120.018ZM97.6667 131.629C97.6667 130.172 97.6352 128.716 97.6352 127.259C97.6352 125.743 97.6667 124.223 97.6667 122.737C98.4548 122.642 99.2477 122.598 100.041 122.606C100.846 122.478 101.668 122.628 102.386 123.036C103.105 123.443 103.682 124.085 104.032 124.869C104.25 125.512 104.357 126.192 104.347 126.875C104.364 127.678 104.21 128.475 103.898 129.206C103.553 129.891 103.043 130.465 102.42 130.869C101.797 131.273 101.084 131.491 100.356 131.502C99.6458 131.601 98.5601 131.601 97.6667 131.631M97.8747 142.734C97.7174 138.784 97.7174 137.751 97.6911 134.257C98.06 134.257 98.4027 134.284 98.88 134.284C102.027 134.284 104.983 133.609 106.515 130.469C107.046 129.346 107.317 128.103 107.305 126.845C107.396 125.503 107.088 124.163 106.424 123.018C105.76 121.873 104.775 120.98 103.607 120.467C102.192 120.042 100.718 119.878 99.2506 119.984L97.5023 120.05C97.0268 120.05 95.0424 120.117 94.6228 120.117L94.4917 120.339C94.7277 125.26 94.7277 130.409 94.7277 135.42C94.7277 139.212 94.7032 140.789 94.649 142.828L94.8064 143.063C95.7727 142.975 96.7425 142.94 97.7121 142.958L97.8747 142.734Z" fill="#FAFAFA"/>
<path fill-rule="evenodd" clip-rule="evenodd" d="M75.2462 124.682C75.5958 124.682 76.3791 124.652 76.7322 124.652C77.0551 124.607 77.3833 124.641 77.6921 124.751C78.0009 124.861 78.2821 125.045 78.5144 125.288C78.7468 125.532 78.9241 125.828 79.0331 126.155C79.142 126.483 79.1796 126.832 79.1432 127.177C79.1432 130.126 76.2847 130.094 75.185 130.064M76.1675 134.473L78.04 138.753L79.6537 142.831L79.9771 143.098L86.2711 142.801L86.3865 142.509L84.3637 138.719L81.6555 132.977C82.3034 132.725 82.8976 132.337 83.4032 131.836C83.9087 131.336 84.3155 130.733 84.5997 130.062C85.0651 128.986 85.2998 127.812 85.2868 126.627C85.3288 125.646 85.1632 124.667 84.8021 123.763C84.441 122.859 83.8938 122.053 83.201 121.406C81.4755 119.947 78.7638 119.979 75.8179 120.042L74.2688 120.08H68.9015L68.7529 120.24C68.9609 123.254 69.0798 125.133 69.0798 130.31C69.0798 134.495 68.9907 138.68 68.9295 142.863L69.0798 143.049L75.2147 142.947L75.3895 142.76C75.2147 139.228 75.1797 138.384 75.1797 134.493L76.1675 134.473ZM64.23 133.497L64.4363 133.311L64.674 129.063L64.4992 128.832L57.9779 128.96V124.844H64.8559L65.0307 124.682L65.2387 120.206L65.0901 120.083H51.6927L51.5179 120.27C51.663 123.571 51.7259 124.898 51.7259 132.683C51.7259 137.089 51.698 139.098 51.6088 142.824L51.7539 143.059C54.5827 143.027 56.2821 142.956 59.5584 142.956C60.4501 142.956 61.1319 142.999 65.2125 142.999L65.4818 142.796L65.7772 137.999L65.6024 137.804C62.5358 137.934 60.3574 137.999 58.0374 137.999V133.492L64.23 133.497ZM33.8213 136.838C33.7951 139.204 33.7619 139.59 33.6133 142.059L33.8545 142.38C35.6121 143.138 37.4961 143.506 39.3915 143.462C42.3986 143.462 45.4372 142.833 47.1925 140.015C47.9532 138.747 48.3667 137.277 48.3866 135.771C48.4188 134.908 48.2818 134.048 47.9843 133.245C47.6869 132.442 47.2356 131.715 46.6593 131.109C45.741 130.222 44.673 129.53 43.5123 129.068L41.8741 128.322C41.2168 128.028 39.8793 127.446 39.8793 126.209C39.8859 125.926 39.9476 125.647 40.0605 125.39C40.1733 125.133 40.3349 124.904 40.5349 124.718C41.0371 124.341 41.6494 124.169 42.2605 124.233C43.3829 124.258 44.4801 124.592 45.4459 125.202C45.9068 125.502 46.3457 125.838 46.7589 126.208L47.0264 126.077L47.2834 121.016L47.161 120.829C45.3821 119.947 43.4367 119.514 41.4755 119.563C40.4075 119.461 39.3311 119.586 38.3087 119.931C37.2862 120.276 36.338 120.833 35.519 121.571C34.8741 122.249 34.3709 123.065 34.0422 123.965C33.7135 124.865 33.5667 125.829 33.6115 126.793C33.6115 131.234 36.4088 132.628 38.4684 133.637L39.9545 134.281C40.8479 134.706 42.0699 135.254 42.0699 136.519C42.0699 137.078 41.8024 138.66 39.1222 138.66C37.5729 138.669 36.0545 138.198 34.7514 137.304C34.5205 137.134 34.3009 136.947 34.0941 136.744L33.8213 136.838ZM29.8334 142.805C29.718 138.27 29.6218 133.635 29.6218 129.066C29.6218 125.337 29.6848 123.39 29.7757 120.149L29.6568 119.988C26.7371 120.117 26.1112 120.117 23.188 120.087L23.0411 120.247C23.1583 123.712 23.216 125.825 23.216 128.677C23.216 130.525 23.1845 132.369 23.1548 134.219C23.1251 137.102 23.0953 139.985 23.0953 142.906L23.2142 143.07C26.1637 142.938 26.877 142.938 29.7075 142.967L29.8334 142.805ZM18.6686 142.805C18.5497 138.27 18.4605 133.635 18.4605 129.066C18.4605 125.337 18.5217 123.39 18.6091 120.149L18.4903 119.988C15.5706 120.117 14.9481 120.117 12.0214 120.087L11.8711 120.247C11.9882 123.712 12.0459 125.825 12.0459 128.677C12.0459 130.525 12.018 132.369 11.9847 134.219C11.9568 137.102 11.9253 139.985 11.9253 142.906L12.0442 143.07C14.9936 142.938 15.7069 142.938 18.5357 142.967L18.6686 142.805Z" fill="#FAFAFA"/>
</svg>
