<svg width="797" height="796" viewBox="0 0 797 796" fill="none" xmlns="http://www.w3.org/2000/svg">
<path fill-rule="evenodd" clip-rule="evenodd" d="M567.774 24.2502C572.573 22.5043 576 17.9024 576 12.5C576 5.59644 570.404 0 563.5 0C556.596 0 551 5.59644 551 12.5C551 16.9068 553.28 20.781 556.726 23.0069C533.611 23.4199 515 42.2866 515 65.5C515 84.2268 527.112 100.125 543.93 105.787C491.662 108.185 444.069 125.471 404.058 153.378C405.301 150.851 406 148.007 406 145C406 134.507 397.493 126 387 126C376.507 126 368 134.507 368 145C368 155.493 376.507 164 387 164C388.076 164 389.131 163.911 390.159 163.739C321.117 218.655 278 306.657 278 402.5C278 496.86 320.261 580.639 390.245 633.276C389.19 633.095 388.106 633 387 633C376.507 633 368 641.507 368 652C368 662.493 376.507 671 387 671C397.493 671 406 662.493 406 652C406 648.621 405.118 645.447 403.571 642.698C445.03 670.218 495.054 687.386 551.021 690.491C530.624 693.611 515 711.231 515 732.5C515 754.942 532.395 773.321 554.437 774.891C552.307 777.133 551 780.164 551 783.5C551 790.404 556.596 796 563.5 796C570.404 796 576 790.404 576 783.5C576 779.117 573.744 775.261 570.33 773.029C587.531 767.589 600 751.501 600 732.5C600 712.17 585.726 695.174 566.653 690.988C567.6 690.996 568.549 691 569.5 691C631.862 691 684.939 663.812 722.556 625.652C720.309 629.049 719 633.122 719 637.5C719 649.374 728.626 659 740.5 659C752.374 659 762 649.374 762 637.5C762 625.626 752.374 616 740.5 616C735.755 616 731.368 617.537 727.812 620.141C747.608 598.685 762.677 574.166 772.002 549.252C772.002 549.292 772.001 549.332 772.001 549.371C772 549.414 772 549.457 772 549.5C772 556.404 777.596 562 784.5 562C791.404 562 797 556.404 797 549.5C797 542.596 791.404 537 784.5 537C780.465 537 776.876 538.912 774.591 541.88C779.076 528.196 781.806 514.473 782.614 501.149C783.988 502.886 786.114 504 788.5 504C792.642 504 796 500.642 796 496.5C796 492.358 792.642 489 788.5 489C786.252 489 784.235 489.989 782.861 491.555C782.491 454.874 766.744 422.153 731.954 403.019L731.875 402.975C731.585 402.816 731.293 402.657 731 402.5C731.284 402.274 731.567 402.048 731.848 401.821C746.987 389.617 758.383 375.932 766.404 361.314C784.64 328.083 785.429 290.034 773.093 253.62C775.049 257.971 779.421 261 784.5 261C791.404 261 797 255.404 797 248.5C797 241.596 791.404 236 784.5 236C777.596 236 772 241.596 772 248.5C772 249.543 772.128 250.556 772.369 251.525C763.161 225.454 747.245 200.288 726.214 178.405C729.871 181.283 734.485 183 739.5 183C751.374 183 761 173.374 761 161.5C761 149.626 751.374 140 739.5 140C727.626 140 718 149.626 718 161.5C718 166.389 719.632 170.897 722.381 174.509C684.391 136.794 630.93 109.642 570.628 105.934C587.675 100.403 600 84.3907 600 65.5C600 45.5705 586.282 28.845 567.774 24.2502ZM278 400.5C278 462.632 227.632 513 165.5 513C146.717 513 129.01 508.397 113.444 500.258C115.05 502.421 116 505.099 116 508C116 515.18 110.18 521 103 521C95.8203 521 90 515.18 90 508C90 500.82 95.8203 495 103 495C103.535 495 104.063 495.032 104.582 495.095C73.5465 475.068 53 440.183 53 400.5C53 338.368 103.368 288 165.5 288C227.632 288 278 338.368 278 400.5ZM26.5 425C41.1355 425 53 413.136 53 398.5C53 383.864 41.1355 372 26.5 372C11.8645 372 0 383.864 0 398.5C0 413.136 11.8645 425 26.5 425ZM117 291C117 298.18 111.18 304 104 304C96.8203 304 91 298.18 91 291C91 283.82 96.8203 278 104 278C111.18 278 117 283.82 117 291ZM797 301.5C797 305.642 793.642 309 789.5 309C785.358 309 782 305.642 782 301.5C782 297.358 785.358 294 789.5 294C793.642 294 797 297.358 797 301.5Z" fill="#371B58"/>
</svg>
