<svg width="164" height="90" viewBox="0 0 164 90" fill="none" xmlns="http://www.w3.org/2000/svg">
<path d="M98.24 0.655998H100.24V-1.344H98.24V0.655998ZM98.24 90V92H100.24V90H98.24ZM80.32 90H78.32V92H80.32V90ZM80.32 31.888H82.32L78.4707 31.1263L80.32 31.888ZM56.384 90V92H57.7232L58.2333 90.7617L56.384 90ZM42.816 90L40.9682 90.7652L41.4795 92H42.816V90ZM18.752 31.888L20.5998 31.1228L16.752 31.888H18.752ZM18.752 90V92H20.752V90H18.752ZM0.832001 90H-1.168V92H0.832001V90ZM0.832001 0.655998V-1.344H-1.168V0.655998H0.832001ZM21.184 0.655998L23.0228 -0.130557L22.5038 -1.344H21.184V0.655998ZM49.6 67.088L47.7612 67.8746L49.6 72.1735L51.4388 67.8746L49.6 67.088ZM78.016 0.655998V-1.344H76.6962L76.1772 -0.130557L78.016 0.655998ZM96.24 0.655998V90H100.24V0.655998H96.24ZM98.24 88H80.32V92H98.24V88ZM82.32 90V31.888H78.32V90H82.32ZM78.4707 31.1263L54.5347 89.2383L58.2333 90.7617L82.1693 32.6497L78.4707 31.1263ZM56.384 88H42.816V92H56.384V88ZM44.6638 89.2348L20.5998 31.1228L16.9042 32.6532L40.9682 90.7652L44.6638 89.2348ZM16.752 31.888V90H20.752V31.888H16.752ZM18.752 88H0.832001V92H18.752V88ZM2.832 90V0.655998H-1.168V90H2.832ZM0.832001 2.656H21.184V-1.344H0.832001V2.656ZM19.3452 1.44255L47.7612 67.8746L51.4388 66.3014L23.0228 -0.130557L19.3452 1.44255ZM51.4388 67.8746L79.8548 1.44255L76.1772 -0.130557L47.7612 66.3014L51.4388 67.8746ZM78.016 2.656H98.24V-1.344H78.016V2.656ZM133.877 75.792H131.877V77.792H133.877V75.792ZM163.317 75.792H165.317V73.792H163.317V75.792ZM163.317 90V92H165.317V90H163.317ZM115.957 90H113.957V92H115.957V90ZM115.957 0.655998V-1.344H113.957V0.655998H115.957ZM133.877 0.655998H135.877V-1.344H133.877V0.655998ZM133.877 77.792H163.317V73.792H133.877V77.792ZM161.317 75.792V90H165.317V75.792H161.317ZM163.317 88H115.957V92H163.317V88ZM117.957 90V0.655998H113.957V90H117.957ZM115.957 2.656H133.877V-1.344H115.957V2.656ZM131.877 0.655998V75.792H135.877V0.655998H131.877Z" fill="white"/>
</svg>
