<svg width="595" height="97" viewBox="0 0 595 97" fill="none" xmlns="http://www.w3.org/2000/svg">
<path d="M77.248 95V97H79.248V95H77.248ZM59.328 95L57.6602 96.1038L58.2533 97H59.328V95ZM18.752 33.688L20.4198 32.5842L16.752 27.042V33.688H18.752ZM18.752 95V97H20.752V95H18.752ZM0.832001 95H-1.168V97H0.832001V95ZM0.832001 5.52799V3.52799H-1.168V5.52799H0.832001ZM18.752 5.52799L20.4209 4.42582L19.828 3.52799H18.752V5.52799ZM59.328 66.968L57.6591 68.0702L61.328 73.6256V66.968H59.328ZM59.328 5.52799V3.52799H57.328V5.52799H59.328ZM77.248 5.52799H79.248V3.52799H77.248V5.52799ZM77.248 93H59.328V97H77.248V93ZM60.9958 93.8962L20.4198 32.5842L17.0842 34.7918L57.6602 96.1038L60.9958 93.8962ZM16.752 33.688V95H20.752V33.688H16.752ZM18.752 93H0.832001V97H18.752V93ZM2.832 95V5.52799H-1.168V95H2.832ZM0.832001 7.52799H18.752V3.52799H0.832001V7.52799ZM17.0831 6.63016L57.6591 68.0702L60.9969 65.8658L20.4209 4.42582L17.0831 6.63016ZM61.328 66.968V5.52799H57.328V66.968H61.328ZM59.328 7.52799H77.248V3.52799H59.328V7.52799ZM75.248 5.52799V95H79.248V5.52799H75.248ZM160.365 64.92V66.92H162.059L162.338 65.2488L160.365 64.92ZM108.525 64.92V62.92H106.351L106.532 65.0861L108.525 64.92ZM113.901 76.952L112.548 78.4247L112.548 78.4247L113.901 76.952ZM139.757 72.728V70.728H138.513L137.963 71.8443L139.757 72.728ZM159.085 72.728L161.001 73.3027L161.773 70.728H159.085V72.728ZM147.309 89.624L148.509 91.224L148.516 91.2184L148.524 91.2127L147.309 89.624ZM107.501 91.672L106.509 93.4085L106.525 93.4178L106.541 93.4267L107.501 91.672ZM94.829 78.744L93.0681 79.6922L93.0737 79.7026L93.0794 79.713L94.829 78.744ZM94.829 40.216L93.0681 39.2678L93.0681 39.2678L94.829 40.216ZM107.373 27.416L108.344 29.1643L108.344 29.1643L107.373 27.416ZM143.981 27.288L143.019 29.0417L143.031 29.048L143.981 27.288ZM156.397 39.704L154.637 40.6539L154.646 40.6706L154.655 40.6872L156.397 39.704ZM142.317 52.888V54.888H144.354L144.317 52.851L142.317 52.888ZM137.325 41.88L136.014 43.3901L136.025 43.4L136.037 43.4098L137.325 41.88ZM114.157 41.752L115.483 43.2492L115.486 43.2468L114.157 41.752ZM108.653 52.888L106.673 52.6052L106.347 54.888H108.653V52.888ZM158.877 58.008C158.877 60.4821 158.712 62.6735 158.392 64.5912L162.338 65.2488C162.701 63.0705 162.877 60.6539 162.877 58.008H158.877ZM160.365 62.92H108.525V66.92H160.365V62.92ZM106.532 65.0861C106.992 70.6016 108.95 75.1185 112.548 78.4247L115.254 75.4793C112.537 72.9828 110.912 69.4784 110.518 64.7539L106.532 65.0861ZM112.548 78.4247C116.103 81.6918 120.481 83.304 125.549 83.304V79.304C121.401 79.304 118.014 78.0149 115.254 75.4793L112.548 78.4247ZM125.549 83.304C129.167 83.304 132.389 82.5249 135.127 80.8723C137.87 79.2165 140 76.7602 141.551 73.6117L137.963 71.8443C136.698 74.4131 135.052 76.2448 133.059 77.4477C131.061 78.6538 128.587 79.304 125.549 79.304V83.304ZM139.757 74.728H159.085V70.728H139.757V74.728ZM157.169 72.1533C155.246 78.566 151.571 83.8469 146.094 88.0353L148.524 91.2127C154.652 86.5264 158.828 80.5433 161.001 73.3027L157.169 72.1533ZM146.109 88.024C140.707 92.0752 134.022 94.152 125.933 94.152V98.152C134.74 98.152 142.305 95.8768 148.509 91.224L146.109 88.024ZM125.933 94.152C119.409 94.152 113.6 92.7278 108.461 89.9173L106.541 93.4267C112.325 96.5895 118.804 98.152 125.933 98.152V94.152ZM108.493 89.9355C103.443 87.0497 99.4777 83.0094 96.5786 77.775L93.0794 79.713C96.3243 85.5719 100.807 90.1503 106.509 93.4085L108.493 89.9355ZM96.5899 77.7958C93.7825 72.582 92.349 66.5169 92.349 59.544H88.349C88.349 67.0778 89.9022 73.8127 93.0681 79.6922L96.5899 77.7958ZM92.349 59.544C92.349 52.4815 93.7843 46.3747 96.5899 41.1642L93.0681 39.2678C89.9004 45.1506 88.349 51.9292 88.349 59.544H92.349ZM96.5899 41.1642C99.4 35.9456 103.311 31.9605 108.344 29.1643L106.402 25.6677C100.683 28.8448 96.2314 33.3931 93.0681 39.2678L96.5899 41.1642ZM108.344 29.1643C113.384 26.3643 119.228 24.936 125.933 24.936V20.936C118.643 20.936 112.114 22.4943 106.402 25.6677L108.344 29.1643ZM125.933 24.936C132.378 24.936 138.057 26.3202 143.019 29.0416L144.943 25.5344C139.324 22.4531 132.97 20.936 125.933 20.936V24.936ZM143.031 29.048C148.064 31.7641 151.921 35.6212 154.637 40.6539L158.157 38.7541C155.07 33.0348 150.65 28.6146 144.931 25.528L143.031 29.048ZM154.655 40.6872C157.45 45.6385 158.877 51.3923 158.877 58.008H162.877C162.877 50.7996 161.317 44.3508 158.139 38.7208L154.655 40.6872ZM144.317 52.851C144.222 47.7227 142.339 43.4875 138.613 40.3502L136.037 43.4098C138.796 45.7338 140.242 48.8373 140.317 52.925L144.317 52.851ZM138.636 40.3699C134.995 37.2077 130.548 35.656 125.421 35.656V39.656C129.681 39.656 133.17 40.9203 136.014 43.3901L138.636 40.3699ZM125.421 35.656C120.536 35.656 116.297 37.174 112.828 40.2572L115.486 43.2468C118.161 40.8686 121.431 39.656 125.421 39.656V35.656ZM112.831 40.2548C109.419 43.2772 107.408 47.4597 106.673 52.6052L110.633 53.1708C111.263 48.759 112.922 45.5175 115.483 43.2492L112.831 40.2548ZM108.653 54.888H142.317V50.888H108.653V54.888ZM194.821 38.808V36.808H192.821V38.808H194.821ZM196.485 78.36L195.071 79.7742L195.125 79.8285L195.183 79.8785L196.485 78.36ZM210.693 79.896H212.693V77.896H210.693V79.896ZM210.693 95V97H212.693V95H210.693ZM176.773 38.808H178.773V36.808H176.773V38.808ZM168.325 38.808H166.325V40.808H168.325V38.808ZM168.325 24.088V22.088H166.325V24.088H168.325ZM176.773 24.088V26.088H178.773V24.088H176.773ZM176.773 6.55199V4.55199H174.773V6.55199H176.773ZM194.821 6.55199H196.821V4.55199H194.821V6.55199ZM194.821 24.088H192.821V26.088H194.821V24.088ZM210.693 24.088H212.693V22.088H210.693V24.088ZM210.693 38.808V40.808H212.693V38.808H210.693ZM192.821 38.808V73.112H196.821V38.808H192.821ZM192.821 73.112C192.821 75.7593 193.43 78.1333 195.071 79.7742L197.899 76.9458C197.321 76.3681 196.821 75.2434 196.821 73.112H192.821ZM195.183 79.8785C196.926 81.3718 199.484 81.896 202.373 81.896V77.896C199.801 77.896 198.434 77.3962 197.787 76.8415L195.183 79.8785ZM202.373 81.896H210.693V77.896H202.373V81.896ZM208.693 79.896V95H212.693V79.896H208.693ZM210.693 93H199.429V97H210.693V93ZM199.429 93C192.171 93 187.098 91.2363 183.831 88.0617C180.575 84.8974 178.773 79.9996 178.773 72.984H174.773C174.773 80.6457 176.747 86.756 181.043 90.9303C185.328 95.0944 191.583 97 199.429 97V93ZM178.773 72.984V38.808H174.773V72.984H178.773ZM176.773 36.808H168.325V40.808H176.773V36.808ZM170.325 38.808V24.088H166.325V38.808H170.325ZM168.325 26.088H176.773V22.088H168.325V26.088ZM178.773 24.088V6.55199H174.773V24.088H178.773ZM176.773 8.55199H194.821V4.55199H176.773V8.55199ZM192.821 6.55199V24.088H196.821V6.55199H192.821ZM194.821 26.088H210.693V22.088H194.821V26.088ZM208.693 24.088V38.808H212.693V24.088H208.693ZM210.693 36.808H194.821V40.808H210.693V36.808ZM321.886 24.088L323.806 24.6493L324.555 22.088H321.886V24.088ZM301.15 95V97H302.649L303.07 95.5613L301.15 95ZM281.822 95L279.887 95.505L280.277 97H281.822V95ZM268.894 45.464L270.829 44.9589L268.894 37.5439L266.959 44.9589L268.894 45.464ZM255.966 95V97H257.511L257.901 95.505L255.966 95ZM236.51 95L234.591 95.5645L235.014 97H236.51V95ZM215.646 24.088V22.088H212.973L213.727 24.6525L215.646 24.088ZM233.822 24.088L235.77 23.6356L235.411 22.088H233.822V24.088ZM246.366 78.104L244.418 78.5564L248.306 78.5912L246.366 78.104ZM259.934 24.088V22.088H258.374L257.994 23.6008L259.934 24.088ZM278.878 24.088L280.82 23.6084L280.444 22.088H278.878V24.088ZM292.19 77.976L290.248 78.4556L294.138 78.4294L292.19 77.976ZM304.734 24.088V22.088H303.146L302.786 23.6346L304.734 24.088ZM319.966 23.5267L299.23 94.4387L303.07 95.5613L323.806 24.6493L319.966 23.5267ZM301.15 93H281.822V97H301.15V93ZM283.757 94.495L270.829 44.9589L266.959 45.969L279.887 95.505L283.757 94.495ZM266.959 44.9589L254.031 94.495L257.901 95.505L270.829 45.969L266.959 44.9589ZM255.966 93H236.51V97H255.966V93ZM238.429 94.4355L217.565 23.5235L213.727 24.6525L234.591 95.5645L238.429 94.4355ZM215.646 26.088H233.822V22.088H215.646V26.088ZM231.874 24.5404L244.418 78.5564L248.314 77.6516L235.77 23.6356L231.874 24.5404ZM248.306 78.5912L261.874 24.5752L257.994 23.6008L244.426 77.6168L248.306 78.5912ZM259.934 26.088H278.878V22.088H259.934V26.088ZM276.936 24.5676L290.248 78.4556L294.132 77.4964L280.82 23.6084L276.936 24.5676ZM294.138 78.4294L306.682 24.5414L302.786 23.6346L290.242 77.5226L294.138 78.4294ZM304.734 26.088H321.886V22.088H304.734V26.088ZM344.638 91.672L343.657 93.4152L343.668 93.421L343.678 93.4267L344.638 91.672ZM331.71 78.744L329.96 79.713L329.966 79.7232L329.972 79.7334L331.71 78.744ZM331.838 40.344L330.111 39.3346L330.106 39.3446L330.1 39.3546L331.838 40.344ZM345.022 27.544L345.97 29.3049L345.981 29.2993L345.991 29.2936L345.022 27.544ZM382.142 27.544L381.173 29.2936L381.183 29.2993L381.194 29.3049L382.142 27.544ZM395.198 40.344L393.46 41.3334L393.466 41.3434L393.471 41.3534L395.198 40.344ZM395.07 78.744L393.355 77.715L393.349 77.7248L393.343 77.7346L395.07 78.744ZM381.758 91.672L382.706 93.433L382.716 93.4278L381.758 91.672ZM372.158 78.232L373.116 79.9878L373.125 79.9829L373.134 79.9779L372.158 78.232ZM379.07 71.064L380.829 72.015L380.829 72.015L379.07 71.064ZM376.254 44.056L374.807 45.4361L374.823 45.4534L374.84 45.4702L376.254 44.056ZM350.398 44.056L348.951 42.6758L348.95 42.6767L350.398 44.056ZM350.27 75.16L348.789 76.5036L348.805 76.5217L348.822 76.5393L350.27 75.16ZM363.07 94.152C356.546 94.152 350.737 92.7278 345.598 89.9173L343.678 93.4267C349.462 96.5895 355.941 98.152 363.07 98.152V94.152ZM345.619 89.9288C340.48 87.0382 336.429 82.9921 333.448 77.7546L329.972 79.7334C333.305 85.5892 337.874 90.1618 343.657 93.4152L345.619 89.9288ZM333.46 77.775C330.574 72.5653 329.102 66.5077 329.102 59.544H325.102C325.102 67.0869 326.702 73.8294 329.96 79.713L333.46 77.775ZM329.102 59.544C329.102 52.5895 330.613 46.5393 333.576 41.3334L330.1 39.3546C326.749 45.242 325.102 51.9919 325.102 59.544H329.102ZM333.565 41.3534C336.626 36.1174 340.754 32.1138 345.97 29.3049L344.074 25.7831C338.197 28.9476 333.536 33.4773 330.111 39.3346L333.565 41.3534ZM345.991 29.2936C351.219 26.3983 357.068 24.936 363.582 24.936V20.936C356.443 20.936 349.919 22.5457 344.053 25.7944L345.991 29.2936ZM363.582 24.936C370.096 24.936 375.945 26.3983 381.173 29.2936L383.111 25.7944C377.245 22.5457 370.721 20.936 363.582 20.936V24.936ZM381.194 29.3049C386.405 32.1112 390.486 36.1084 393.46 41.3334L396.936 39.3546C393.596 33.4863 388.972 28.9501 383.09 25.7831L381.194 29.3049ZM393.471 41.3534C396.513 46.5559 398.062 52.5987 398.062 59.544H402.062C402.062 51.9826 400.368 45.2255 396.925 39.3346L393.471 41.3534ZM398.062 59.544C398.062 66.4799 396.475 72.5157 393.355 77.715L396.785 79.773C400.321 73.879 402.062 67.1147 402.062 59.544H398.062ZM393.343 77.7346C390.284 82.9677 386.112 87.0187 380.8 89.9162L382.716 93.4278C388.668 90.1813 393.371 85.6137 396.797 79.7534L393.343 77.7346ZM380.81 89.9111C375.582 92.7259 369.684 94.152 363.07 94.152V98.152C370.28 98.152 376.84 96.5914 382.706 93.4329L380.81 89.9111ZM363.07 82.536C366.643 82.536 370.003 81.6859 373.116 79.9878L371.2 76.4762C368.681 77.8501 365.982 78.536 363.07 78.536V82.536ZM373.134 79.9779C376.393 78.1565 378.957 75.4785 380.829 72.015L377.311 70.113C375.769 72.9641 373.726 75.0648 371.182 76.4861L373.134 79.9779ZM380.829 72.015C382.73 68.4992 383.63 64.3141 383.63 59.544H379.63C379.63 63.8193 378.823 67.3141 377.311 70.113L380.829 72.015ZM383.63 59.544C383.63 52.4533 381.738 46.7119 377.668 42.6418L374.84 45.4702C377.938 48.5681 379.63 53.1521 379.63 59.544H383.63ZM377.701 42.6758C373.821 38.6063 368.987 36.552 363.326 36.552V40.552C367.905 40.552 371.689 42.1671 374.807 45.4361L377.701 42.6758ZM363.326 36.552C357.665 36.552 352.831 38.6063 348.951 42.6758L351.845 45.4361C354.963 42.1671 358.747 40.552 363.326 40.552V36.552ZM348.95 42.6767C345.07 46.7501 343.278 52.4783 343.278 59.544H347.278C347.278 53.127 348.899 48.5299 351.846 45.4353L348.95 42.6767ZM343.278 59.544C343.278 66.6009 345.022 72.3512 348.789 76.5036L351.751 73.8164C348.862 70.6301 347.278 65.9698 347.278 59.544H343.278ZM348.822 76.5393C352.627 80.5348 357.424 82.536 363.07 82.536V78.536C358.476 78.536 354.74 76.9532 351.718 73.7807L348.822 76.5393ZM431.127 35.096H429.127V42.1792L432.832 36.142L431.127 35.096ZM440.087 26.264L439.099 24.5251L439.09 24.53L439.082 24.535L440.087 26.264ZM452.887 23.064H454.887V21.064H452.887V23.064ZM452.887 41.88V43.88H454.887V41.88H452.887ZM435.351 45.848L434.003 44.3701L433.992 44.3801L433.982 44.3903L435.351 45.848ZM431.127 95V97H433.127V95H431.127ZM413.207 95H411.207V97H413.207V95ZM413.207 24.088V22.088H411.207V24.088H413.207ZM431.127 24.088H433.127V22.088H431.127V24.088ZM432.832 36.142C434.969 32.6583 437.72 29.9536 441.092 27.993L439.082 24.535C435.115 26.841 431.893 30.0244 429.422 34.05L432.832 36.142ZM441.075 28.0029C444.497 26.0585 448.417 25.064 452.887 25.064V21.064C447.8 21.064 443.186 22.2029 439.099 24.5251L441.075 28.0029ZM450.887 23.064V41.88H454.887V23.064H450.887ZM452.887 39.88H448.151V43.88H452.887V39.88ZM448.151 39.88C442.235 39.88 437.406 41.2678 434.003 44.3701L436.699 47.3259C439.099 45.1375 442.803 43.88 448.151 43.88V39.88ZM433.982 44.3903C430.558 47.6069 429.127 52.9152 429.127 59.672H433.127C433.127 53.2875 434.512 49.3798 436.72 47.3057L433.982 44.3903ZM429.127 59.672V95H433.127V59.672H429.127ZM431.127 93H413.207V97H431.127V93ZM415.207 95V24.088H411.207V95H415.207ZM413.207 26.088H431.127V22.088H413.207V26.088ZM429.127 24.088V35.096H433.127V24.088H429.127ZM506.941 95L505.377 96.2462L505.977 97H506.941V95ZM482.877 64.792L484.441 63.5458L480.877 59.0715V64.792H482.877ZM482.877 95V97H484.877V95H482.877ZM464.957 95H462.957V97H464.957V95ZM464.957 0.279999V-1.72H462.957V0.279999H464.957ZM482.877 0.279999H484.877V-1.72H482.877V0.279999ZM482.877 54.168H480.877V59.9175L484.445 55.4092L482.877 54.168ZM506.685 24.088V22.088H505.717L505.117 22.8468L506.685 24.088ZM529.981 24.088L531.484 25.4073L534.397 22.088H529.981V24.088ZM498.749 59.672L497.246 58.3527L496.079 59.6822L497.256 61.0027L498.749 59.672ZM530.237 95V97H534.699L531.73 93.6693L530.237 95ZM508.505 93.7538L484.441 63.5458L481.313 66.0382L505.377 96.2462L508.505 93.7538ZM480.877 64.792V95H484.877V64.792H480.877ZM482.877 93H464.957V97H482.877V93ZM466.957 95V0.279999H462.957V95H466.957ZM464.957 2.28H482.877V-1.72H464.957V2.28ZM480.877 0.279999V54.168H484.877V0.279999H480.877ZM484.445 55.4092L508.253 25.3292L505.117 22.8468L481.309 52.9268L484.445 55.4092ZM506.685 26.088H529.981V22.088H506.685V26.088ZM528.478 22.7687L497.246 58.3527L500.252 60.9913L531.484 25.4073L528.478 22.7687ZM497.256 61.0027L528.744 96.3307L531.73 93.6693L500.242 58.3413L497.256 61.0027ZM530.237 93H506.941V97H530.237V93ZM551.227 93.08L550.387 94.8949L550.401 94.9014L550.415 94.9076L551.227 93.08ZM540.219 84.504L538.61 85.6917L538.619 85.704L538.628 85.7161L540.219 84.504ZM535.867 72.6V70.6H533.746L533.87 72.7174L535.867 72.6ZM553.915 72.6L555.9 72.3519L555.681 70.6H553.915V72.6ZM557.883 79.384L556.655 80.9627L556.669 80.9735L556.683 80.984L557.883 79.384ZM574.651 80.024L573.509 78.3822L573.492 78.3942L573.475 78.4065L574.651 80.024ZM574.011 69.656L573.09 71.4315L573.129 71.4516L573.169 71.47L574.011 69.656ZM562.875 65.816L563.39 63.8835L563.368 63.8775L563.345 63.8721L562.875 65.816ZM549.819 61.848L549.06 63.6983L549.068 63.7017L549.076 63.705L549.819 61.848ZM541.115 55.576L539.59 56.87L539.601 56.8832L539.613 56.8962L541.115 55.576ZM540.859 33.432L539.229 32.2736L539.218 32.288L539.208 32.3026L540.859 33.432ZM550.587 25.752L549.782 23.9214L549.775 23.9244L549.768 23.9275L550.587 25.752ZM585.787 29.336L584.494 30.8618L584.502 30.8682L584.509 30.8746L585.787 29.336ZM594.107 46.36V48.36H596.255L596.102 46.2175L594.107 46.36ZM576.955 46.36L574.963 46.5411L575.129 48.36H576.955V46.36ZM573.371 39.704L572.091 41.2404L572.125 41.2692L572.161 41.2963L573.371 39.704ZM557.499 38.936L556.39 37.2719L556.371 37.2845L556.352 37.2975L557.499 38.936ZM558.523 49.432L557.579 51.195L557.603 51.2083L557.629 51.2209L558.523 49.432ZM569.659 53.144L569.166 55.0823L569.174 55.0843L569.659 53.144ZM590.907 63.512L589.363 64.7834L589.384 64.8082L589.405 64.8322L590.907 63.512ZM594.747 74.776H596.747V74.7578L596.747 74.7396L594.747 74.776ZM591.291 85.784L589.661 84.6256L589.65 84.64L589.64 84.6546L591.291 85.784ZM581.563 93.464L582.351 95.3023L582.36 95.2985L582.368 95.2946L581.563 93.464ZM566.843 94.152C561.278 94.152 556.356 93.1708 552.039 91.2524L550.415 94.9076C555.314 97.0852 560.802 98.152 566.843 98.152V94.152ZM552.067 91.2651C547.717 89.251 544.319 86.5855 541.81 83.2919L538.628 85.7161C541.58 89.5905 545.521 92.6424 550.387 94.8949L552.067 91.2651ZM541.828 83.3163C539.408 80.0368 538.096 76.439 537.864 72.4826L533.87 72.7174C534.15 77.465 535.74 81.8032 538.61 85.6917L541.828 83.3163ZM535.867 74.6H553.915V70.6H535.867V74.6ZM551.93 72.8481C552.342 76.1395 553.961 78.867 556.655 80.9627L559.111 77.8053C557.197 76.317 556.171 74.5219 555.9 72.3519L551.93 72.8481ZM556.683 80.984C559.475 83.0783 562.86 84.072 566.715 84.072V80.072C563.572 80.072 561.069 79.2737 559.083 77.784L556.683 80.984ZM566.715 84.072C570.361 84.072 573.481 83.3477 575.827 81.6415L573.475 78.4065C572.066 79.431 569.895 80.072 566.715 80.072V84.072ZM575.793 81.6658C578.218 79.9791 579.595 77.6509 579.595 74.776H575.595C575.595 76.1677 575.01 77.3382 573.509 78.3822L575.793 81.6658ZM579.595 74.776C579.595 73.2591 579.195 71.846 578.337 70.6211C577.491 69.4123 576.284 68.5064 574.853 67.842L573.169 71.47C574.127 71.915 574.712 72.4171 575.061 72.9149C575.398 73.3967 575.595 73.9889 575.595 74.776H579.595ZM574.932 67.8805C572.425 66.5806 568.537 65.256 563.39 63.8835L562.36 67.7485C567.453 69.1066 570.989 70.342 573.09 71.4315L574.932 67.8805ZM563.345 63.8721C558.108 62.605 553.855 61.3085 550.562 59.991L549.076 63.705C552.609 65.1182 557.061 66.467 562.405 67.7599L563.345 63.8721ZM550.578 59.9977C547.548 58.7544 544.897 56.8502 542.617 54.2558L539.613 56.8962C542.282 59.9338 545.434 62.211 549.06 63.6983L550.578 59.9977ZM542.64 54.282C540.638 51.9227 539.531 48.6307 539.531 44.184H535.531C535.531 49.2946 536.813 53.5973 539.59 56.87L542.64 54.282ZM539.531 44.184C539.531 40.6621 540.518 37.4717 542.51 34.5614L539.208 32.3026C536.762 35.8776 535.531 39.8552 535.531 44.184H539.531ZM542.489 34.5904C544.557 31.6798 547.5 29.3305 551.406 27.5765L549.768 23.9275C545.312 25.9281 541.769 28.6988 539.229 32.2736L542.489 34.5904ZM551.392 27.5826C555.355 25.8393 560.062 24.936 565.563 24.936V20.936C559.63 20.936 554.353 21.9101 549.782 23.9214L551.392 27.5826ZM565.563 24.936C573.673 24.936 579.912 26.9789 584.494 30.8618L587.08 27.8102C581.593 23.1598 574.349 20.936 565.563 20.936V24.936ZM584.509 30.8746C589.081 34.6716 591.635 39.8191 592.112 46.5025L596.102 46.2175C595.555 38.5649 592.562 32.363 587.065 27.7974L584.509 30.8746ZM594.107 44.36H576.955V48.36H594.107V44.36ZM578.947 46.1789C578.643 42.8385 577.189 40.0934 574.581 38.1117L572.161 41.2963C573.82 42.5572 574.755 44.2495 574.963 46.5411L578.947 46.1789ZM574.651 38.1676C572.145 36.0787 568.87 35.144 565.051 35.144V39.144C568.23 39.144 570.501 39.916 572.091 41.2404L574.651 38.1676ZM565.051 35.144C561.601 35.144 558.637 35.7735 556.39 37.2719L558.608 40.6001C559.945 39.7092 562.016 39.144 565.051 39.144V35.144ZM556.352 37.2975C554.096 38.8771 552.939 41.1607 552.939 43.928H556.939C556.939 42.4286 557.489 41.3843 558.646 40.5745L556.352 37.2975ZM552.939 43.928C552.939 45.4733 553.331 46.9157 554.159 48.1873C554.979 49.446 556.157 50.4335 557.579 51.195L559.467 47.669C558.5 47.1505 557.886 46.5806 557.511 46.0047C557.144 45.4416 556.939 44.772 556.939 43.928H552.939ZM557.629 51.2209C560.216 52.5144 564.097 53.7935 569.166 55.0823L570.152 51.2057C565.152 49.9345 561.609 48.7389 559.417 47.6431L557.629 51.2209ZM569.174 55.0843C574.239 56.3507 578.364 57.6461 581.572 58.9623L583.09 55.2617C579.642 53.8472 575.319 52.4973 570.144 51.2037L569.174 55.0843ZM581.572 58.9623C584.581 60.1967 587.174 62.125 589.363 64.7834L592.451 62.2406C589.861 59.0963 586.737 56.758 583.09 55.2617L581.572 58.9623ZM589.405 64.8322C591.494 67.21 592.668 70.4694 592.747 74.8124L596.747 74.7396C596.655 69.696 595.269 65.446 592.409 62.1918L589.405 64.8322ZM592.747 74.776C592.747 78.47 591.717 81.7319 589.661 84.6256L592.921 86.9424C595.473 83.3508 596.747 79.274 596.747 74.776H592.747ZM589.64 84.6546C587.669 87.5359 584.747 89.878 580.758 91.6334L582.368 95.2946C586.912 93.2953 590.476 90.5174 592.942 86.9134L589.64 84.6546ZM580.775 91.6257C576.894 93.2889 572.267 94.152 566.843 94.152V98.152C572.683 98.152 577.869 97.2231 582.351 95.3023L580.775 91.6257Z" fill="white"/>
</svg>
