<svg width="620" height="229" viewBox="0 0 620 229" fill="none" xmlns="http://www.w3.org/2000/svg">
<path d="M212.464 110.586L272.167 45.7028" stroke="white" stroke-width="3"/>
<path d="M212.464 110.586L223 201.45" stroke="white" stroke-width="3"/>
<path d="M212.463 110.586L122.192 168.138" stroke="white" stroke-width="3"/>
<path d="M212.463 110.586L135.697 13.547" stroke="white" stroke-width="3"/>
<path d="M212.464 110.586L294.222 84.6628" stroke="white" stroke-width="3"/>
<path d="M212.463 110.586L94.3193 116.351" stroke="white" stroke-width="3"/>
<path d="M212.464 110.586L388.713 114.14" stroke="white" stroke-width="3"/>
<path d="M212.464 110.586L293.293 139.92" stroke="white" stroke-width="3"/>
<path d="M212.463 110.586L176.835 182.332" stroke="white" stroke-width="3"/>
<path d="M212.463 110.586L141.099 131.277" stroke="white" stroke-width="3"/>
<path d="M212.463 110.586L115.347 76.0629" stroke="white" stroke-width="3"/>
<path d="M212.464 110.586L246.823 169.666" stroke="white" stroke-width="3"/>
<path d="M212.464 110.586L222.26 31.8265" stroke="white" stroke-width="3"/>
<path d="M212.463 110.586L172.383 57.1208" stroke="white" stroke-width="3"/>
<path d="M116.838 170.95L50.9121 210.978" stroke="white" stroke-width="3"/>
<path d="M104.329 72.059L24 44.9498" stroke="white" stroke-width="3"/>
<path d="M388.713 114.14L469.345 147.124" stroke="white" stroke-width="3"/>
<path d="M388.713 114.14L514.157 96.2893" stroke="white" stroke-width="3"/>
<path d="M514.156 96.2893L606.183 88.1666" stroke="white" stroke-width="3"/>
<path d="M212.463 122.133C215.525 122.133 218.463 120.916 220.628 118.751C222.793 116.586 224.01 113.648 224.01 110.586C224.01 107.524 222.793 104.586 220.628 102.421C218.463 100.256 215.525 99.0389 212.463 99.0389C209.401 99.0389 206.463 100.256 204.298 102.421C202.133 104.586 200.916 107.524 200.916 110.586C200.916 113.648 202.133 116.586 204.298 118.751C206.463 120.916 209.401 122.133 212.463 122.133Z" fill="#FF725E" stroke="white" stroke-width="3"/>
<path d="M272.166 57.2498C275.228 57.2498 278.166 56.0332 280.331 53.8678C282.496 51.7024 283.713 48.7651 283.713 45.7028C283.713 42.6405 282.496 39.7032 280.331 37.5379C278.166 35.3725 275.228 34.1558 272.166 34.1558C269.104 34.1558 266.167 35.3725 264.001 37.5379C261.836 39.7032 260.619 42.6405 260.619 45.7028C260.619 48.7651 261.836 51.7024 264.001 53.8678C266.167 56.0332 269.104 57.2498 272.166 57.2498Z" fill="#FF725E" stroke="white" stroke-width="3"/>
<path d="M222.453 222.497C225.516 222.497 228.453 221.28 230.618 219.115C232.784 216.949 234 214.012 234 210.95C234 207.888 232.784 204.95 230.618 202.785C228.453 200.619 225.516 199.403 222.453 199.403C219.391 199.403 216.454 200.619 214.288 202.785C212.123 204.95 210.906 207.888 210.906 210.95C210.906 214.012 212.123 216.949 214.288 219.115C216.454 221.28 219.391 222.497 222.453 222.497Z" fill="#FF725E" stroke="white" stroke-width="3"/>
<path d="M122.193 179.685C125.255 179.685 128.192 178.468 130.357 176.303C132.523 174.138 133.74 171.2 133.74 168.138C133.74 165.076 132.523 162.138 130.357 159.973C128.192 157.808 125.255 156.591 122.193 156.591C119.13 156.591 116.193 157.808 114.028 159.973C111.862 162.138 110.646 165.076 110.646 168.138C110.646 171.2 111.862 174.138 114.028 176.303C116.193 178.468 119.13 179.685 122.193 179.685Z" fill="#FF725E" stroke="white" stroke-width="3"/>
<path d="M135.697 25.094C138.76 25.094 141.697 23.8773 143.862 21.712C146.028 19.5466 147.244 16.6093 147.244 13.547C147.244 10.4847 146.028 7.54741 143.862 5.38204C141.697 3.21666 138.76 2 135.697 2C132.635 2 129.698 3.21666 127.532 5.38204C125.367 7.54741 124.15 10.4847 124.15 13.547C124.15 16.6093 125.367 19.5466 127.532 21.712C129.698 23.8773 132.635 25.094 135.697 25.094Z" fill="#FF725E" stroke="white" stroke-width="3"/>
<path d="M294.222 96.2099C297.284 96.2099 300.221 94.9932 302.387 92.8278C304.552 90.6624 305.769 87.7252 305.769 84.6628C305.769 81.6005 304.552 78.6633 302.387 76.4979C300.221 74.3325 297.284 73.1158 294.222 73.1158C291.16 73.1158 288.222 74.3325 286.057 76.4979C283.891 78.6633 282.675 81.6005 282.675 84.6628C282.675 87.7252 283.891 90.6624 286.057 92.8278C288.222 94.9932 291.16 96.2099 294.222 96.2099Z" fill="#FF725E" stroke="white" stroke-width="3"/>
<path d="M94.3195 127.898C97.3818 127.898 100.319 126.681 102.484 124.516C104.65 122.35 105.866 119.413 105.866 116.351C105.866 113.289 104.65 110.351 102.484 108.186C100.319 106.021 97.3818 104.804 94.3195 104.804C91.2572 104.804 88.3199 106.021 86.1545 108.186C83.9891 110.351 82.7725 113.289 82.7725 116.351C82.7725 119.413 83.9891 122.35 86.1545 124.516C88.3199 126.681 91.2572 127.898 94.3195 127.898Z" fill="#FF725E" stroke="white" stroke-width="3"/>
<path d="M388.712 125.687C391.774 125.687 394.712 124.471 396.877 122.305C399.042 120.14 400.259 117.203 400.259 114.14C400.259 111.078 399.042 108.141 396.877 105.975C394.712 103.81 391.774 102.593 388.712 102.593C385.65 102.593 382.712 103.81 380.547 105.975C378.382 108.141 377.165 111.078 377.165 114.14C377.165 117.203 378.382 120.14 380.547 122.305C382.712 124.471 385.65 125.687 388.712 125.687Z" fill="#FF725E" stroke="white" stroke-width="3"/>
<path d="M293.293 151.467C296.355 151.467 299.293 150.251 301.458 148.085C303.623 145.92 304.84 142.983 304.84 139.92C304.84 136.858 303.623 133.921 301.458 131.755C299.293 129.59 296.355 128.373 293.293 128.373C290.231 128.373 287.294 129.59 285.128 131.755C282.963 133.921 281.746 136.858 281.746 139.92C281.746 142.983 282.963 145.92 285.128 148.085C287.294 150.251 290.231 151.467 293.293 151.467Z" fill="#FF725E" stroke="white" stroke-width="3"/>
<path d="M469.344 158.671C472.406 158.671 475.343 157.454 477.509 155.289C479.674 153.123 480.891 150.186 480.891 147.124C480.891 144.061 479.674 141.124 477.509 138.959C475.343 136.793 472.406 135.577 469.344 135.577C466.282 135.577 463.344 136.793 461.179 138.959C459.014 141.124 457.797 144.061 457.797 147.124C457.797 150.186 459.014 153.123 461.179 155.289C463.344 157.454 466.282 158.671 469.344 158.671Z" fill="#FF725E" stroke="white" stroke-width="3"/>
<path d="M176.835 193.879C179.897 193.879 182.835 192.662 185 190.497C187.165 188.331 188.382 185.394 188.382 182.332C188.382 179.269 187.165 176.332 185 174.167C182.835 172.001 179.897 170.785 176.835 170.785C173.773 170.785 170.835 172.001 168.67 174.167C166.505 176.332 165.288 179.269 165.288 182.332C165.288 185.394 166.505 188.331 168.67 190.497C170.835 192.662 173.773 193.879 176.835 193.879Z" fill="#FF725E" stroke="white" stroke-width="3"/>
<path d="M141.099 142.824C144.161 142.824 147.098 141.608 149.264 139.442C151.429 137.277 152.646 134.34 152.646 131.277C152.646 128.215 151.429 125.278 149.264 123.112C147.098 120.947 144.161 119.73 141.099 119.73C138.036 119.73 135.099 120.947 132.934 123.112C130.768 125.278 129.552 128.215 129.552 131.277C129.552 134.34 130.768 137.277 132.934 139.442C135.099 141.608 138.036 142.824 141.099 142.824Z" fill="#FF725E" stroke="white" stroke-width="3"/>
<path d="M43.547 227.044C46.6093 227.044 49.5466 225.827 51.712 223.662C53.8773 221.496 55.094 218.559 55.094 215.497C55.094 212.434 53.8773 209.497 51.712 207.332C49.5466 205.166 46.6093 203.95 43.547 203.95C40.4847 203.95 37.5474 205.166 35.382 207.332C33.2167 209.497 32 212.434 32 215.497C32 218.559 33.2167 221.496 35.382 223.662C37.5474 225.827 40.4847 227.044 43.547 227.044Z" fill="#FF725E" stroke="white" stroke-width="3"/>
<path d="M514.156 107.836C517.219 107.836 520.156 106.62 522.321 104.454C524.487 102.289 525.703 99.3516 525.703 96.2893C525.703 93.227 524.487 90.2897 522.321 88.1243C520.156 85.959 517.219 84.7423 514.156 84.7423C511.094 84.7423 508.157 85.959 505.991 88.1243C503.826 90.2897 502.609 93.227 502.609 96.2893C502.609 99.3516 503.826 102.289 505.991 104.454C508.157 106.62 511.094 107.836 514.156 107.836Z" fill="#FF725E" stroke="white" stroke-width="3"/>
<path d="M606.184 99.7136C609.246 99.7136 612.183 98.4969 614.349 96.3315C616.514 94.1662 617.731 91.2289 617.731 88.1666C617.731 85.1043 616.514 82.167 614.349 80.0016C612.183 77.8362 609.246 76.6196 606.184 76.6196C603.121 76.6196 600.184 77.8362 598.019 80.0016C595.853 82.167 594.637 85.1043 594.637 88.1666C594.637 91.2289 595.853 94.1662 598.019 96.3315C600.184 98.4969 603.121 99.7136 606.184 99.7136Z" fill="#FF725E" stroke="white" stroke-width="3"/>
<path d="M115.347 87.6099C118.409 87.6099 121.346 86.3932 123.512 84.2278C125.677 82.0625 126.894 79.1252 126.894 76.0629C126.894 73.0006 125.677 70.0633 123.512 67.8979C121.346 65.7325 118.409 64.5159 115.347 64.5159C112.285 64.5159 109.347 65.7325 107.182 67.8979C105.016 70.0633 103.8 73.0006 103.8 76.0629C103.8 79.1252 105.016 82.0625 107.182 84.2278C109.347 86.3932 112.285 87.6099 115.347 87.6099Z" fill="#FF725E" stroke="white" stroke-width="3"/>
<path d="M246.822 181.213C249.885 181.213 252.822 179.996 254.987 177.831C257.153 175.665 258.369 172.728 258.369 169.666C258.369 166.603 257.153 163.666 254.987 161.501C252.822 159.335 249.885 158.119 246.822 158.119C243.76 158.119 240.823 159.335 238.657 161.501C236.492 163.666 235.275 166.603 235.275 169.666C235.275 172.728 236.492 175.665 238.657 177.831C240.823 179.996 243.76 181.213 246.822 181.213Z" fill="#FF725E" stroke="white" stroke-width="3"/>
<path d="M222.26 43.3736C225.322 43.3736 228.259 42.1569 230.425 39.9915C232.59 37.8261 233.807 34.8888 233.807 31.8265C233.807 28.7642 232.59 25.827 230.425 23.6616C228.259 21.4962 225.322 20.2795 222.26 20.2795C219.198 20.2795 216.26 21.4962 214.095 23.6616C211.93 25.827 210.713 28.7642 210.713 31.8265C210.713 34.8888 211.93 37.8261 214.095 39.9915C216.26 42.1569 219.198 43.3736 222.26 43.3736Z" fill="#FF725E" stroke="white" stroke-width="3"/>
<path d="M13.547 51.0437C16.6093 51.0437 19.5466 49.8271 21.712 47.6617C23.8773 45.4963 25.094 42.559 25.094 39.4967C25.094 36.4344 23.8773 33.4971 21.712 31.3317C19.5466 29.1664 16.6093 27.9497 13.547 27.9497C10.4847 27.9497 7.54741 29.1664 5.38204 31.3317C3.21666 33.4971 2 36.4344 2 39.4967C2 42.559 3.21666 45.4963 5.38204 47.6617C7.54741 49.8271 10.4847 51.0437 13.547 51.0437Z" fill="#FF725E" stroke="white" stroke-width="3"/>
<path d="M172.383 68.6679C175.445 68.6679 178.383 67.4512 180.548 65.2858C182.713 63.1204 183.93 60.1832 183.93 57.1209C183.93 54.0586 182.713 51.1213 180.548 48.9559C178.383 46.7905 175.445 45.5739 172.383 45.5739C169.321 45.5739 166.383 46.7905 164.218 48.9559C162.053 51.1213 160.836 54.0586 160.836 57.1209C160.836 60.1832 162.053 63.1204 164.218 65.2858C166.383 67.4512 169.321 68.6679 172.383 68.6679Z" fill="#FF725E" stroke="white" stroke-width="3"/>
</svg>
