<svg width="1308" height="135" viewBox="0 0 1308 135" fill="none" xmlns="http://www.w3.org/2000/svg">
<path d="M77.248 101V103H79.248V101H77.248ZM59.328 101L57.6602 102.104L58.2533 103H59.328V101ZM18.752 39.688L20.4198 38.5842L16.752 33.042V39.688H18.752ZM18.752 101V103H20.752V101H18.752ZM0.832001 101H-1.168V103H0.832001V101ZM0.832001 11.528V9.52799H-1.168V11.528H0.832001ZM18.752 11.528L20.4209 10.4258L19.828 9.52799H18.752V11.528ZM59.328 72.968L57.6591 74.0702L61.328 79.6256V72.968H59.328ZM59.328 11.528V9.52799H57.328V11.528H59.328ZM77.248 11.528H79.248V9.52799H77.248V11.528ZM77.248 99H59.328V103H77.248V99ZM60.9958 99.8962L20.4198 38.5842L17.0842 40.7918L57.6602 102.104L60.9958 99.8962ZM16.752 39.688V101H20.752V39.688H16.752ZM18.752 99H0.832001V103H18.752V99ZM2.832 101V11.528H-1.168V101H2.832ZM0.832001 13.528H18.752V9.52799H0.832001V13.528ZM17.0831 12.6302L57.6591 74.0702L60.9969 71.8658L20.4209 10.4258L17.0831 12.6302ZM61.328 72.968V11.528H57.328V72.968H61.328ZM59.328 13.528H77.248V9.52799H59.328V13.528ZM75.248 11.528V101H79.248V11.528H75.248ZM108.013 97.672L107.032 99.4152L107.043 99.421L107.053 99.4267L108.013 97.672ZM95.085 84.744L93.3354 85.713L93.3411 85.7232L93.3469 85.7334L95.085 84.744ZM95.213 46.344L93.4864 45.3346L93.4806 45.3446L93.4749 45.3546L95.213 46.344ZM108.397 33.544L109.345 35.3049L109.356 35.2993L109.366 35.2936L108.397 33.544ZM145.517 33.544L144.548 35.2936L144.558 35.2993L144.569 35.3049L145.517 33.544ZM158.573 46.344L156.835 47.3334L156.841 47.3434L156.846 47.3534L158.573 46.344ZM158.445 84.744L156.73 83.715L156.724 83.7248L156.718 83.7346L158.445 84.744ZM145.133 97.672L146.081 99.433L146.091 99.4278L145.133 97.672ZM135.533 84.232L136.491 85.9878L136.5 85.9829L136.509 85.9779L135.533 84.232ZM142.445 77.064L144.204 78.015L144.204 78.015L142.445 77.064ZM139.629 50.056L138.182 51.4361L138.198 51.4534L138.215 51.4702L139.629 50.056ZM113.773 50.056L112.326 48.6758L112.325 48.6767L113.773 50.056ZM113.645 81.16L112.164 82.5036L112.18 82.5217L112.197 82.5393L113.645 81.16ZM126.445 100.152C119.921 100.152 114.112 98.7278 108.973 95.9173L107.053 99.4267C112.837 102.59 119.316 104.152 126.445 104.152V100.152ZM108.994 95.9288C103.855 93.0382 99.8045 88.9921 96.8231 83.7546L93.3469 85.7334C96.6802 91.5892 101.249 96.1618 107.032 99.4152L108.994 95.9288ZM96.8346 83.775C93.9492 78.5653 92.477 72.5077 92.477 65.544H88.477C88.477 73.0869 90.0768 79.8294 93.3354 85.713L96.8346 83.775ZM92.477 65.544C92.477 58.5895 93.9878 52.5393 96.9511 47.3334L93.4749 45.3546C90.1236 51.242 88.477 57.9919 88.477 65.544H92.477ZM96.9396 47.3534C100.001 42.1174 104.129 38.1138 109.345 35.3049L107.449 31.7831C101.572 34.9476 96.9107 39.4773 93.4864 45.3346L96.9396 47.3534ZM109.366 35.2936C114.594 32.3983 120.443 30.936 126.957 30.936V26.936C119.818 26.936 113.294 28.5457 107.428 31.7944L109.366 35.2936ZM126.957 30.936C133.471 30.936 139.32 32.3983 144.548 35.2936L146.486 31.7944C140.62 28.5457 134.096 26.936 126.957 26.936V30.936ZM144.569 35.3049C149.78 38.1112 153.861 42.1084 156.835 47.3334L160.311 45.3546C156.971 39.4863 152.347 34.9501 146.465 31.7831L144.569 35.3049ZM156.846 47.3534C159.888 52.5559 161.437 58.5987 161.437 65.544H165.437C165.437 57.9826 163.743 51.2255 160.3 45.3346L156.846 47.3534ZM161.437 65.544C161.437 72.4799 159.85 78.5157 156.73 83.715L160.16 85.773C163.696 79.879 165.437 73.1147 165.437 65.544H161.437ZM156.718 83.7346C153.659 88.9677 149.487 93.0187 144.175 95.9162L146.091 99.4278C152.043 96.1813 156.746 91.6137 160.172 85.7534L156.718 83.7346ZM144.185 95.9111C138.957 98.7259 133.059 100.152 126.445 100.152V104.152C133.655 104.152 140.215 102.591 146.081 99.4329L144.185 95.9111ZM126.445 88.536C130.018 88.536 133.378 87.6859 136.491 85.9878L134.575 82.4762C132.056 83.8501 129.357 84.536 126.445 84.536V88.536ZM136.509 85.9779C139.768 84.1565 142.332 81.4785 144.204 78.015L140.686 76.113C139.144 78.9641 137.101 81.0648 134.557 82.4861L136.509 85.9779ZM144.204 78.015C146.105 74.4992 147.005 70.3141 147.005 65.544H143.005C143.005 69.8193 142.198 73.3141 140.686 76.113L144.204 78.015ZM147.005 65.544C147.005 58.4533 145.113 52.7119 141.043 48.6418L138.215 51.4702C141.313 54.5681 143.005 59.1521 143.005 65.544H147.005ZM141.076 48.6758C137.196 44.6063 132.362 42.552 126.701 42.552V46.552C131.28 46.552 135.064 48.1671 138.182 51.4361L141.076 48.6758ZM126.701 42.552C121.04 42.552 116.206 44.6063 112.326 48.6758L115.22 51.4361C118.338 48.1671 122.122 46.552 126.701 46.552V42.552ZM112.325 48.6767C108.445 52.7501 106.653 58.4783 106.653 65.544H110.653C110.653 59.127 112.274 54.5299 115.221 51.4353L112.325 48.6767ZM106.653 65.544C106.653 72.6009 108.397 78.3512 112.164 82.5036L115.126 79.8164C112.237 76.6301 110.653 71.9698 110.653 65.544H106.653ZM112.197 82.5393C116.002 86.5348 120.799 88.536 126.445 88.536V84.536C121.851 84.536 118.115 82.9532 115.093 79.7807L112.197 82.5393ZM236.358 37.128L234.921 38.5192L234.927 38.525L234.932 38.5307L236.358 37.128ZM244.166 101V103H246.166V101H244.166ZM226.246 101H224.246V103H226.246V101ZM222.022 48.904L220.548 50.2554L220.557 50.2658L220.567 50.276L222.022 48.904ZM198.726 48.904L197.272 47.5308L197.271 47.532L198.726 48.904ZM194.502 101V103H196.502V101H194.502ZM176.582 101H174.582V103H176.582V101ZM176.582 30.088V28.088H174.582V30.088H176.582ZM194.502 30.088H196.502V28.088H194.502V30.088ZM194.502 38.92H192.502V44.7491L196.081 40.1479L194.502 38.92ZM203.59 31.752L204.433 33.5654L204.442 33.5612L204.451 33.557L203.59 31.752ZM215.878 31.064C223.861 31.064 230.143 33.5841 234.921 38.5192L237.795 35.7368C232.163 29.9199 224.791 27.064 215.878 27.064V31.064ZM234.932 38.5307C239.672 43.3482 242.166 50.21 242.166 59.4H246.166C246.166 49.4754 243.454 41.4891 237.784 35.7253L234.932 38.5307ZM242.166 59.4V101H246.166V59.4H242.166ZM244.166 99H226.246V103H244.166V99ZM228.246 101V61.832H224.246V101H228.246ZM228.246 61.832C228.246 55.8822 226.756 51.0094 223.477 47.532L220.567 50.276C222.92 52.772 224.246 56.5178 224.246 61.832H228.246ZM223.496 47.5526C220.237 43.9973 215.824 42.296 210.502 42.296V46.296C214.908 46.296 218.175 47.6667 220.548 50.2554L223.496 47.5526ZM210.502 42.296C205.105 42.296 200.616 43.9898 197.272 47.5308L200.18 50.2772C202.638 47.6742 206 46.296 210.502 46.296V42.296ZM197.271 47.532C193.992 51.0094 192.502 55.8822 192.502 61.832H196.502C196.502 56.5178 197.828 52.772 200.181 50.276L197.271 47.532ZM192.502 61.832V101H196.502V61.832H192.502ZM194.502 99H176.582V103H194.502V99ZM178.582 101V30.088H174.582V101H178.582ZM176.582 32.088H194.502V28.088H176.582V32.088ZM192.502 30.088V38.92H196.502V30.088H192.502ZM196.081 40.1479C198.267 37.3368 201.04 35.1436 204.433 33.5654L202.747 29.9386C198.801 31.7737 195.516 34.3592 192.923 37.6921L196.081 40.1479ZM204.451 33.557C207.919 31.9018 211.719 31.064 215.878 31.064V27.064C211.163 27.064 206.77 28.0182 202.729 29.947L204.451 33.557ZM279.127 6.28H281.127V4.28H279.127V6.28ZM279.127 101V103H281.127V101H279.127ZM261.207 101H259.207V103H261.207V101ZM261.207 6.28V4.28H259.207V6.28H261.207ZM277.127 6.28V101H281.127V6.28H277.127ZM279.127 99H261.207V103H279.127V99ZM263.207 101V6.28H259.207V101H263.207ZM261.207 8.28H279.127V4.28H261.207V8.28ZM297.984 18.696L296.57 20.1102L296.599 20.1397L296.63 20.1679L297.984 18.696ZM297.984 3.71999L299.368 5.16397L299.369 5.16277L297.984 3.71999ZM313.728 3.71999L312.314 5.13421L312.343 5.16366L312.374 5.19186L313.728 3.71999ZM313.728 18.696L315.112 20.14L315.113 20.1388L313.728 18.696ZM314.752 30.088H316.752V28.088H314.752V30.088ZM314.752 101V103H316.752V101H314.752ZM296.832 101H294.832V103H296.832V101ZM296.832 30.088V28.088H294.832V30.088H296.832ZM305.92 19.64C303.216 19.64 301.068 18.8156 299.338 17.2241L296.63 20.1679C299.167 22.5017 302.31 23.64 305.92 23.64V19.64ZM299.398 17.2818C297.738 15.6217 296.912 13.6187 296.912 11.144H292.912C292.912 14.6426 294.134 17.6743 296.57 20.1102L299.398 17.2818ZM296.912 11.144C296.912 8.67023 297.736 6.72764 299.368 5.16397L296.6 2.27602C294.136 4.63768 292.912 7.64443 292.912 11.144H296.912ZM299.369 5.16277C301.103 3.4981 303.241 2.64799 305.92 2.64799V-1.35201C302.285 -1.35201 299.132 -0.154111 296.599 2.27722L299.369 5.16277ZM305.92 2.64799C308.6 2.64799 310.677 3.49694 312.314 5.13421L315.142 2.30578C312.683 -0.152953 309.555 -1.35201 305.92 -1.35201V2.64799ZM312.374 5.19186C314.082 6.76299 314.928 8.69747 314.928 11.144H318.928C318.928 7.61719 317.641 4.60233 315.082 2.24813L312.374 5.19186ZM314.928 11.144C314.928 13.5922 314.079 15.5866 312.343 17.2532L315.113 20.1388C317.644 17.7094 318.928 14.6691 318.928 11.144H314.928ZM312.344 17.252C310.712 18.8163 308.625 19.64 305.92 19.64V23.64C309.53 23.64 312.648 22.5011 315.112 20.14L312.344 17.252ZM312.752 30.088V101H316.752V30.088H312.752ZM314.752 99H296.832V103H314.752V99ZM298.832 101V30.088H294.832V101H298.832ZM296.832 32.088H314.752V28.088H296.832V32.088ZM392.233 37.128L390.796 38.5192L390.802 38.525L390.807 38.5307L392.233 37.128ZM400.041 101V103H402.041V101H400.041ZM382.121 101H380.121V103H382.121V101ZM377.897 48.904L376.423 50.2554L376.432 50.2658L376.442 50.276L377.897 48.904ZM354.601 48.904L353.147 47.5308L353.146 47.532L354.601 48.904ZM350.377 101V103H352.377V101H350.377ZM332.457 101H330.457V103H332.457V101ZM332.457 30.088V28.088H330.457V30.088H332.457ZM350.377 30.088H352.377V28.088H350.377V30.088ZM350.377 38.92H348.377V44.7491L351.956 40.1479L350.377 38.92ZM359.465 31.752L360.308 33.5654L360.317 33.5612L360.326 33.557L359.465 31.752ZM371.753 31.064C379.736 31.064 386.018 33.5841 390.796 38.5192L393.67 35.7368C388.038 29.9199 380.666 27.064 371.753 27.064V31.064ZM390.807 38.5307C395.547 43.3482 398.041 50.21 398.041 59.4H402.041C402.041 49.4754 399.329 41.4891 393.659 35.7253L390.807 38.5307ZM398.041 59.4V101H402.041V59.4H398.041ZM400.041 99H382.121V103H400.041V99ZM384.121 101V61.832H380.121V101H384.121ZM384.121 61.832C384.121 55.8822 382.631 51.0094 379.352 47.532L376.442 50.276C378.795 52.772 380.121 56.5178 380.121 61.832H384.121ZM379.371 47.5526C376.112 43.9973 371.699 42.296 366.377 42.296V46.296C370.783 46.296 374.05 47.6667 376.423 50.2554L379.371 47.5526ZM366.377 42.296C360.98 42.296 356.491 43.9898 353.147 47.5308L356.055 50.2772C358.513 47.6742 361.875 46.296 366.377 46.296V42.296ZM353.146 47.532C349.867 51.0094 348.377 55.8822 348.377 61.832H352.377C352.377 56.5178 353.703 52.772 356.056 50.276L353.146 47.532ZM348.377 61.832V101H352.377V61.832H348.377ZM350.377 99H332.457V103H350.377V99ZM334.457 101V30.088H330.457V101H334.457ZM332.457 32.088H350.377V28.088H332.457V32.088ZM348.377 30.088V38.92H352.377V30.088H348.377ZM351.956 40.1479C354.142 37.3368 356.915 35.1436 360.308 33.5654L358.622 29.9386C354.676 31.7737 351.391 34.3592 348.798 37.6921L351.956 40.1479ZM360.326 33.557C363.794 31.9018 367.594 31.064 371.753 31.064V27.064C367.038 27.064 362.645 28.0182 358.604 29.947L360.326 33.557ZM482.49 70.92V72.92H484.184L484.463 71.2488L482.49 70.92ZM430.65 70.92V68.92H428.476L428.657 71.0861L430.65 70.92ZM436.026 82.952L434.673 84.4247L434.673 84.4247L436.026 82.952ZM461.882 78.728V76.728H460.638L460.088 77.8443L461.882 78.728ZM481.21 78.728L483.126 79.3027L483.898 76.728H481.21V78.728ZM469.434 95.624L470.634 97.224L470.641 97.2184L470.649 97.2127L469.434 95.624ZM429.626 97.672L428.634 99.4085L428.65 99.4178L428.666 99.4267L429.626 97.672ZM416.954 84.744L415.193 85.6922L415.199 85.7026L415.204 85.713L416.954 84.744ZM416.954 46.216L415.193 45.2678L415.193 45.2678L416.954 46.216ZM429.498 33.416L430.469 35.1643L430.469 35.1643L429.498 33.416ZM466.106 33.288L465.144 35.0417L465.156 35.048L466.106 33.288ZM478.522 45.704L476.762 46.6539L476.771 46.6706L476.78 46.6872L478.522 45.704ZM464.442 58.888V60.888H466.479L466.442 58.851L464.442 58.888ZM459.45 47.88L458.139 49.3901L458.15 49.4L458.162 49.4098L459.45 47.88ZM436.282 47.752L437.608 49.2492L437.611 49.2468L436.282 47.752ZM430.778 58.888L428.798 58.6052L428.472 60.888H430.778V58.888ZM481.002 64.008C481.002 66.4821 480.837 68.6735 480.517 70.5912L484.463 71.2488C484.826 69.0705 485.002 66.6539 485.002 64.008H481.002ZM482.49 68.92H430.65V72.92H482.49V68.92ZM428.657 71.0861C429.117 76.6016 431.075 81.1185 434.673 84.4247L437.379 81.4793C434.662 78.9828 433.037 75.4784 432.643 70.7539L428.657 71.0861ZM434.673 84.4247C438.228 87.6918 442.606 89.304 447.674 89.304V85.304C443.526 85.304 440.139 84.0149 437.379 81.4793L434.673 84.4247ZM447.674 89.304C451.292 89.304 454.514 88.5249 457.252 86.8723C459.995 85.2165 462.125 82.7602 463.676 79.6117L460.088 77.8443C458.823 80.4131 457.177 82.2448 455.184 83.4477C453.186 84.6538 450.712 85.304 447.674 85.304V89.304ZM461.882 80.728H481.21V76.728H461.882V80.728ZM479.294 78.1533C477.371 84.566 473.696 89.8469 468.219 94.0353L470.649 97.2127C476.777 92.5264 480.953 86.5433 483.126 79.3027L479.294 78.1533ZM468.234 94.024C462.832 98.0752 456.147 100.152 448.058 100.152V104.152C456.865 104.152 464.43 101.877 470.634 97.224L468.234 94.024ZM448.058 100.152C441.534 100.152 435.725 98.7278 430.586 95.9173L428.666 99.4267C434.45 102.59 440.929 104.152 448.058 104.152V100.152ZM430.618 95.9355C425.568 93.0497 421.603 89.0094 418.704 83.775L415.204 85.713C418.449 91.5719 422.932 96.1503 428.634 99.4085L430.618 95.9355ZM418.715 83.7958C415.908 78.582 414.474 72.5169 414.474 65.544H410.474C410.474 73.0778 412.027 79.8127 415.193 85.6922L418.715 83.7958ZM414.474 65.544C414.474 58.4815 415.909 52.3747 418.715 47.1642L415.193 45.2678C412.025 51.1506 410.474 57.9292 410.474 65.544H414.474ZM418.715 47.1642C421.525 41.9456 425.436 37.9605 430.469 35.1643L428.527 31.6677C422.808 34.8448 418.356 39.3931 415.193 45.2678L418.715 47.1642ZM430.469 35.1643C435.509 32.3643 441.353 30.936 448.058 30.936V26.936C440.768 26.936 434.239 28.4943 428.527 31.6677L430.469 35.1643ZM448.058 30.936C454.503 30.936 460.182 32.3202 465.144 35.0416L467.068 31.5344C461.449 28.4531 455.095 26.936 448.058 26.936V30.936ZM465.156 35.048C470.189 37.7641 474.046 41.6212 476.762 46.6539L480.282 44.7541C477.195 39.0348 472.775 34.6146 467.056 31.528L465.156 35.048ZM476.78 46.6872C479.575 51.6385 481.002 57.3923 481.002 64.008H485.002C485.002 56.7996 483.442 50.3508 480.264 44.7208L476.78 46.6872ZM466.442 58.851C466.347 53.7227 464.464 49.4875 460.738 46.3502L458.162 49.4098C460.921 51.7338 462.367 54.8373 462.442 58.925L466.442 58.851ZM460.761 46.3699C457.12 43.2077 452.673 41.656 447.546 41.656V45.656C451.806 45.656 455.295 46.9203 458.139 49.3901L460.761 46.3699ZM447.546 41.656C442.661 41.656 438.422 43.174 434.953 46.2572L437.611 49.2468C440.286 46.8686 443.556 45.656 447.546 45.656V41.656ZM434.956 46.2548C431.544 49.2772 429.533 53.4597 428.798 58.6052L432.758 59.1708C433.388 54.759 435.047 51.5175 437.608 49.2492L434.956 46.2548ZM430.778 60.888H464.442V56.888H430.778V60.888ZM495.698 46.216L493.926 45.289L493.92 45.2998L493.915 45.3106L495.698 46.216ZM507.346 33.416L506.313 31.7036L506.306 31.7076L506.299 31.7117L507.346 33.416ZM537.682 32.136L536.727 33.8932L536.735 33.8975L536.743 33.9017L537.682 32.136ZM547.282 40.2L545.672 41.3864L549.282 46.2858V40.2H547.282ZM547.282 30.088V28.088H545.282V30.088H547.282ZM565.33 30.088H567.33V28.088H565.33V30.088ZM565.33 101V103H567.33V101H565.33ZM547.282 101H545.282V103H547.282V101ZM547.282 90.632H549.282V84.2295L545.638 89.4936L547.282 90.632ZM537.682 98.952L538.621 100.718L538.628 100.714L538.635 100.711L537.682 98.952ZM507.346 97.544L506.278 99.235L506.285 99.2392L506.291 99.2433L507.346 97.544ZM495.698 84.616L493.909 85.5104L493.917 85.5268L493.926 85.543L495.698 84.616ZM544.722 54.408L542.963 55.359L542.968 55.3692L542.974 55.3793L544.722 54.408ZM537.81 47.24L536.796 48.9639L536.815 48.9751L536.834 48.9859L537.81 47.24ZM519.25 47.112L518.252 45.3788L518.252 45.3788L519.25 47.112ZM512.338 54.28L510.599 53.2928L510.594 53.3007L510.59 53.3087L512.338 54.28ZM512.338 76.552L510.568 77.4835L510.583 77.5116L510.599 77.5392L512.338 76.552ZM519.25 83.848L518.213 85.5584L518.225 85.5652L518.236 85.5719L519.25 83.848ZM537.81 83.976L538.786 85.7219L538.805 85.7111L538.824 85.6999L537.81 83.976ZM544.722 76.808L546.47 77.7793L546.476 77.7692L546.481 77.759L544.722 76.808ZM493.474 65.288C493.474 58.3866 494.828 52.3476 497.481 47.1214L493.915 45.3106C490.936 51.1778 489.474 57.8534 489.474 65.288H493.474ZM497.47 47.143C500.221 41.8843 503.865 37.9001 508.393 35.1203L506.299 31.7117C501.099 34.9052 496.978 39.4544 493.926 45.289L497.47 47.143ZM508.379 35.1284C513.002 32.3391 518.145 30.936 523.858 30.936V26.936C517.453 26.936 511.589 28.5195 506.313 31.7036L508.379 35.1284ZM523.858 30.936C528.877 30.936 533.144 31.9462 536.727 33.8932L538.637 30.3787C534.369 28.0591 529.421 26.936 523.858 26.936V30.936ZM536.743 33.9017C540.523 35.9126 543.482 38.4137 545.672 41.3864L548.892 39.0136C546.304 35.5009 542.862 32.626 538.621 30.3702L536.743 33.9017ZM549.282 40.2V30.088H545.282V40.2H549.282ZM547.282 32.088H565.33V28.088H547.282V32.088ZM563.33 30.088V101H567.33V30.088H563.33ZM565.33 99H547.282V103H565.33V99ZM549.282 101V90.632H545.282V101H549.282ZM545.638 89.4936C543.538 92.527 540.591 95.1017 536.729 97.1934L538.635 100.711C542.965 98.365 546.418 95.393 548.926 91.7704L545.638 89.4936ZM536.743 97.1863C533.066 99.1422 528.747 100.152 523.73 100.152V104.152C529.294 104.152 534.277 103.028 538.621 100.718L536.743 97.1863ZM523.73 100.152C518.119 100.152 513.025 98.715 508.401 95.8447L506.291 99.2433C511.566 102.517 517.394 104.152 523.73 104.152V100.152ZM508.414 95.853C503.874 92.9856 500.223 88.9518 497.47 83.689L493.926 85.543C496.976 91.3736 501.09 95.9584 506.278 99.235L508.414 95.853ZM497.487 83.7216C494.829 78.4067 493.474 72.2781 493.474 65.288H489.474C489.474 72.8046 490.935 79.5613 493.909 85.5104L497.487 83.7216ZM549.282 65.544C549.282 60.9322 548.377 56.8687 546.47 53.4367L542.974 55.3793C544.48 58.0913 545.282 61.4518 545.282 65.544H549.282ZM546.481 53.457C544.609 49.9934 542.045 47.3155 538.786 45.4941L536.834 48.9859C539.378 50.4072 541.421 52.5079 542.963 55.359L546.481 53.457ZM538.824 45.5161C535.619 43.6308 532.155 42.68 528.466 42.68V46.68C531.433 46.68 534.198 47.4358 536.796 48.9639L538.824 45.5161ZM528.466 42.68C524.797 42.68 521.379 43.5783 518.252 45.3788L520.248 48.8452C522.753 47.403 525.479 46.68 528.466 46.68V42.68ZM518.252 45.3788C515.092 47.1984 512.546 49.8624 510.599 53.2928L514.077 55.2672C515.714 52.383 517.776 50.2683 520.248 48.8452L518.252 45.3788ZM510.59 53.3087C508.686 56.7352 507.778 60.7538 507.778 65.288H511.778C511.778 61.2889 512.577 57.9688 514.086 55.2513L510.59 53.3087ZM507.778 65.288C507.778 69.8257 508.687 73.9097 510.568 77.4835L514.108 75.6205C512.575 72.7089 511.778 69.2836 511.778 65.288H507.778ZM510.599 77.5392C512.542 80.9625 515.076 83.6569 518.213 85.5584L520.287 82.1376C517.792 80.6257 515.718 78.4562 514.077 75.5648L510.599 77.5392ZM518.236 85.5719C521.432 87.4521 524.853 88.408 528.466 88.408V84.408C525.594 84.408 522.87 83.6572 520.264 82.1241L518.236 85.5719ZM528.466 88.408C532.135 88.408 535.586 87.5101 538.786 85.7219L536.834 82.2301C534.232 83.6846 531.453 84.408 528.466 84.408V88.408ZM538.824 85.6999C542.047 83.8042 544.598 81.1488 546.47 77.7793L542.974 75.8367C541.432 78.6112 539.376 80.7345 536.796 82.2521L538.824 85.6999ZM546.481 77.759C548.376 74.2536 549.282 70.158 549.282 65.544H545.282C545.282 69.634 544.481 73.0477 542.963 75.857L546.481 77.759ZM600.752 41.096H598.752V48.1792L602.457 42.142L600.752 41.096ZM609.712 32.264L608.724 30.5251L608.715 30.53L608.707 30.535L609.712 32.264ZM622.512 29.064H624.512V27.064H622.512V29.064ZM622.512 47.88V49.88H624.512V47.88H622.512ZM604.976 51.848L603.628 50.3701L603.617 50.3801L603.607 50.3903L604.976 51.848ZM600.752 101V103H602.752V101H600.752ZM582.832 101H580.832V103H582.832V101ZM582.832 30.088V28.088H580.832V30.088H582.832ZM600.752 30.088H602.752V28.088H600.752V30.088ZM602.457 42.142C604.594 38.6583 607.345 35.9536 610.717 33.993L608.707 30.535C604.74 32.841 601.518 36.0244 599.047 40.05L602.457 42.142ZM610.7 34.0029C614.122 32.0585 618.042 31.064 622.512 31.064V27.064C617.425 27.064 612.811 28.2029 608.724 30.5251L610.7 34.0029ZM620.512 29.064V47.88H624.512V29.064H620.512ZM622.512 45.88H617.776V49.88H622.512V45.88ZM617.776 45.88C611.86 45.88 607.031 47.2678 603.628 50.3701L606.324 53.3259C608.724 51.1375 612.428 49.88 617.776 49.88V45.88ZM603.607 50.3903C600.183 53.6069 598.752 58.9152 598.752 65.672H602.752C602.752 59.2875 604.137 55.3798 606.345 53.3057L603.607 50.3903ZM598.752 65.672V101H602.752V65.672H598.752ZM600.752 99H582.832V103H600.752V99ZM584.832 101V30.088H580.832V101H584.832ZM582.832 32.088H600.752V28.088H582.832V32.088ZM598.752 30.088V41.096H602.752V30.088H598.752ZM721.018 17.16L720.098 18.9359L720.107 18.9403L721.018 17.16ZM737.53 32.904L735.787 33.8845L735.794 33.8975L735.802 33.9104L737.53 32.904ZM737.53 80.008L735.802 79.0016L735.798 79.0086L737.53 80.008ZM721.018 95.496L720.107 93.7157L720.098 93.7202L721.018 95.496ZM665.082 101H663.082V103H665.082V101ZM665.082 11.656V9.656H663.082V11.656H665.082ZM717.434 78.088L716.02 76.6738L716.02 76.6738L717.434 78.088ZM717.434 34.696L715.997 36.0868L716.002 36.0927L716.008 36.0985L717.434 34.696ZM683.002 26.76V24.76H681.002V26.76H683.002ZM683.002 85.768H681.002V87.768H683.002V85.768ZM696.314 13.656C705.437 13.656 713.346 15.4377 720.098 18.9358L721.938 15.3842C714.525 11.5436 705.964 9.656 696.314 9.656V13.656ZM720.107 18.9403C726.935 22.4359 732.145 27.4104 735.787 33.8845L739.273 31.9235C735.235 24.7442 729.437 19.2228 721.929 15.3797L720.107 18.9403ZM735.802 33.9104C739.524 40.3032 741.418 47.7962 741.418 56.456H745.418C745.418 47.1958 743.387 38.9875 739.258 31.8976L735.802 33.9104ZM741.418 56.456C741.418 65.1158 739.524 72.6088 735.802 79.0016L739.258 81.0144C743.387 73.9245 745.418 65.7162 745.418 56.456H741.418ZM735.798 79.0086C732.16 85.3141 726.949 90.2132 720.107 93.7157L721.929 97.2763C729.423 93.4401 735.22 88.0139 739.262 81.0074L735.798 79.0086ZM720.098 93.7202C713.346 97.2182 705.437 99 696.314 99V103C705.964 103 714.525 101.112 721.938 97.2718L720.098 93.7202ZM696.314 99H665.082V103H696.314V99ZM667.082 101V11.656H663.082V101H667.082ZM665.082 13.656H696.314V9.656H665.082V13.656ZM695.674 87.768C705.427 87.768 713.251 85.0992 718.848 79.5022L716.02 76.6738C711.377 81.3168 704.694 83.768 695.674 83.768V87.768ZM718.848 79.5022C724.442 73.9085 727.114 66.1298 727.114 56.456H723.114C723.114 65.3849 720.666 72.0275 716.02 76.6738L718.848 79.5022ZM727.114 56.456C727.114 46.7804 724.441 38.968 718.86 33.2935L716.008 36.0985C720.667 40.8346 723.114 47.5289 723.114 56.456H727.114ZM718.871 33.3052C713.278 27.5251 705.445 24.76 695.674 24.76V28.76C704.676 28.76 711.35 31.2856 715.997 36.0868L718.871 33.3052ZM695.674 24.76H683.002V28.76H695.674V24.76ZM681.002 26.76V85.768H685.002V26.76H681.002ZM683.002 87.768H695.674V83.768H683.002V87.768ZM824.672 30.088L826.516 30.863L827.682 28.088H824.672V30.088ZM780.768 134.536V136.536H782.097L782.612 135.311L780.768 134.536ZM761.696 134.536L759.862 133.739L758.646 136.536H761.696V134.536ZM777.056 99.208L778.89 100.005L779.227 99.2298L778.906 98.4475L777.056 99.208ZM748.64 30.088V28.088H745.655L746.79 30.8485L748.64 30.088ZM768.736 30.088L770.612 29.3948L770.129 28.088H768.736V30.088ZM787.04 79.624L785.164 80.3172L787.027 85.359L788.913 80.3257L787.04 79.624ZM805.6 30.088V28.088H804.214L803.727 29.3863L805.6 30.088ZM822.828 29.313L778.924 133.761L782.612 135.311L826.516 30.863L822.828 29.313ZM780.768 132.536H761.696V136.536H780.768V132.536ZM763.53 135.333L778.89 100.005L775.222 98.4105L759.862 133.739L763.53 135.333ZM778.906 98.4475L750.49 29.3275L746.79 30.8485L775.206 99.9685L778.906 98.4475ZM748.64 32.088H768.736V28.088H748.64V32.088ZM766.86 30.7812L785.164 80.3172L788.916 78.9308L770.612 29.3948L766.86 30.7812ZM788.913 80.3257L807.473 30.7897L803.727 29.3863L785.167 78.9223L788.913 80.3257ZM805.6 32.088H824.672V28.088H805.6V32.088ZM894.108 37.128L892.671 38.5192L892.677 38.525L892.682 38.5307L894.108 37.128ZM901.916 101V103H903.916V101H901.916ZM883.996 101H881.996V103H883.996V101ZM879.772 48.904L878.298 50.2554L878.307 50.2658L878.317 50.276L879.772 48.904ZM856.476 48.904L855.022 47.5308L855.021 47.532L856.476 48.904ZM852.252 101V103H854.252V101H852.252ZM834.332 101H832.332V103H834.332V101ZM834.332 30.088V28.088H832.332V30.088H834.332ZM852.252 30.088H854.252V28.088H852.252V30.088ZM852.252 38.92H850.252V44.7491L853.831 40.1479L852.252 38.92ZM861.34 31.752L862.183 33.5654L862.192 33.5612L862.201 33.557L861.34 31.752ZM873.628 31.064C881.611 31.064 887.893 33.5841 892.671 38.5192L895.545 35.7368C889.913 29.9199 882.541 27.064 873.628 27.064V31.064ZM892.682 38.5307C897.422 43.3482 899.916 50.21 899.916 59.4H903.916C903.916 49.4754 901.204 41.4891 895.534 35.7253L892.682 38.5307ZM899.916 59.4V101H903.916V59.4H899.916ZM901.916 99H883.996V103H901.916V99ZM885.996 101V61.832H881.996V101H885.996ZM885.996 61.832C885.996 55.8822 884.506 51.0094 881.227 47.532L878.317 50.276C880.67 52.772 881.996 56.5178 881.996 61.832H885.996ZM881.246 47.5526C877.987 43.9973 873.574 42.296 868.252 42.296V46.296C872.658 46.296 875.925 47.6667 878.298 50.2554L881.246 47.5526ZM868.252 42.296C862.855 42.296 858.366 43.9898 855.022 47.5308L857.93 50.2772C860.388 47.6742 863.75 46.296 868.252 46.296V42.296ZM855.021 47.532C851.742 51.0094 850.252 55.8822 850.252 61.832H854.252C854.252 56.5178 855.578 52.772 857.931 50.276L855.021 47.532ZM850.252 61.832V101H854.252V61.832H850.252ZM852.252 99H834.332V103H852.252V99ZM836.332 101V30.088H832.332V101H836.332ZM834.332 32.088H852.252V28.088H834.332V32.088ZM850.252 30.088V38.92H854.252V30.088H850.252ZM853.831 40.1479C856.017 37.3368 858.79 35.1436 862.183 33.5654L860.497 29.9386C856.551 31.7737 853.266 34.3592 850.673 37.6921L853.831 40.1479ZM862.201 33.557C865.669 31.9018 869.469 31.064 873.628 31.064V27.064C868.913 27.064 864.52 28.0182 860.479 29.947L862.201 33.557ZM918.573 46.216L916.801 45.289L916.795 45.2998L916.79 45.3106L918.573 46.216ZM930.221 33.416L929.188 31.7036L929.181 31.7076L929.174 31.7117L930.221 33.416ZM960.557 32.136L959.602 33.8932L959.61 33.8975L959.618 33.9017L960.557 32.136ZM970.157 40.2L968.547 41.3864L972.157 46.2858V40.2H970.157ZM970.157 30.088V28.088H968.157V30.088H970.157ZM988.205 30.088H990.205V28.088H988.205V30.088ZM988.205 101V103H990.205V101H988.205ZM970.157 101H968.157V103H970.157V101ZM970.157 90.632H972.157V84.2295L968.513 89.4936L970.157 90.632ZM960.557 98.952L961.496 100.718L961.503 100.714L961.51 100.711L960.557 98.952ZM930.221 97.544L929.153 99.235L929.16 99.2392L929.166 99.2433L930.221 97.544ZM918.573 84.616L916.784 85.5104L916.792 85.5268L916.801 85.543L918.573 84.616ZM967.597 54.408L965.838 55.359L965.843 55.3692L965.849 55.3793L967.597 54.408ZM960.685 47.24L959.671 48.9639L959.69 48.9751L959.709 48.9859L960.685 47.24ZM942.125 47.112L941.127 45.3788L941.127 45.3788L942.125 47.112ZM935.213 54.28L933.474 53.2928L933.469 53.3007L933.465 53.3087L935.213 54.28ZM935.213 76.552L933.443 77.4835L933.458 77.5116L933.474 77.5392L935.213 76.552ZM942.125 83.848L941.088 85.5584L941.1 85.5652L941.111 85.5719L942.125 83.848ZM960.685 83.976L961.661 85.7219L961.68 85.7111L961.699 85.6999L960.685 83.976ZM967.597 76.808L969.345 77.7793L969.351 77.7692L969.356 77.759L967.597 76.808ZM916.349 65.288C916.349 58.3866 917.703 52.3476 920.356 47.1214L916.79 45.3106C913.811 51.1778 912.349 57.8534 912.349 65.288H916.349ZM920.345 47.143C923.096 41.8843 926.74 37.9001 931.268 35.1203L929.174 31.7117C923.974 34.9052 919.853 39.4544 916.801 45.289L920.345 47.143ZM931.254 35.1284C935.877 32.3391 941.02 30.936 946.733 30.936V26.936C940.328 26.936 934.464 28.5195 929.188 31.7036L931.254 35.1284ZM946.733 30.936C951.752 30.936 956.019 31.9462 959.602 33.8932L961.512 30.3787C957.244 28.0591 952.296 26.936 946.733 26.936V30.936ZM959.618 33.9017C963.398 35.9126 966.357 38.4137 968.547 41.3864L971.767 39.0136C969.179 35.5009 965.737 32.626 961.496 30.3702L959.618 33.9017ZM972.157 40.2V30.088H968.157V40.2H972.157ZM970.157 32.088H988.205V28.088H970.157V32.088ZM986.205 30.088V101H990.205V30.088H986.205ZM988.205 99H970.157V103H988.205V99ZM972.157 101V90.632H968.157V101H972.157ZM968.513 89.4936C966.413 92.527 963.466 95.1017 959.604 97.1934L961.51 100.711C965.84 98.365 969.293 95.393 971.801 91.7704L968.513 89.4936ZM959.618 97.1863C955.941 99.1422 951.622 100.152 946.605 100.152V104.152C952.169 104.152 957.152 103.028 961.496 100.718L959.618 97.1863ZM946.605 100.152C940.994 100.152 935.9 98.715 931.276 95.8447L929.166 99.2433C934.441 102.517 940.269 104.152 946.605 104.152V100.152ZM931.289 95.853C926.749 92.9856 923.098 88.9518 920.345 83.689L916.801 85.543C919.851 91.3736 923.965 95.9584 929.153 99.235L931.289 95.853ZM920.362 83.7216C917.704 78.4067 916.349 72.2781 916.349 65.288H912.349C912.349 72.8046 913.81 79.5613 916.784 85.5104L920.362 83.7216ZM972.157 65.544C972.157 60.9322 971.252 56.8687 969.345 53.4367L965.849 55.3793C967.355 58.0913 968.157 61.4518 968.157 65.544H972.157ZM969.356 53.457C967.484 49.9934 964.92 47.3155 961.661 45.4941L959.709 48.9859C962.253 50.4072 964.296 52.5079 965.838 55.359L969.356 53.457ZM961.699 45.5161C958.494 43.6308 955.03 42.68 951.341 42.68V46.68C954.308 46.68 957.073 47.4358 959.671 48.9639L961.699 45.5161ZM951.341 42.68C947.672 42.68 944.254 43.5783 941.127 45.3788L943.123 48.8452C945.628 47.403 948.354 46.68 951.341 46.68V42.68ZM941.127 45.3788C937.967 47.1984 935.421 49.8624 933.474 53.2928L936.952 55.2672C938.589 52.383 940.651 50.2683 943.123 48.8452L941.127 45.3788ZM933.465 53.3087C931.561 56.7352 930.653 60.7538 930.653 65.288H934.653C934.653 61.2889 935.452 57.9688 936.961 55.2513L933.465 53.3087ZM930.653 65.288C930.653 69.8257 931.562 73.9097 933.443 77.4835L936.983 75.6205C935.45 72.7089 934.653 69.2836 934.653 65.288H930.653ZM933.474 77.5392C935.417 80.9625 937.951 83.6569 941.088 85.5584L943.162 82.1376C940.667 80.6257 938.593 78.4562 936.952 75.5648L933.474 77.5392ZM941.111 85.5719C944.307 87.4521 947.728 88.408 951.341 88.408V84.408C948.469 84.408 945.745 83.6572 943.139 82.1241L941.111 85.5719ZM951.341 88.408C955.01 88.408 958.461 87.5101 961.661 85.7219L959.709 82.2301C957.107 83.6846 954.328 84.408 951.341 84.408V88.408ZM961.699 85.6999C964.922 83.8042 967.473 81.1488 969.345 77.7793L965.849 75.8367C964.307 78.6112 962.251 80.7345 959.671 82.2521L961.699 85.6999ZM969.356 77.759C971.251 74.2536 972.157 70.158 972.157 65.544H968.157C968.157 69.634 967.356 73.0477 965.838 75.857L969.356 77.759ZM1114.76 37.128L1113.34 38.5309L1113.35 38.5423L1113.36 38.5535L1114.76 37.128ZM1122.83 101V103H1124.83V101H1122.83ZM1104.91 101H1102.91V103H1104.91V101ZM1100.68 49.16L1099.23 50.532L1099.24 50.5426L1099.25 50.5529L1100.68 49.16ZM1077.52 49.16L1076.08 47.7664L1076.08 47.767L1077.52 49.16ZM1073.29 101V103H1075.29V101H1073.29ZM1055.37 101H1053.37V103H1055.37V101ZM1051.15 49.16L1049.69 50.532L1049.7 50.5426L1049.71 50.5529L1051.15 49.16ZM1027.85 49.16L1026.42 47.7664L1026.42 47.767L1027.85 49.16ZM1023.63 101V103H1025.63V101H1023.63ZM1005.71 101H1003.71V103H1005.71V101ZM1005.71 30.088V28.088H1003.71V30.088H1005.71ZM1023.63 30.088H1025.63V28.088H1023.63V30.088ZM1023.63 38.664H1021.63V44.531L1025.21 39.8856L1023.63 38.664ZM1032.46 31.624L1031.62 29.8106L1031.61 29.8144L1031.6 29.8183L1032.46 31.624ZM1059.34 32.648L1058.38 34.4012L1058.39 34.4085L1058.4 34.4156L1059.34 32.648ZM1069.45 42.632L1067.7 43.5945L1069.43 46.7491L1071.19 43.6125L1069.45 42.632ZM1079.44 32.776L1078.46 31.0293L1078.45 31.0333L1078.45 31.0374L1079.44 32.776ZM1093.77 31.064C1102.03 31.064 1108.48 33.5963 1113.34 38.5309L1116.19 35.7251C1110.46 29.9077 1102.92 27.064 1093.77 27.064V31.064ZM1113.36 38.5535C1118.26 43.3741 1120.83 50.2277 1120.83 59.4H1124.83C1124.83 49.4576 1122.02 41.4632 1116.17 35.7025L1113.36 38.5535ZM1120.83 59.4V101H1124.83V59.4H1120.83ZM1122.83 99H1104.91V103H1122.83V99ZM1106.91 101V61.832H1102.91V101H1106.91ZM1106.91 61.832C1106.91 55.9621 1105.41 51.1623 1102.12 47.767L1099.25 50.5529C1101.58 52.9603 1102.91 56.6086 1102.91 61.832H1106.91ZM1102.14 47.788C1098.87 44.3266 1094.47 42.68 1089.16 42.68V46.68C1093.59 46.68 1096.86 48.02 1099.23 50.532L1102.14 47.788ZM1089.16 42.68C1083.86 42.68 1079.42 44.3267 1076.08 47.7664L1078.95 50.5536C1081.41 48.02 1084.74 46.68 1089.16 46.68V42.68ZM1076.08 47.767C1072.78 51.1623 1071.29 55.9621 1071.29 61.832H1075.29C1075.29 56.6086 1076.61 52.9603 1078.95 50.5529L1076.08 47.767ZM1071.29 61.832V101H1075.29V61.832H1071.29ZM1073.29 99H1055.37V103H1073.29V99ZM1057.37 101V61.832H1053.37V101H1057.37ZM1057.37 61.832C1057.37 55.9621 1055.88 51.1623 1052.58 47.767L1049.71 50.5529C1052.05 52.9603 1053.37 56.6086 1053.37 61.832H1057.37ZM1052.6 47.788C1049.34 44.3266 1044.93 42.68 1039.63 42.68V46.68C1044.05 46.68 1047.32 48.02 1049.69 50.532L1052.6 47.788ZM1039.63 42.68C1034.25 42.68 1029.76 44.3197 1026.42 47.7664L1029.29 50.5536C1031.74 48.0269 1035.11 46.68 1039.63 46.68V42.68ZM1026.42 47.767C1023.12 51.1623 1021.63 55.9621 1021.63 61.832H1025.63C1025.63 56.6086 1026.95 52.9603 1029.29 50.5529L1026.42 47.767ZM1021.63 61.832V101H1025.63V61.832H1021.63ZM1023.63 99H1005.71V103H1023.63V99ZM1007.71 101V30.088H1003.71V101H1007.71ZM1005.71 32.088H1023.63V28.088H1005.71V32.088ZM1021.63 30.088V38.664H1025.63V30.088H1021.63ZM1025.21 39.8856C1027.31 37.1609 1030 35.0085 1033.32 33.4297L1031.6 29.8183C1027.75 31.6528 1024.55 34.1938 1022.04 37.4424L1025.21 39.8856ZM1033.3 33.4374C1036.69 31.8627 1040.41 31.064 1044.49 31.064V27.064C1039.87 27.064 1035.57 27.9719 1031.62 29.8106L1033.3 33.4374ZM1044.49 31.064C1049.74 31.064 1054.35 32.192 1058.38 34.4012L1060.3 30.8948C1055.62 28.3253 1050.33 27.064 1044.49 27.064V31.064ZM1058.4 34.4156C1062.41 36.5352 1065.49 39.5819 1067.7 43.5945L1071.2 41.6695C1068.63 36.9781 1064.98 33.3688 1060.27 30.8804L1058.4 34.4156ZM1071.19 43.6125C1073.31 39.8538 1076.37 36.8219 1080.42 34.5146L1078.45 31.0374C1073.8 33.6794 1070.2 37.2181 1067.71 41.6515L1071.19 43.6125ZM1080.41 34.5227C1084.55 32.2155 1088.99 31.064 1093.77 31.064V27.064C1088.31 27.064 1083.2 28.3872 1078.46 31.0293L1080.41 34.5227ZM1140.98 18.696L1139.57 20.1102L1139.6 20.1397L1139.63 20.1679L1140.98 18.696ZM1140.98 3.71999L1142.37 5.16397L1142.37 5.16277L1140.98 3.71999ZM1156.73 3.71999L1155.31 5.13421L1155.34 5.16366L1155.37 5.19186L1156.73 3.71999ZM1156.73 18.696L1158.11 20.14L1158.11 20.1388L1156.73 18.696ZM1157.75 30.088H1159.75V28.088H1157.75V30.088ZM1157.75 101V103H1159.75V101H1157.75ZM1139.83 101H1137.83V103H1139.83V101ZM1139.83 30.088V28.088H1137.83V30.088H1139.83ZM1148.92 19.64C1146.22 19.64 1144.07 18.8156 1142.34 17.2241L1139.63 20.1679C1142.17 22.5017 1145.31 23.64 1148.92 23.64V19.64ZM1142.4 17.2818C1140.74 15.6217 1139.91 13.6187 1139.91 11.144H1135.91C1135.91 14.6426 1137.13 17.6743 1139.57 20.1102L1142.4 17.2818ZM1139.91 11.144C1139.91 8.67023 1140.74 6.72764 1142.37 5.16397L1139.6 2.27602C1137.14 4.63768 1135.91 7.64443 1135.91 11.144H1139.91ZM1142.37 5.16277C1144.1 3.4981 1146.24 2.64799 1148.92 2.64799V-1.35201C1145.28 -1.35201 1142.13 -0.154111 1139.6 2.27722L1142.37 5.16277ZM1148.92 2.64799C1151.6 2.64799 1153.68 3.49694 1155.31 5.13421L1158.14 2.30578C1155.68 -0.152953 1152.56 -1.35201 1148.92 -1.35201V2.64799ZM1155.37 5.19186C1157.08 6.76299 1157.93 8.69747 1157.93 11.144H1161.93C1161.93 7.61719 1160.64 4.60233 1158.08 2.24813L1155.37 5.19186ZM1157.93 11.144C1157.93 13.5922 1157.08 15.5866 1155.34 17.2532L1158.11 20.1388C1160.64 17.7094 1161.93 14.6691 1161.93 11.144H1157.93ZM1155.34 17.252C1153.71 18.8163 1151.63 19.64 1148.92 19.64V23.64C1152.53 23.64 1155.65 22.5011 1158.11 20.14L1155.34 17.252ZM1155.75 30.088V101H1159.75V30.088H1155.75ZM1157.75 99H1139.83V103H1157.75V99ZM1141.83 101V30.088H1137.83V101H1141.83ZM1139.83 32.088H1157.75V28.088H1139.83V32.088ZM1175.33 46.344L1177.08 47.3036L1177.09 47.2922L1175.33 46.344ZM1187.75 33.544L1188.73 35.2856L1188.74 35.2797L1188.75 35.2736L1187.75 33.544ZM1227.68 35.592L1226.45 37.172L1226.47 37.1821L1226.48 37.192L1227.68 35.592ZM1239.33 54.024V56.024H1241.88L1241.27 53.5438L1239.33 54.024ZM1220 54.024L1218.1 54.6565L1218.56 56.024H1220V54.024ZM1214.75 46.856L1213.55 48.456L1213.58 48.4799L1213.62 48.5024L1214.75 46.856ZM1193.63 49.8L1195.18 51.0625L1195.19 51.0538L1195.2 51.045L1193.63 49.8ZM1193.63 81.288L1192.07 82.533L1192.07 82.5418L1192.08 82.5505L1193.63 81.288ZM1220 77.064V75.064H1218.57L1218.11 76.4166L1220 77.064ZM1239.33 77.064L1241.27 77.5592L1241.9 75.064H1239.33V77.064ZM1227.68 95.368L1228.91 96.9455L1228.91 96.9455L1227.68 95.368ZM1187.75 97.672L1186.74 99.4016L1186.75 99.4077L1186.76 99.4136L1187.75 97.672ZM1175.33 84.872L1173.57 85.8202L1173.57 85.8316L1175.33 84.872ZM1172.85 65.544C1172.85 58.4806 1174.28 52.4221 1177.08 47.3036L1173.57 45.3844C1170.4 51.1886 1168.85 57.9301 1168.85 65.544H1172.85ZM1177.09 47.2922C1179.9 42.0652 1183.78 38.0795 1188.73 35.2856L1186.76 31.8024C1181.13 34.9818 1176.73 39.5294 1173.57 45.3958L1177.09 47.2922ZM1188.75 35.2736C1193.7 32.3986 1199.41 30.936 1205.92 30.936V26.936C1198.78 26.936 1192.37 28.5454 1186.74 31.8144L1188.75 35.2736ZM1205.92 30.936C1214.36 30.936 1221.16 33.0614 1226.45 37.172L1228.91 34.012C1222.77 29.2479 1215.06 26.936 1205.92 26.936V30.936ZM1226.48 37.192C1231.87 41.2323 1235.52 46.9555 1237.39 54.5042L1241.27 53.5438C1239.21 45.2205 1235.1 38.6557 1228.88 33.992L1226.48 37.192ZM1239.33 52.024H1220V56.024H1239.33V52.024ZM1221.9 53.3915C1220.75 49.9416 1218.75 47.1821 1215.89 45.2096L1213.62 48.5024C1215.71 49.9432 1217.21 51.9624 1218.1 54.6565L1221.9 53.3915ZM1215.95 45.256C1213.15 43.1556 1209.72 42.168 1205.79 42.168V46.168C1209.03 46.168 1211.57 46.9724 1213.55 48.456L1215.95 45.256ZM1205.79 42.168C1200.11 42.168 1195.46 44.2875 1192.07 48.555L1195.2 51.045C1197.78 47.8031 1201.24 46.168 1205.79 46.168V42.168ZM1192.08 48.5375C1188.7 52.6919 1187.15 58.4559 1187.15 65.544H1191.15C1191.15 58.9787 1192.59 54.2468 1195.18 51.0625L1192.08 48.5375ZM1187.15 65.544C1187.15 72.5577 1188.71 78.3056 1192.07 82.533L1195.2 80.043C1192.59 76.7611 1191.15 72.0129 1191.15 65.544H1187.15ZM1192.08 82.5505C1195.48 86.7286 1200.13 88.792 1205.79 88.792V84.792C1201.22 84.792 1197.76 83.1861 1195.18 80.0255L1192.08 82.5505ZM1205.79 88.792C1209.72 88.792 1213.14 87.9129 1215.91 86.0102C1218.7 84.1009 1220.67 81.2802 1221.89 77.7114L1218.11 76.4166C1217.11 79.3331 1215.6 81.3764 1213.66 82.7097C1211.7 84.0497 1209.12 84.792 1205.79 84.792V88.792ZM1220 79.064H1239.33V75.064H1220V79.064ZM1237.39 76.5688C1235.53 83.855 1231.88 89.5619 1226.45 93.7905L1228.91 96.9455C1235.09 92.1288 1239.2 85.633 1241.27 77.5592L1237.39 76.5688ZM1226.45 93.7905C1221.06 97.9915 1214.26 100.152 1205.92 100.152V104.152C1214.99 104.152 1222.7 101.79 1228.91 96.9455L1226.45 93.7905ZM1205.92 100.152C1199.4 100.152 1193.68 98.7275 1188.73 95.9304L1186.76 99.4136C1192.39 102.59 1198.79 104.152 1205.92 104.152V100.152ZM1188.75 95.9424C1183.78 93.0571 1179.9 89.0593 1177.08 83.9124L1173.57 85.8316C1176.73 91.6074 1181.13 96.1429 1186.74 99.4016L1188.75 95.9424ZM1177.09 83.9238C1174.28 78.7133 1172.85 72.6065 1172.85 65.544H1168.85C1168.85 73.1588 1170.4 79.9374 1173.57 85.8202L1177.09 83.9238ZM1263.98 99.08L1263.14 100.895L1263.15 100.901L1263.16 100.908L1263.98 99.08ZM1252.97 90.504L1251.36 91.6917L1251.37 91.704L1251.38 91.7161L1252.97 90.504ZM1248.62 78.6V76.6H1246.5L1246.62 78.7174L1248.62 78.6ZM1266.67 78.6L1268.65 78.3519L1268.43 76.6H1266.67V78.6ZM1270.63 85.384L1269.41 86.9627L1269.42 86.9735L1269.43 86.984L1270.63 85.384ZM1287.4 86.024L1286.26 84.3822L1286.24 84.3942L1286.22 84.4065L1287.4 86.024ZM1286.76 75.656L1285.84 77.4315L1285.88 77.4516L1285.92 77.47L1286.76 75.656ZM1275.62 71.816L1276.14 69.8835L1276.12 69.8775L1276.1 69.8721L1275.62 71.816ZM1262.57 67.848L1261.81 69.6983L1261.82 69.7017L1261.83 69.705L1262.57 67.848ZM1253.87 61.576L1252.34 62.87L1252.35 62.8832L1252.36 62.8962L1253.87 61.576ZM1253.61 39.432L1251.98 38.2736L1251.97 38.288L1251.96 38.3026L1253.61 39.432ZM1263.34 31.752L1262.53 29.9214L1262.52 29.9244L1262.52 29.9275L1263.34 31.752ZM1298.54 35.336L1297.24 36.8618L1297.25 36.8682L1297.26 36.8746L1298.54 35.336ZM1306.86 52.36V54.36H1309L1308.85 52.2175L1306.86 52.36ZM1289.71 52.36L1287.71 52.5411L1287.88 54.36H1289.71V52.36ZM1286.12 45.704L1284.84 47.2404L1284.88 47.2692L1284.91 47.2963L1286.12 45.704ZM1270.25 44.936L1269.14 43.2719L1269.12 43.2845L1269.1 43.2975L1270.25 44.936ZM1271.27 55.432L1270.33 57.195L1270.35 57.2083L1270.38 57.2209L1271.27 55.432ZM1282.41 59.144L1281.92 61.0823L1281.92 61.0843L1282.41 59.144ZM1303.66 69.512L1302.11 70.7834L1302.13 70.8082L1302.15 70.8322L1303.66 69.512ZM1307.5 80.776H1309.5V80.7578L1309.5 80.7396L1307.5 80.776ZM1304.04 91.784L1302.41 90.6256L1302.4 90.64L1302.39 90.6546L1304.04 91.784ZM1294.31 99.464L1295.1 101.302L1295.11 101.299L1295.12 101.295L1294.31 99.464ZM1279.59 100.152C1274.03 100.152 1269.11 99.1708 1264.79 97.2524L1263.16 100.908C1268.06 103.085 1273.55 104.152 1279.59 104.152V100.152ZM1264.82 97.2651C1260.47 95.251 1257.07 92.5855 1254.56 89.2919L1251.38 91.7161C1254.33 95.5905 1258.27 98.6424 1263.14 100.895L1264.82 97.2651ZM1254.58 89.3163C1252.16 86.0368 1250.85 82.439 1250.61 78.4826L1246.62 78.7174C1246.9 83.465 1248.49 87.8032 1251.36 91.6917L1254.58 89.3163ZM1248.62 80.6H1266.67V76.6H1248.62V80.6ZM1264.68 78.8481C1265.09 82.1395 1266.71 84.867 1269.41 86.9627L1271.86 83.8053C1269.95 82.317 1268.92 80.5219 1268.65 78.3519L1264.68 78.8481ZM1269.43 86.984C1272.23 89.0783 1275.61 90.072 1279.47 90.072V86.072C1276.32 86.072 1273.82 85.2737 1271.83 83.784L1269.43 86.984ZM1279.47 90.072C1283.11 90.072 1286.23 89.3477 1288.58 87.6415L1286.22 84.4065C1284.82 85.431 1282.65 86.072 1279.47 86.072V90.072ZM1288.54 87.6658C1290.97 85.9791 1292.35 83.6509 1292.35 80.776H1288.35C1288.35 82.1677 1287.76 83.3382 1286.26 84.3822L1288.54 87.6658ZM1292.35 80.776C1292.35 79.2591 1291.94 77.846 1291.09 76.6211C1290.24 75.4123 1289.03 74.5064 1287.6 73.842L1285.92 77.47C1286.88 77.915 1287.46 78.4171 1287.81 78.9149C1288.15 79.3967 1288.35 79.9889 1288.35 80.776H1292.35ZM1287.68 73.8805C1285.17 72.5806 1281.29 71.256 1276.14 69.8835L1275.11 73.7485C1280.2 75.1066 1283.74 76.342 1285.84 77.4315L1287.68 73.8805ZM1276.1 69.8721C1270.86 68.605 1266.61 67.3085 1263.31 65.991L1261.83 69.705C1265.36 71.1182 1269.81 72.467 1275.15 73.7599L1276.1 69.8721ZM1263.33 65.9977C1260.3 64.7544 1257.65 62.8502 1255.37 60.2558L1252.36 62.8962C1255.03 65.9338 1258.18 68.211 1261.81 69.6983L1263.33 65.9977ZM1255.39 60.282C1253.39 57.9227 1252.28 54.6307 1252.28 50.184H1248.28C1248.28 55.2946 1249.56 59.5973 1252.34 62.87L1255.39 60.282ZM1252.28 50.184C1252.28 46.6621 1253.27 43.4717 1255.26 40.5614L1251.96 38.3026C1249.51 41.8776 1248.28 45.8552 1248.28 50.184H1252.28ZM1255.24 40.5904C1257.31 37.6798 1260.25 35.3305 1264.16 33.5765L1262.52 29.9275C1258.06 31.9281 1254.52 34.6988 1251.98 38.2736L1255.24 40.5904ZM1264.14 33.5826C1268.1 31.8393 1272.81 30.936 1278.31 30.936V26.936C1272.38 26.936 1267.1 27.9101 1262.53 29.9214L1264.14 33.5826ZM1278.31 30.936C1286.42 30.936 1292.66 32.9789 1297.24 36.8618L1299.83 33.8102C1294.34 29.1598 1287.1 26.936 1278.31 26.936V30.936ZM1297.26 36.8746C1301.83 40.6716 1304.38 45.8191 1304.86 52.5025L1308.85 52.2175C1308.31 44.5649 1305.31 38.363 1299.81 33.7974L1297.26 36.8746ZM1306.86 50.36H1289.71V54.36H1306.86V50.36ZM1291.7 52.1789C1291.39 48.8385 1289.94 46.0934 1287.33 44.1117L1284.91 47.2963C1286.57 48.5572 1287.5 50.2495 1287.71 52.5411L1291.7 52.1789ZM1287.4 44.1676C1284.89 42.0787 1281.62 41.144 1277.8 41.144V45.144C1280.98 45.144 1283.25 45.916 1284.84 47.2404L1287.4 44.1676ZM1277.8 41.144C1274.35 41.144 1271.39 41.7735 1269.14 43.2719L1271.36 46.6001C1272.69 45.7092 1274.77 45.144 1277.8 45.144V41.144ZM1269.1 43.2975C1266.85 44.8771 1265.69 47.1607 1265.69 49.928H1269.69C1269.69 48.4286 1270.24 47.3843 1271.4 46.5745L1269.1 43.2975ZM1265.69 49.928C1265.69 51.4733 1266.08 52.9157 1266.91 54.1873C1267.73 55.446 1268.91 56.4335 1270.33 57.195L1272.22 53.669C1271.25 53.1505 1270.64 52.5806 1270.26 52.0047C1269.89 51.4416 1269.69 50.772 1269.69 49.928H1265.69ZM1270.38 57.2209C1272.97 58.5144 1276.85 59.7935 1281.92 61.0823L1282.9 57.2057C1277.9 55.9345 1274.36 54.7389 1272.17 53.6431L1270.38 57.2209ZM1281.92 61.0843C1286.99 62.3507 1291.11 63.6461 1294.32 64.9623L1295.84 61.2617C1292.39 59.8472 1288.07 58.4973 1282.89 57.2037L1281.92 61.0843ZM1294.32 64.9623C1297.33 66.1967 1299.92 68.125 1302.11 70.7834L1305.2 68.2406C1302.61 65.0963 1299.49 62.758 1295.84 61.2617L1294.32 64.9623ZM1302.15 70.8322C1304.24 73.21 1305.42 76.4694 1305.5 80.8124L1309.5 80.7396C1309.4 75.696 1308.02 71.446 1305.16 68.1918L1302.15 70.8322ZM1305.5 80.776C1305.5 84.47 1304.47 87.7319 1302.41 90.6256L1305.67 92.9424C1308.22 89.3508 1309.5 85.274 1309.5 80.776H1305.5ZM1302.39 90.6546C1300.42 93.5359 1297.5 95.878 1293.51 97.6334L1295.12 101.295C1299.66 99.2953 1303.23 96.5174 1305.69 92.9134L1302.39 90.6546ZM1293.53 97.6257C1289.64 99.2889 1285.02 100.152 1279.59 100.152V104.152C1285.43 104.152 1290.62 103.223 1295.1 101.302L1293.53 97.6257Z" fill="white"/>
</svg>
