<svg width="653" height="427" viewBox="0 0 653 427" fill="none" xmlns="http://www.w3.org/2000/svg">
<path d="M432.297 28.182H360.13V29.5569H432.297V28.182Z" fill="#CCCCCC"/>
<path d="M303.771 28.182H74.8979V29.5569H303.771V28.182Z" fill="#CCCCCC"/>
<path d="M74.898 57.051C90.4609 57.051 103.077 44.4335 103.077 28.8691C103.077 13.3046 90.4609 0.687088 74.898 0.687088C59.335 0.687088 46.7188 13.3046 46.7188 28.8691C46.7188 44.4335 59.335 57.051 74.898 57.051Z" fill="#6C63FF"/>
<path d="M203.424 57.051C218.987 57.051 231.603 44.4335 231.603 28.8691C231.603 13.3046 218.987 0.687088 203.424 0.687088C187.861 0.687088 175.245 13.3046 175.245 28.8691C175.245 44.4335 187.861 57.051 203.424 57.051Z" fill="#3F3D56"/>
<path d="M331.947 57.7396C326.237 57.7396 320.656 56.0465 315.909 52.8742C311.162 49.7019 307.462 45.1931 305.277 39.9178C303.092 34.6426 302.521 28.8378 303.635 23.2376C304.748 17.6374 307.498 12.4933 311.535 8.45578C315.572 4.41827 320.716 1.66869 326.315 0.55474C331.915 -0.559208 337.719 0.012503 342.994 2.19759C348.269 4.38268 352.777 8.08299 355.949 12.8306C359.121 17.5782 360.814 23.1599 360.814 28.8698C360.814 36.5266 357.773 43.8697 352.359 49.2839C346.945 54.698 339.603 57.7396 331.947 57.7396ZM331.947 1.37494C326.509 1.37494 321.194 2.9875 316.673 6.00867C312.152 9.02985 308.628 13.324 306.547 18.348C304.467 23.372 303.922 28.9003 304.983 34.2338C306.044 39.5673 308.662 44.4664 312.507 48.3116C316.352 52.1569 321.25 54.7755 326.583 55.8364C331.916 56.8973 337.444 56.3528 342.468 54.2718C347.491 52.1908 351.785 48.6667 354.806 44.1452C357.827 39.6237 359.439 34.3078 359.439 28.8698C359.439 21.5777 356.543 14.5843 351.387 9.42801C346.231 4.27172 339.238 1.37494 331.947 1.37494Z" fill="#CCCCCC"/>
<path d="M460.473 57.7396C454.764 57.7396 449.182 56.0465 444.435 52.8742C439.688 49.7019 435.988 45.1931 433.803 39.9178C431.618 34.6426 431.047 28.8378 432.161 23.2376C433.274 17.6374 436.024 12.4933 440.061 8.45578C444.098 4.41827 449.242 1.66869 454.841 0.55474C460.441 -0.559208 466.245 0.012503 471.52 2.19759C476.795 4.38268 481.303 8.08299 484.475 12.8306C487.647 17.5782 489.34 23.1599 489.34 28.8698C489.34 36.5266 486.299 43.8697 480.885 49.2839C475.471 54.698 468.129 57.7396 460.473 57.7396ZM460.473 1.37494C455.036 1.37494 449.72 2.9875 445.199 6.00867C440.678 9.02985 437.154 13.324 435.074 18.348C432.993 23.372 432.448 28.9003 433.509 34.2338C434.57 39.5673 437.188 44.4664 441.033 48.3116C444.878 52.1569 449.777 54.7755 455.11 55.8364C460.442 56.8973 465.97 56.3528 470.994 54.2718C476.017 52.1908 480.311 48.6667 483.332 44.1452C486.353 39.6237 487.965 34.3078 487.965 28.8698C487.965 25.2591 487.254 21.6838 485.872 18.348C484.491 15.0122 482.466 11.9811 479.913 9.42801C477.36 6.87488 474.329 4.84961 470.994 3.46787C467.658 2.08612 464.083 1.37494 460.473 1.37494Z" fill="#CCCCCC"/>
<path d="M72.7287 37.2719C72.2336 37.2723 71.7519 37.1117 71.3561 36.8144L71.3317 36.7961L66.1597 32.8398C65.6759 32.4689 65.3593 31.921 65.2796 31.3166C65.1998 30.7122 65.3633 30.1009 65.7342 29.6172C66.1051 29.1334 66.6529 28.8168 67.2572 28.737C67.8615 28.6572 68.4728 28.8207 68.9565 29.1916L72.3062 31.7608L80.2218 21.4324C80.5925 20.9488 81.1401 20.6324 81.7441 20.5526C82.3481 20.4728 82.9591 20.6362 83.4427 21.0068L83.3939 21.0747L83.4442 21.0068C83.9273 21.3781 84.2433 21.9259 84.3229 22.5299C84.4026 23.134 84.2393 23.745 83.8689 24.2287L74.5579 36.3713C74.3422 36.6513 74.065 36.8778 73.7476 37.0332C73.4302 37.1886 73.0813 37.2687 72.7279 37.2674L72.7287 37.2719Z" fill="white"/>
<path d="M512.364 145.397H271.649C270.467 145.396 269.334 144.926 268.498 144.09C267.662 143.254 267.192 142.121 267.191 140.939V81.2221C267.192 80.0402 267.662 78.9071 268.498 78.0713C269.334 77.2356 270.467 76.7655 271.649 76.764H512.364C513.546 76.7655 514.679 77.2356 515.514 78.0713C516.35 78.9071 516.82 80.0402 516.821 81.2221V140.939C516.82 142.121 516.35 143.254 515.514 144.09C514.679 144.926 513.546 145.396 512.364 145.397ZM271.649 78.5477C270.939 78.5485 270.259 78.8306 269.758 79.3321C269.257 79.8336 268.974 80.5136 268.974 81.2228V140.94C268.974 141.649 269.256 142.329 269.758 142.831C270.259 143.332 270.939 143.614 271.649 143.615H512.364C513.073 143.614 513.753 143.332 514.255 142.831C514.756 142.329 515.038 141.649 515.039 140.94V81.2221C515.038 80.5128 514.756 79.8327 514.255 79.3311C513.753 78.8296 513.073 78.5475 512.364 78.5469L271.649 78.5477Z" fill="#E6E6E6"/>
<path d="M350.988 96.6819C350.186 96.6819 349.416 97.0008 348.848 97.5684C348.281 98.136 347.962 98.9059 347.962 99.7086C347.962 100.511 348.281 101.281 348.848 101.849C349.416 102.416 350.186 102.735 350.988 102.735H493.66C494.462 102.735 495.232 102.416 495.8 101.849C496.367 101.281 496.686 100.511 496.686 99.7086C496.686 98.9059 496.367 98.136 495.8 97.5684C495.232 97.0008 494.462 96.6819 493.66 96.6819H350.988Z" fill="#E6E6E6"/>
<path d="M350.988 114.843C350.186 114.843 349.416 115.162 348.848 115.729C348.281 116.297 347.962 117.067 347.962 117.869C347.962 118.672 348.281 119.442 348.848 120.01C349.416 120.577 350.186 120.896 350.988 120.896H412.38C413.183 120.896 413.952 120.577 414.52 120.01C415.088 119.442 415.406 118.672 415.406 117.869C415.406 117.067 415.088 116.297 414.52 115.729C413.952 115.162 413.183 114.843 412.38 114.843H350.988Z" fill="#E6E6E6"/>
<path d="M309.222 126.811C319.25 126.811 327.38 118.681 327.38 108.651C327.38 98.6218 319.25 90.4912 309.222 90.4912C299.193 90.4912 291.063 98.6218 291.063 108.651C291.063 118.681 299.193 126.811 309.222 126.811Z" fill="#E6E6E6"/>
<path d="M306.368 118.744C305.758 118.745 305.164 118.548 304.676 118.181L304.645 118.158L298.272 113.283C297.676 112.825 297.285 112.15 297.186 111.405C297.088 110.66 297.289 109.906 297.746 109.309C298.203 108.713 298.878 108.322 299.623 108.224C300.368 108.125 301.122 108.326 301.719 108.783L305.847 111.949L315.602 99.2213C316.059 98.6255 316.733 98.2355 317.478 98.1371C318.222 98.0387 318.975 98.24 319.571 98.6966L319.51 98.7805L319.573 98.6966C320.168 99.1541 320.558 99.829 320.656 100.573C320.754 101.318 320.553 102.07 320.097 102.667L308.623 117.639C308.358 117.984 308.017 118.263 307.626 118.454C307.235 118.646 306.806 118.745 306.371 118.743L306.368 118.744Z" fill="#6C63FF"/>
<path d="M512.364 255.745H271.649C270.467 255.744 269.334 255.274 268.498 254.438C267.662 253.602 267.192 252.469 267.191 251.287V191.57C267.192 190.389 267.662 189.255 268.498 188.42C269.334 187.584 270.467 187.114 271.649 187.112H512.364C513.546 187.114 514.679 187.584 515.514 188.42C516.35 189.255 516.82 190.389 516.821 191.57V251.287C516.82 252.469 516.35 253.602 515.514 254.438C514.679 255.274 513.546 255.744 512.364 255.745ZM271.649 188.896C270.939 188.897 270.259 189.179 269.758 189.68C269.257 190.182 268.974 190.862 268.974 191.571V251.288C268.974 251.998 269.256 252.678 269.758 253.179C270.259 253.681 270.939 253.963 271.649 253.963H512.364C513.073 253.963 513.753 253.681 514.255 253.179C514.756 252.678 515.038 251.998 515.039 251.288V191.57C515.038 190.861 514.756 190.181 514.255 189.679C513.753 189.178 513.073 188.896 512.364 188.895L271.649 188.896Z" fill="#E6E6E6"/>
<path d="M350.988 207.03C350.186 207.03 349.416 207.349 348.848 207.917C348.281 208.484 347.962 209.254 347.962 210.057C347.962 210.86 348.281 211.629 348.848 212.197C349.416 212.765 350.186 213.084 350.988 213.084H493.66C494.462 213.084 495.232 212.765 495.8 212.197C496.367 211.629 496.686 210.86 496.686 210.057C496.686 209.254 496.367 208.484 495.8 207.917C495.232 207.349 494.462 207.03 493.66 207.03H350.988Z" fill="#E6E6E6"/>
<path d="M350.988 225.191C350.186 225.191 349.416 225.51 348.848 226.078C348.281 226.645 347.962 227.415 347.962 228.218C347.962 229.021 348.281 229.79 348.848 230.358C349.416 230.926 350.186 231.244 350.988 231.244H412.38C413.183 231.244 413.952 230.926 414.52 230.358C415.088 229.79 415.406 229.021 415.406 228.218C415.406 227.415 415.088 226.645 414.52 226.078C413.952 225.51 413.183 225.191 412.38 225.191H350.988Z" fill="#E6E6E6"/>
<path d="M313.38 219C313.38 221.299 311.517 223.16 309.222 223.16C306.927 223.16 305.063 221.299 305.063 219C305.063 216.701 306.927 214.84 309.222 214.84C311.517 214.84 313.38 216.701 313.38 219Z" stroke="#E6E6E6" stroke-width="28"/>
<path d="M481.573 149.433C482.1 149.674 482.606 149.956 483.088 150.278L531.243 129.723L532.961 117.037L552.203 116.919L551.066 146.017L487.506 162.83C487.372 163.272 487.211 163.704 487.025 164.126C486.106 166.087 484.628 167.733 482.777 168.857C480.925 169.981 478.783 170.532 476.62 170.443C474.456 170.353 472.367 169.626 470.615 168.353C468.863 167.079 467.527 165.317 466.773 163.287C466.02 161.256 465.883 159.049 466.38 156.941C466.877 154.833 467.985 152.919 469.566 151.439C471.147 149.959 473.13 148.979 475.266 148.623C477.402 148.266 479.596 148.549 481.572 149.435L481.573 149.433Z" fill="#FEB8B8"/>
<path d="M559.2 413.104H546.037L539.776 362.328H559.202L559.2 413.104Z" fill="#FEB8B8"/>
<path d="M536.636 409.343H562.021V425.323H520.652C520.652 421.083 522.336 417.017 525.334 414.02C528.331 411.022 532.397 409.338 536.636 409.338V409.343Z" fill="#777777"/>
<path d="M610.392 409.385L597.294 410.674L586.085 360.757L605.419 358.857L610.392 409.385Z" fill="#FEB8B8"/>
<path d="M587.56 407.857L612.819 405.368L614.385 421.274L573.224 425.328C572.809 421.11 574.085 416.9 576.774 413.624C579.462 410.347 583.342 408.273 587.56 407.857Z" fill="#777777"/>
<path d="M562.864 63.1805C577.428 63.1805 589.234 51.3731 589.234 36.8081C589.234 22.243 577.428 10.4357 562.864 10.4357C548.301 10.4357 536.495 22.243 536.495 36.8081C536.495 51.3731 548.301 63.1805 562.864 63.1805Z" fill="#FEB8B8"/>
<path d="M543.096 402.835C541.964 402.837 540.868 402.44 540.001 401.713C539.134 400.986 538.551 399.977 538.355 398.862C531.547 361.046 509.272 237.369 508.739 233.94C508.727 233.861 508.722 233.782 508.722 233.702V224.479C508.721 224.144 508.826 223.816 509.022 223.543L511.963 219.425C512.103 219.227 512.287 219.063 512.5 218.947C512.713 218.83 512.949 218.765 513.192 218.754C529.967 217.968 584.895 215.662 587.548 218.978C590.213 222.307 589.266 232.408 589.051 234.398L589.062 234.605L613.741 392.446C613.935 393.705 613.624 394.989 612.877 396.021C612.131 397.053 611.007 397.749 609.751 397.959L594.338 400.499C593.19 400.683 592.014 400.449 591.024 399.84C590.033 399.23 589.295 398.286 588.942 397.177C584.175 381.943 568.19 330.693 562.65 310.861C562.62 310.73 562.542 310.615 562.431 310.54C562.32 310.464 562.185 310.432 562.053 310.452C561.92 310.471 561.799 310.539 561.715 310.643C561.63 310.747 561.588 310.88 561.596 311.013C561.873 329.918 562.542 378.148 562.778 394.807L562.802 396.601C562.812 397.816 562.366 398.99 561.553 399.892C560.739 400.793 559.617 401.357 558.408 401.472L543.545 402.818C543.396 402.831 543.246 402.837 543.096 402.835Z" fill="#7858A6"/>
<path d="M546.129 73.5508C541.527 76.287 538.773 81.3139 537.193 86.4385C534.268 95.9103 532.507 105.703 531.949 115.601L530.279 145.234L509.605 223.802C527.524 238.964 537.858 235.517 561.978 223.115C586.099 210.713 588.854 227.25 588.854 227.25L593.677 160.4L600.568 87.3498C599.021 85.4871 597.27 83.8037 595.348 82.3312C588.979 77.3769 581.568 73.933 573.675 72.2589C565.782 70.5849 557.611 70.7244 549.78 72.667L546.129 73.5508Z" fill="#FF725E"/>
<path d="M539.414 165.3C539.97 165.508 540.508 165.759 541.025 166.052L588.641 142.214L589.431 129.302L609.072 127.947L610.125 157.383L546.493 178.43C545.974 180.66 544.788 182.679 543.094 184.219C541.399 185.758 539.276 186.745 537.007 187.048C534.738 187.352 532.43 186.957 530.39 185.916C528.351 184.875 526.677 183.238 525.591 181.223C524.505 179.207 524.058 176.909 524.31 174.633C524.562 172.357 525.5 170.212 527.001 168.483C528.502 166.754 530.494 165.523 532.711 164.954C534.929 164.384 537.267 164.504 539.415 165.296L539.414 165.3Z" fill="#FEB8B8"/>
<path d="M600.225 87.6792C611.939 91.8139 614.004 136.615 614.004 136.615C600.222 129.034 583.683 141.439 583.683 141.439C583.683 141.439 580.238 129.722 576.103 114.561C574.855 110.296 574.705 105.785 575.669 101.447C576.633 97.1087 578.678 93.0851 581.615 89.7503C581.615 89.7503 588.509 83.5421 600.225 87.6792Z" fill="#AA6550"/>
<path d="M586.504 43.7804C583.219 41.1518 578.737 45.9278 578.737 45.9278L576.108 22.2756C576.108 22.2756 559.682 24.2438 549.166 21.6182C538.65 18.9927 537.009 31.1505 537.009 31.1505C536.467 26.2406 536.357 21.2925 536.681 16.3633C537.338 10.4487 545.88 4.53412 560.993 0.590809C576.107 -3.3525 583.992 13.7347 583.992 13.7347C594.511 18.9881 589.794 46.412 586.504 43.7804Z" fill="#2F2E41"/>
</svg>
