<svg width="647" height="230" viewBox="0 0 647 230" fill="none" xmlns="http://www.w3.org/2000/svg">
<path d="M11 111.074L11.2463 111.272L11.4927 111.411L11.6159 111.791L11.739 111.854L11.8622 112.066L11.9854 112.064L12.1086 112.153L12.4781 111.864L13.2172 112.345L13.5867 111.846L13.833 111.8L13.9562 111.846L14.2026 111.72L14.4489 111.634L14.6953 111.773L15.3111 112.792L15.5575 113.268L16.0502 114.083L16.1734 114.043L16.4197 113.79L16.5429 113.731L16.9124 114.245L17.0356 114.523L17.2819 114.405L17.4051 114.475L17.7746 114.296L18.021 113.892L18.1442 113.836L18.3905 113.496L18.5137 113.412L18.7601 113.615L19.1296 113.472L19.2528 113.532L20.115 112.894L20.4845 112.939L20.854 112.986L21.1004 112.761L21.4699 113.398L21.5931 113.711L21.9626 115.023L22.8248 118.204L23.0712 118.433L23.1944 118.412L23.3175 118.495L24.0566 122.562L24.4261 123.347L24.7956 125.028L24.9188 125.211L25.1652 125.736L25.2883 125.697L26.0274 126.874L26.2737 126.889L26.8896 126.147L27.2591 125.768L27.3823 125.871L27.7519 125.33L27.875 124.925L27.9982 124.9L28.1214 124.704L28.2446 124.756L28.6141 124.505L28.7373 124.734L28.8604 125.141L29.1068 125.066L29.23 124.92L29.4763 125.067L29.5995 125.512L29.8458 127.113L29.969 127.386L30.3385 128.795L30.7081 129.595L30.8312 129.88L31.3239 131.703L31.4471 132.096L31.5703 131.873L31.8166 131.275L31.9398 131.28L32.1862 131.775L32.5557 132.056L32.9252 131.923L33.0484 131.626L33.7874 126.717L33.9106 126.179L34.0338 126.35L34.157 126.238L34.2801 126.441L34.5265 125.386L34.7728 124.578L34.896 124.953L35.0192 124.833L35.2655 124.285L35.3887 124.292L35.8814 126.274L36.0046 126.545L36.4973 128.684L36.6205 128.667L36.99 128.135L37.2364 128.003L37.4827 127.184L37.6059 127.173L37.8522 126.819L37.9754 126.953L38.2218 126.756L38.7145 125.559L38.9608 124.151L39.4535 123.277L39.823 122.388L40.0694 121.831L40.5621 120.174L41.4243 117.587L41.6707 118.202L41.917 117.83L42.0402 117.51L42.2865 117.388L42.4097 117.189L42.5329 116.683L42.7792 115.035L43.0256 114.104L43.2719 113.275L44.1342 108.328L44.2573 108.292L44.3805 108.378L44.8732 109.916L45.2428 110.311L45.6123 109.427L46.3513 107.528L46.5977 107.224L46.7209 106.904L46.9672 105.773L47.0904 106.039L47.8294 103.321L47.9526 103.379L48.199 102.76L48.4453 102.219L48.5685 102.002L48.938 100.892L49.8002 98.7005L50.0466 98.617L50.4161 97.8936L50.5393 97.775L50.9088 98.5727L51.1552 98.0839L51.5247 97.2001L51.8942 95.8922L52.1406 95.4716L52.2637 95.6374L52.5101 95.6057L52.7564 95.7625L53.0028 95.781L53.3723 95.3427L53.4955 95.2269L53.9882 93.9123L54.2346 93.4661L54.3577 92.9361L54.7273 92.7074L54.9736 92.993L55.0968 93.2466L56.6981 91.8296L57.4371 90.4093L57.9298 88.8897L58.4225 87.6839L58.792 87.2827L58.9152 87.4699L59.0384 87.2902L59.2847 87.3481L59.5311 87.726L59.9006 87.6578L60.0238 88.0243L60.147 88.0296L60.7628 87.1747L60.886 87.1922L61.3787 86.37L61.5019 86.2009L61.6251 86.2835L61.7482 86.2526L61.8714 86.5354L62.1178 86.6248L62.98 87.9026L63.2264 87.9761L63.7191 88.6591L63.9654 88.5789L64.8276 87.8666L65.074 87.841L65.1972 87.9128L65.4435 88.3701L65.6899 88.6462L65.9362 89.1019L66.1826 89.5334L66.3057 89.5817L66.9216 89.0979L67.5375 87.9039L67.6607 87.8405L67.7838 87.9313L68.3997 87.7516L68.5229 87.6711L69.0156 87.0297L69.2619 86.9786L69.7546 86.5974L70.1242 85.8809L70.3705 85.6819L70.4937 85.5804L72.095 81.5608L72.3413 80.607L72.4645 80.6437L72.5877 80.4134L73.3267 77.6776L73.4499 78.4581L74.189 85.7279L74.3121 85.7217L74.5585 86.6956L74.6817 86.556L74.8048 86.2505L75.0512 86.4821L75.1744 86.6542L75.2975 87.1956L75.4207 87.2527L75.6671 86.7198L75.7902 86.7171L76.2829 85.665L76.4061 85.8205L76.7756 84.5807L77.1452 84.4395L77.2683 84.6276L77.761 84.0608L78.0074 83.7056L78.2538 84.3321L78.5001 84.5611L78.7465 84.3999L78.9928 83.3285L79.3623 81.0799L79.6087 79.5492L79.7318 79.1573L79.855 79.3507L79.9782 79.3528L80.1014 79.2115L80.2245 79.2238L80.3477 79.3474L80.4709 79.7363L80.8404 80.08L80.9636 79.8223L81.0868 79.8698L81.3331 80.2503L81.4563 80.2455L81.8258 79.552L82.0722 79.0434L82.4417 78.3751L82.5649 78.3326L82.6881 78.1154L82.9344 77.3459L83.0576 77.4307L83.6735 76.1434L84.043 76.0355L84.4125 75.2695L84.5357 75.1899L85.0284 75.6461L85.1516 75.8222L85.2747 75.7347L85.5211 75.2078L85.6443 74.8815L86.0138 74.7927L88.2309 72.2305L88.8468 71.5427L89.0932 71.2621L89.5859 70.7923L89.9554 69.6611L90.0786 69.5008L90.2018 69.4859L90.3249 69.6718L90.6945 70.6653L91.1872 71.438L91.4335 72.9264L91.6799 73.3801L91.803 73.6623L92.0494 74.6454L92.1726 74.9334L92.2957 74.9598L92.4189 75.0887L92.5421 74.9471L92.6653 75.114L92.7884 75.0647L93.158 75.2602L93.2811 75.1375L93.5275 75.1064L94.0202 74.0205L94.3897 73.4947L94.6361 72.9959L95.0056 72.6313L95.2519 72.7628L95.3751 72.7933L95.991 72.1759L96.4837 70.6133L96.8532 70.0049L97.0996 70.4826L97.4691 71.372L97.9618 70.5664L98.3313 71.9348L98.5777 72.579L98.7009 72.5309L98.9472 72.7899L99.0704 72.5506L99.1936 72.5112L99.5631 72.9717L99.6863 72.7827L99.8094 72.8145L99.9326 72.9745L100.056 72.9935L100.179 73.1609L100.425 72.7829L101.288 73.5807L101.657 74.3259L102.396 74.5414L102.766 74.2182L102.889 73.8643L103.135 73.659L103.751 72.9061L103.874 72.8397L104.49 72.9733L104.613 72.8764L105.476 73.7299L105.722 73.6072L105.845 73.6799L106.338 74.6247L107.077 74.4799L107.323 74.4826L107.569 75.3415L107.693 75.6759L107.939 75.4918L108.309 74.5753L109.048 73.2506L109.663 71.8545L109.91 71.2627L111.018 68.332L111.511 67.3648L111.634 67.4054L112.25 67.1116L112.62 68.4566L112.866 68.9542L113.728 70.5372L113.851 70.7235L114.098 71.8938L114.467 73.9506L114.714 74.4439L114.837 74.5403L114.96 74.863L115.083 74.933L115.33 74.6988L115.453 74.5673L115.945 73.4177L116.069 73.3268L116.192 73.1118L116.438 72.967L116.684 72.5844L117.67 70.6101L119.025 66.3845L119.148 66.2771L119.517 65.0452L119.764 63.918L120.749 58.4584L121.242 55.6142L121.365 55.3815L121.488 55.3736L122.227 58.2899L122.351 58.3629L122.966 55.9709L123.09 55.9551L123.213 56.1356L123.459 56.8482L123.582 57.1136L124.075 59.3304L124.445 60.2886L124.568 60.7941L124.814 61.0796L124.937 61.4724L125.184 61.0905L125.676 59.2769L126.046 58.2489L126.538 56.547L126.662 56.6058L126.785 56.9562L127.154 59.1893L127.401 59.4581L127.647 59.2434L128.017 58.1245L128.14 58.1498L128.386 57.933L128.509 58.0201L129.002 58.768L129.125 58.649L129.372 58.6416L129.987 58.2045L130.726 55.2224L130.973 54.2718L131.096 54.0322L131.342 54.475L131.465 54.5991L131.958 54.4967L132.205 53.9794L132.451 54.5701L132.574 54.4164L132.944 54.6353L133.067 54.511L133.19 54.2365L133.559 54.1652L134.299 55.47L134.545 55.0479L134.791 54.3779L135.038 54.1691L135.284 54.4284L135.407 54.6838L135.653 54.6561L136.023 55.249L136.269 55.5696L136.516 56.4232L136.639 56.6985L136.762 56.6911L136.885 56.5041L137.008 56.5032L137.501 58.5226L137.871 59.4688L138.117 59.9223L138.24 60.4252L138.363 60.4402L138.979 60.0641L139.226 60.0132L139.349 60.0583L139.595 59.7848L139.841 59.6785L139.965 59.5621L140.088 59.3125L140.211 59.349L140.334 59.2404L140.704 58.3695L141.196 58.5836L141.566 58.993L141.935 58.5425L142.059 58.2503L142.305 57.2966L142.674 56.8845L143.044 57.3568L143.167 57.3766L143.537 57.7895L143.66 57.7445L143.783 57.5371L144.029 57.5068L144.276 57.4823L144.645 57.7773L144.768 57.6011L144.892 57.7032L145.015 58.0592L145.138 58.1576L145.261 58.1271L145.384 58.2088L145.508 58.0735L145.631 58.0652L145.754 58.1644L146.123 58.8346L146.37 58.6037L146.493 58.321L146.616 58.5511L146.986 58.2624L147.601 57.8886L147.971 57.8013L148.217 57.7298L148.464 58.1266L148.587 57.9987L149.08 58.6338L149.449 58.5875L149.572 58.7668L149.819 58.7958L150.065 58.8793L150.188 58.8156L150.558 58.3057L151.05 58.8783L151.174 58.6368L151.543 57.288L151.789 56.7434L151.913 56.5223L152.159 56.4291L152.528 55.8375L152.652 55.8729L153.144 56.4119L153.76 55.8458L153.883 55.8786L154.253 56.2833L154.746 55.9427L154.992 56.4343L155.115 56.5465L155.238 57.0673L155.362 57.1985L155.608 57.6528L155.854 57.9586L156.347 59.627L156.47 59.6502L156.593 59.5699L156.716 59.6507L157.086 59.4804L157.948 59.5609L158.564 59.1183L158.687 59.1063L159.303 58.2631L159.549 57.8174L159.673 57.7215L160.042 60.1375L160.289 60.4826L160.535 60.5063L160.658 60.4548L160.781 60.5204L161.028 60.415L161.767 60.5687L162.259 61.3078L162.752 61.2613L162.998 60.7994L163.245 60.5755L163.491 61.1469L163.861 62.1141L164.23 62.2982L164.353 62.2917L164.6 61.9739L164.723 62.2028L164.846 62.248L164.969 62.9441L165.339 65.9519L165.708 67.4006L165.831 67.3209L165.955 67.1273L166.078 67.1212L166.57 68.1916L166.817 68.1804L167.063 67.6029L167.31 67.0331L167.556 65.8221L167.679 65.8911L167.802 66.1312L168.049 65.341L168.172 65.1375L168.295 65.2897L168.788 67.2915L169.034 68.5283L169.157 68.9462L169.28 69.0197L169.527 69.6604L169.65 69.6925L169.773 69.6092L169.896 69.7767L170.143 70.81L170.389 71.189L170.512 71.1879L170.635 71.2903L170.758 70.9532L170.882 70.9361L171.005 71.0964L171.128 70.9022L171.497 71.1826L171.744 72.604L172.36 75.6959L172.976 78.3922L173.222 78.6528L173.345 78.6267L173.468 78.764L173.591 78.5024L173.715 78.4474L173.961 78.4867L174.577 77.248L175.316 75.1484L175.562 75.1535L175.932 75.7058L176.055 75.906L176.425 77.0163L176.548 77.182L176.671 77.1897L176.917 76.9103L177.164 76.4301L177.41 76.1765L177.533 76.4182L177.779 77.4736L177.903 77.5814L178.026 77.5411L178.272 77.7059L178.518 78.4379L178.765 78.7571L179.381 81.0526L179.504 80.9915L179.75 80.3089L179.873 79.9029L180.243 80.1649L180.489 80.5833L180.612 80.6091L180.736 80.7335L180.982 80.4091L181.228 79.7692L181.352 79.9034L181.844 81.4644L181.967 81.8481L182.337 85.3745L182.583 86.8557L183.445 88.1834L184.061 88.0546L184.185 88.2205L184.308 88.1555L184.8 88.5921L184.924 88.5686L185.17 88.9751L185.663 89.1014L185.909 89.3636L186.279 88.7356L186.525 88.9383L186.648 89.0003L187.018 89.5799L187.141 89.6209L187.51 89.0136L187.633 89.1217L187.88 89.0355L188.003 89.003L188.126 89.1549L188.249 89.5693L188.373 89.6626L188.865 92.1715L189.112 92.9783L189.481 92.9051L189.727 92.8798L189.851 92.7471L189.974 92.846L190.713 91.2115L190.836 91.2107L190.959 91.3309L191.575 93.6507L191.821 93.9361L191.945 93.9288L192.068 94.1403L192.437 95.7426L192.93 97.1048L193.546 97.4474L194.285 98.3258L194.654 98.2211L194.778 98.0824L194.901 97.795L195.024 97.9028L195.147 98.2443L195.517 98.3937L195.64 98.7177L195.886 98.5382L196.009 98.0706L196.256 97.8457L196.379 97.7211L196.748 96.6988L196.995 96.4992L197.118 96.4602L197.241 96.6029L197.364 96.5895L197.487 96.4757L197.611 96.4964L198.103 96.0653L198.227 96.3053L198.35 96.3471L198.473 96.5153L198.966 97.9576L199.212 98.273L199.458 98.8945L199.705 99.3903L199.951 100.053L200.321 100.252L200.444 100.369L200.69 100.285L200.813 99.9618L200.936 99.9641L201.183 99.789L201.429 99.3936L201.552 99.388L201.799 99.0311L201.922 99.0329L202.168 98.7808L202.907 98.6946L203.03 98.5123L203.154 98.5398L203.4 98.432L203.769 98.5378L204.139 97.9263L204.262 97.8674L204.385 98.1579L204.632 99.9227L205.001 102.191L205.248 102.667L205.371 102.437L205.617 102.464L205.74 102.521L205.863 102.393L206.11 102.611L206.356 103.277L206.849 104.071L207.095 104.706L207.465 104.978L207.588 105.509L207.957 109.116L208.327 113.488L208.573 114.562L208.696 114.771L208.943 114.818L209.066 115.049L209.189 115.502L209.436 116.786L209.805 117.67L209.928 117.982L210.051 117.966L210.421 116.723L210.544 116.937L210.914 118.189L211.037 118.256L211.16 118.153L211.283 118.31L211.529 118.783L211.776 118.611L211.899 118.751L212.022 119.044L212.515 121.35L212.638 121.175L212.884 121.456L213.008 121.458L213.254 121.176L214.116 119.295L214.486 118.154L214.609 118.075L214.732 117.656L214.855 117.688L215.102 116.603L215.225 116.137L215.348 116L215.594 115.299L215.841 114.454L215.964 114.259L216.21 114.761L216.457 114.54L216.58 114.602L216.703 115.037L216.949 116.135L217.072 116.53L217.196 116.633L217.319 117.235L217.442 116.997L217.565 116.969L217.688 116.763L217.935 116.618L218.304 115.887L218.427 116.687L218.674 116.726L218.797 116.774L218.92 117.29L219.29 117.576L219.536 118.397L219.659 118.571L220.275 120.105L220.521 120.137L220.644 120.425L220.891 120.29L221.014 120.349L221.137 120.519L221.384 121.015L221.63 121.286L221.876 121.403L222.369 120.413L223.601 116.327L223.847 115.694L223.97 115.572L224.217 115.888L224.586 117.017L224.832 117.542L225.079 117.704L225.202 117.738L225.325 117.912L225.941 117.863L226.434 117.178L226.68 117.406L226.803 117.469L227.05 117.786L227.173 117.826L227.296 117.706L227.542 117.656L227.665 117.823L227.912 118.544L228.035 118.702L228.158 118.665L228.281 118.518L228.528 118.638L228.897 119.938L229.144 121.061L229.267 121.267L229.636 122.239L230.006 122.793L230.375 123.125L230.622 123.061L230.745 123.227L230.868 123.232L231.114 124.419L231.238 124.545L231.361 124.43L231.853 124.502L232.469 123.629L232.962 123.023L233.455 122.48L233.824 123.645L234.194 123.692L234.317 123.788L234.81 124.957L235.056 125.68L235.179 125.706L235.426 126.052L235.672 126.734L236.657 125.675L237.027 125.936L237.15 125.922L237.273 126.1L237.519 125.774L237.766 125.904L238.012 125.956L238.135 125.975L238.505 126.379L239.244 128.161L239.49 128.387L239.613 128.28L240.229 128.679L240.476 129.257L240.722 129.909L240.968 130.532L241.338 131.522L241.707 132.445L241.954 133.007L242.446 134.181L242.693 134.902L242.939 134.696L243.062 134.36L243.186 134.322L244.54 131.895L244.664 131.933L244.787 131.864L244.91 131.979L245.033 131.952L245.28 132.169L245.526 132.153L246.634 130.544L247.004 129.845L247.25 129.441L247.62 129.205L247.866 129.713L248.359 129.588L248.605 129.328L248.852 129.203L248.975 129.422L249.837 126.955L250.083 126.719L250.33 125.903L250.453 125.812L251.069 132.517L251.561 133.457L251.685 133.387L251.808 133.421L252.301 133.058L252.547 132.871L252.67 133.111L252.793 133.06L252.916 133.131L253.163 133.787L253.779 137.627L254.395 142.788L254.641 144.111L254.887 144.643L255.134 145.171L255.257 145.065L255.38 145.1L255.503 145.447L255.749 145.654L255.873 145.426L256.119 144.309L256.365 145.185L256.488 145.058L256.858 145.49L256.981 145.45L257.228 144.891L257.351 144.999L257.597 146.45L258.336 151.309L258.952 152.735L259.075 152.559L259.322 152.479L259.691 153.542L259.937 153.561L260.184 153.075L260.307 152.805L260.43 152.992L260.676 154.129L261.169 155.859L261.785 160.115L261.908 160.287L262.155 161.452L262.401 162.225L262.524 162.896L262.647 162.994L262.77 162.896L262.894 162.92L263.14 162.476L263.386 161.474L263.633 161.089L264.002 161.542L264.372 161.75L264.495 161.724L264.618 161.841L264.741 161.827L264.988 161.346L265.357 160.1L265.603 159.476L265.973 161.161L266.219 161.635L266.343 161.734L266.712 161.708L267.205 162.691L267.451 162.172L267.697 161.814L267.821 161.644L267.944 161.737L269.052 165.016L269.299 165.374L270.284 167.75L270.654 169.59L271.27 171.059L271.885 172.87L272.255 173.005L272.624 173.105L272.994 173.477L273.24 174.952L273.364 174.769L273.487 174.767L273.733 175.147L274.103 174.946L274.226 175.091L274.718 176.76L274.842 176.826L275.088 177.359L275.458 177.751L275.581 177.885L275.704 178.172L275.827 179.712L276.073 180.443L276.32 181.61L277.182 183.068L277.675 184.515L277.798 184.671L278.291 184.219L278.66 184.506L278.783 184.392L278.906 184.531L279.153 185.48L279.522 186.905L279.645 187.255L280.015 187.019L280.385 187.278L280.631 187.067L280.754 187.162L281.247 187.909L281.37 187.942L281.493 187.544L281.739 188.011L281.863 188.061L282.478 187.315L282.725 187.317L282.971 187.501L283.094 187.409L283.341 186.998L283.587 187.008L284.449 188.764L284.572 188.912L284.819 188.869L285.065 188.992L285.558 188.345L286.174 190.485L286.42 190.809L286.666 191.511L286.913 192.314L287.036 192.559L287.406 192.487L287.898 192.753L288.145 193.228L288.268 193.33L288.391 193.565L288.514 193.597L289.376 195.337L289.499 195.522L290.978 199.498L291.224 200.039L291.963 203.106L292.579 205.017L292.702 205.061L292.948 205.475L293.072 205.486L293.195 205.394L293.441 205.438L293.564 205.187L293.934 205.374L294.057 205.313L294.18 205.121L294.426 204.657L294.919 204.238L295.658 202.717L296.397 200.433L296.767 199.178L296.89 198.88L297.013 199.061L297.26 199.056L297.629 197.494L297.752 197.316L297.875 197.413L298.122 198.938L298.614 203.328L298.738 203.972L298.861 203.971L298.984 203.848L299.107 204.097L299.354 204.165L299.477 204.369L299.6 204.18L299.846 205.263L299.969 205.265L300.339 207.129L300.585 206.888L300.832 205.75L300.955 205.543L301.201 205.581L301.324 204.731L301.447 204.48L301.694 204.661L301.817 204.391L302.187 205.101L302.31 205.071L302.433 205.265L302.556 205.261L302.679 205.364L302.802 205.335L303.049 205.64L303.418 204.441L303.911 204.761L304.034 205.44L304.527 206.102L304.896 207.572L305.02 207.555L305.389 207.815L305.635 207.878L305.759 208.364L305.882 207.865L306.005 208.046L306.128 207.885L306.744 205.989L306.867 206.271L307.114 207.223L307.237 207.316L307.483 206.96L307.606 206.651L307.853 206.768L307.976 207.111L308.099 206.849L308.345 206.032L308.468 206.071L308.592 205.914L308.715 205.934L308.961 206.298L309.084 205.986L309.331 206.129L309.577 206.841L309.7 206.918L309.823 206.863L309.947 206.556L310.193 206.736L310.439 206.651L310.686 206.154L310.932 206.058L311.055 206.205L311.178 205.961L311.425 204.577L311.548 204.522L311.671 204.257L311.794 204.305L311.917 204.647L312.164 206.11L312.287 206.237L312.41 206.171L312.533 205.988L313.642 202.72L314.381 199.986L314.75 199.228L314.997 198.734L316.352 194.278L316.721 193.616L316.844 193.254L316.968 193.203L317.46 194.107L317.583 194.294L317.707 194.648L317.83 194.699L317.953 194.574L318.199 194.036L318.323 193.773L318.446 193.77L318.569 193.882L319.062 195.635L319.431 196.204L321.032 193.743L321.648 193.692L321.771 193.677L322.018 193.811L322.264 193.291L322.51 192.503L322.634 192.277L323.003 191.292L323.373 190.245L323.619 189.31L323.742 189.086L323.989 189.03L324.358 188.53L324.974 187.829L325.097 187.737L325.22 187.334L325.343 187.332L325.467 187.476L325.59 187.339L325.713 187.386L326.206 186.234L326.329 186.04L326.452 186.131L326.822 185.781L326.945 185.712L327.068 185.483L327.191 185.452L327.314 185.547L327.561 185.802L327.684 185.68L327.93 185.123L328.177 185.651L328.546 185.844L328.916 185.639L329.408 184.584L329.655 184.59L330.024 184.448L330.271 184.73L330.64 184.65L330.763 184.36L331.256 184.332L331.625 183.738L331.749 183.799L332.118 183.419L332.241 183.366L332.364 183.485L332.611 183.996L332.857 184.036L333.473 185.114L333.719 185.003L333.966 184.64L334.089 184.346L334.212 184.552L334.335 184.496L334.458 184.575L334.705 184.599L334.828 184.747L334.951 184.728L335.321 184.347L335.69 184.499L336.06 185.672L336.183 185.72L336.429 185.991L336.676 186.048L336.799 186.231L336.922 186.25L337.168 186.166L337.292 186.258L337.415 186.144L337.661 185.407L337.784 185.179L337.907 185.144L338.277 185.329L338.646 186.139L338.77 186.109L338.893 185.901L339.016 185.51L339.139 185.677L339.386 186.608L339.509 186.535L339.755 185.921L339.878 185.952L340.125 186.532L340.248 186.672L340.371 187.196L340.494 187.045L340.617 187.212L340.74 186.887L340.987 188.049L341.233 189.954L341.48 190.297L341.603 190.395L341.726 190.227L341.849 190.41L342.342 192.045L342.711 192.731L342.834 192.722L343.204 191.353L343.327 191.131L343.45 191.136L343.573 191.452L343.697 192.108L343.82 192.252L343.943 191.892L344.066 192.177L344.189 192.128L344.313 191.806L344.436 191.733L344.805 190.597L345.298 187.339L345.544 185.455L345.914 182.247L346.16 181.015L346.407 180.529L346.653 180.21L347.022 180.927L347.269 181.622L347.392 181.586L347.885 183.023L348.501 186.232L348.624 186.181L348.747 186.031L349.116 186.683L349.24 186.671L349.363 186.996L349.486 187.047L349.609 186.683L349.855 187.448L350.102 187.69L350.225 187.819L350.718 187.623L350.841 187.614L351.949 183.024L352.196 181.945L352.319 181.549L352.565 180.323L352.688 180.181L352.935 179.314L353.058 179.185L353.181 178.885L353.304 178.809L353.428 178.921L353.674 179.794L353.797 179.89L354.043 180.179L354.29 180.676L354.659 181.765L354.906 182.119L355.029 182.193L355.152 182.103L355.645 182.83L355.768 182.876L356.014 181.824L356.261 181.029L356.63 181.148L356.876 181.57L357.123 181.346L357.246 181.255L357.369 181.306L357.615 180.906L357.739 180.971L357.862 180.61L357.985 180.825L358.108 180.701L358.355 180.921L358.478 180.892L358.601 180.986L358.724 181.196L359.094 181.036L360.079 179.205L360.325 181.317L360.572 181.842L360.941 182.084L361.311 182.951L361.434 182.891L361.557 183.096L361.68 182.971L361.803 183.124L361.927 183.063L362.419 181.382L363.035 180.027L363.282 179.751L364.76 176.18L365.129 175.128L365.376 174.919L365.499 175.136L365.622 175.66L365.991 178.132L366.115 178.135L366.361 177.626L366.73 176.785L366.977 176.546L367.1 176.585L367.346 176.553L367.47 176.632L368.085 176.339L368.332 176.348L368.455 176.292L368.578 176.486L368.701 176.881L369.071 177.053L369.317 176.876L369.44 177.005L369.933 176.713L370.179 175.876L370.426 175.673L370.549 175.742L370.918 175.59L371.042 175.364L371.288 174.757L372.027 174.482L372.643 173.601L372.766 173.174L373.136 172.725L373.259 172.494L373.505 171.649L373.875 171.331L373.998 171.564L374.367 170.955L374.614 170.516L374.86 170.073L374.983 170.048L375.106 170.188L375.353 170.048L375.722 169.591L375.969 169.541L376.092 169.326L376.338 168.523L376.461 168.368L376.831 167.614L376.954 167.456L377.324 166.384L378.555 162.777L379.418 161.096L379.664 160.787L379.91 160.836L380.403 161.577L380.772 161.039L381.635 159.014L382.251 158.279L382.374 158.373L382.743 159.318L383.359 158.107L383.605 157.773L383.852 157.811L384.098 158.43L384.221 158.383L384.345 158.467L384.591 158.435L384.714 158.531L384.96 157.799L385.207 157.75L385.576 156.479L385.823 155.965L386.069 155.394L387.054 152.232L387.178 152.233L387.547 150.883L387.67 150.699L387.917 150.702L388.04 151.139L388.286 150.619L388.532 150.104L388.656 149.967L388.779 149.98L388.902 149.831L389.025 150.246L389.148 151.127L389.272 151.183L389.518 150.919L389.764 151.829L390.134 153.561L390.257 153.582L390.626 154.663L390.75 154.766L391.119 152.715L391.489 150.133L391.735 148.774L391.858 148.384L391.981 148.288L392.228 149.38L392.597 151.125L393.09 153.711L393.213 153.525L393.336 153.576L393.583 155.143L394.199 156.418L394.445 156.49L394.568 156.707L394.814 156.066L394.938 156.177L395.307 157.9L395.43 157.983L395.553 158.319L396.169 160.881L396.293 161.013L396.416 160.969L396.908 159.533L397.155 158.504L397.278 158.433L397.771 158.625L397.894 158.601L398.14 158.277L398.263 158.229L398.879 155.393L399.002 155.665L399.249 155.408L399.495 156.086L399.618 156.143L399.741 156.036L399.865 156.302L400.111 157.064L400.234 156.971L400.357 157.222L400.727 157.319L400.973 157.693L401.22 157.565L401.712 156.511L401.835 156.52L402.082 156.75L402.328 157.446L402.451 157.578L402.574 157.527L402.821 156.633L403.19 156.116L403.437 155.624L403.683 155.129L403.806 155.211L404.053 155.556L404.299 156.931L404.915 157.969L405.161 158.085L405.531 157.794L406.147 156.992L406.886 154.482L407.009 154.393L407.378 153.805L407.501 153.615L407.748 153.847L407.871 153.706L408.117 153.129L408.241 152.954L408.487 152.075L408.61 151.944L408.733 152.055L408.856 152.042L408.98 152.258L409.226 151.649L409.472 151.006L409.842 150.527L409.965 150.463L410.335 149.726L410.704 149.501L411.074 148.699L411.32 148.324L411.443 148.326L411.689 149.38L411.813 149.375L411.936 149.929L412.305 149.88L412.428 149.99L412.552 149.968L412.798 150.046L412.921 149.939L413.414 148.857L413.783 147.999L413.907 147.866L414.03 147.512L414.153 147.458L414.522 146.836L414.769 146.827L415.262 146.404L415.631 145.064L415.877 145.189L416.247 144.491L416.493 144.01L416.74 143.947L416.986 143.534L417.232 143.404L417.479 143.29L417.725 143.193L417.848 143.001L417.971 143.354L418.218 142.996L418.341 143.082L418.587 143.557L418.71 143.53L418.834 143.357L419.08 142.691L419.326 142.914L420.189 141.088L420.435 141.326L420.804 141.428L421.174 141.007L421.297 140.671L421.667 140.788L422.036 141.016L422.529 140.439L422.652 140.378L422.775 140.417L423.022 139.683L423.268 139.526L423.391 139.485L423.514 139.71L423.761 139.711L424.253 140.472L424.376 140.501L424.623 140.112L424.746 139.851L424.869 139.804L425.116 140.056L425.239 140.14L425.485 139.913L425.608 139.948L425.855 140.479L426.101 140.763L426.224 140.616L426.47 140.543L426.594 140.828L426.84 140.669L427.086 140.748L427.333 141.309L427.579 141.912L427.702 141.996L427.825 142.264L428.072 141.882L428.318 141.495L428.564 141.003L428.688 141.087L428.811 141.057L429.304 141.614L429.673 141.138L429.796 140.958L430.043 141.015L430.166 140.827L430.412 140.797L432.013 137.106L432.26 137.14L432.383 137.266L433.491 141.402L433.615 141.447L433.984 142.226L434.231 143.902L434.354 144.268L434.477 144.26L434.6 144.085L435.093 142.951L435.216 142.731L435.339 142.777L435.585 142.093L435.709 141.866L435.955 142.146L436.571 139.806L436.817 138.937L436.94 138.948L437.187 139.441L437.433 138.719L437.556 138.956L437.679 139.395L437.803 139.29L437.926 139.343L438.172 139.786L438.418 140.19L438.542 140.337L438.665 140.148L438.788 139.636L438.911 139.574L439.281 137.927L439.65 136.007L439.773 135.487L440.389 131.232L440.636 129.929L440.882 129.516L441.128 129.688L441.375 129.833L441.621 129.723L441.867 129.487L442.114 129.812L442.237 129.542L442.483 129.788L442.73 129.414L442.976 128.696L443.222 128.161L443.838 126.04L444.331 123.823L444.824 122.839L444.947 122.662L445.316 121.067L446.179 117.833L446.302 117.687L446.425 117.826L446.671 119.207L446.794 119.448L446.918 119.484L447.41 117.412L447.657 117.204L448.273 120.464L449.997 124.424L450.12 124.568L450.366 124.422L450.613 124.405L450.736 124.365L450.859 124.113L451.106 123.055L451.352 122.171L451.845 120.494L451.968 120.262L452.46 118.389L452.584 118.598L452.707 118.569L453.323 117.823L453.569 118.315L453.692 118.639L453.815 118.73L453.939 118.478L454.185 119.394L454.308 119.924L454.678 122.482L455.047 123.026L455.417 123.774L455.54 123.693L455.663 123.842L455.786 124.415L455.909 124.364L456.033 124.199L456.402 124.746L456.648 124.666L456.895 124.504L457.141 124.552L457.264 124.199L457.387 124.149L458.127 121.536L458.25 121.393L458.373 121.048L458.742 121.229L458.866 121.148L459.112 121.319L459.235 121.201L459.851 119.441L460.097 118.776L460.221 118.582L460.467 118.663L460.713 118.213L460.836 118.292L461.822 117.193L461.945 117.699L462.191 117.416L462.314 117.375L462.684 116.933L462.807 117.509L462.93 117.542L463.177 117.461L463.3 117.582L463.546 117.491L464.039 117.972L464.285 117.838L464.408 117.873L465.148 116.409L465.394 116.563L465.517 116.533L465.763 116.709L465.887 116.754L466.133 117.328L466.256 117.915L466.379 117.949L466.872 119.419L467.611 118.59L467.857 117.854L468.596 115.16L468.843 114.514L469.089 114.324L469.582 112.923L469.828 112.642L470.075 111.922L470.567 110.296L470.69 110.305L470.814 110.046L471.06 109.131L471.306 108.612L471.799 108.927L471.922 109.116L472.169 109.653L472.292 109.679L472.661 109.01L472.784 108.855L472.908 108.962L473.154 108.834L473.277 108.678L473.77 107.257L474.263 105.945L474.509 105.461L474.755 104.789L474.878 104.759L475.248 105.044L475.371 105.254L475.617 104.993L476.357 104.218L476.603 104.164L476.849 103.573L476.972 103.217L477.219 103.976L477.342 104.507L477.465 104.62L477.588 105.036L477.711 104.999L477.835 105.313L478.451 110.764L478.82 112.307L478.943 113.071L479.19 114.896L479.313 115.087L479.436 115.12L479.559 115.331L479.682 115.289L479.805 115.591L480.298 117.432L480.544 117.969L480.914 119.043L481.037 119.046L481.407 118.124L481.653 118.846L481.776 118.813L482.146 118.14L482.392 118.957L483.008 121.109L483.254 121.917L483.501 122.363L483.993 124.234L484.24 124.971L484.363 125.22L484.486 125.791L484.609 125.967L484.732 125.962L484.856 126.109L485.225 127.215L485.472 127.739L485.841 129.042L486.087 129.219L486.211 129.081L486.58 129.99L486.703 129.883L486.95 129.475L487.196 128.47L487.442 128.004L487.689 127.537L488.181 125.469L488.428 125.432L488.797 126.509L489.167 127.268L489.413 127.169L489.536 127.3L489.659 127.278L490.645 124.689L490.768 124.586L491.014 123.761L491.138 123.674L491.261 123.312L491.63 123.324L491.877 122.703L492 122.396L492.123 122.405L492.369 123.017L492.492 122.947L492.739 122.432L492.985 121.805L493.108 121.766L493.232 121.899L493.478 121.919L493.847 122.686L493.971 122.773L494.217 122.638L494.34 122.428L494.463 122.534L494.586 122.432L494.833 121.862L495.079 122.624L495.326 123.432L495.572 123.557L495.695 123.479L495.941 122.764L496.065 122.722L496.311 122.365L496.434 122.28L496.557 122.079L497.173 120.16L497.296 120.205L497.42 120.87L497.543 121.024L497.666 121.317L497.789 122.137L497.912 122.323L498.159 122.257L498.651 122.572L498.898 122.32L499.76 120.812L500.376 120.203L500.622 120.305L500.868 120.182L501.238 119.834L501.731 120.445L502.347 119.532L502.47 119.184L502.593 119.106L502.716 118.877L502.839 118.849L502.962 118.697L504.194 115.925L504.564 115.749L504.81 115.851L505.18 116.052L505.795 115.424L506.042 116.129L506.165 116.512L506.534 116.182L506.781 116.101L507.027 116.416L507.397 115.766L507.52 115.839L508.013 116.859L508.382 116.706L508.505 116.778L508.628 116.584L508.875 117.228L509.121 117.282L509.737 118.116L509.86 118.191L510.23 118.746L510.353 118.495L510.722 118.291L511.215 117.271L511.338 117.525L511.585 117.382L511.708 117.461L511.831 117.682L512.077 119.129L512.324 119.764L512.57 120.69L512.693 120.948L512.94 120.769L513.309 120.735L514.171 120.154L514.91 120.574L515.28 120.519L515.773 120.856L515.896 120.863L516.389 120.499L517.251 119.262L517.497 119.59L517.62 119.687L518.113 121.369L518.606 124.445L518.975 125.645L519.098 125.816L519.468 125.478L519.714 125.289L519.837 125.198L519.961 125.327L520.33 124.831L520.946 123.163L521.069 123.289L521.439 122.757L521.808 123.329L521.931 123.387L522.055 123.284L522.178 123.402L522.67 127.888L523.04 129.635L523.286 130.578L523.656 132.154L524.025 131.86L524.149 131.984L524.272 131.972L524.641 132.343L524.888 133.468L525.134 133.475L525.257 133.24L525.38 133.258L525.503 133.492L525.627 133.34L525.75 133.473L525.873 133.331L526.489 129.319L527.228 125.017L527.351 124.553L527.474 124.496L527.597 124.226L527.721 123.71L527.967 121.588L528.09 121.348L528.337 121.895L528.706 121.323L528.829 121.275L529.199 121.64L529.322 122.521L529.445 122.79L529.568 122.756L529.691 122.881L529.938 123.312L530.184 122.895L530.307 122.841L530.554 123.207L530.677 123.517L530.923 123.034L531.909 120.022L532.032 119.924L532.155 120.103L532.278 120.107L532.524 120.708L532.894 121.319L533.017 121.445L533.14 122.108L533.264 121.919L533.51 122.481L533.879 122.787L534.372 120.894L534.495 121.134L534.742 120.635L534.865 120.545L534.988 120.712L535.234 120.387L535.85 118.753L535.973 118.677L536.097 119.236L536.343 119.55L536.712 120.729L537.082 121.222L537.328 121.743L537.698 124.072L537.821 124.189L537.944 124.185L538.067 124.352L538.191 124.353L538.56 123.508L538.806 122.978L539.176 122.449L539.299 122.398L539.422 122.594L539.545 122.446L540.654 119.016L540.777 118.856L541.147 120.082L541.27 120.199L542.132 123.176L542.255 123.138L542.378 123.354L542.625 124.575L542.748 124.879L542.871 124.858L543.364 124.335L543.487 124.368L543.61 124.596L543.733 124.577L544.103 125.057L544.472 125.089L544.719 124.933L545.088 124.923L545.335 124.539L545.458 124.598L545.581 124.403L545.704 124.385L545.827 124.608L545.951 124.625L546.197 124.959L546.443 125.059L546.566 124.801L546.69 124.895L546.813 124.821L547.552 126.394L547.675 126.406L548.168 126.861L548.414 126.947L548.537 127.065L548.66 127.322L548.907 128.309L549.03 128.492L549.399 129.318L549.523 129.516L550.262 129.462L550.508 129.788L551.493 132.258L551.617 132.877L552.109 132.969L552.356 133.299L552.725 133.548L552.848 134.144L553.095 134.474L553.711 136.176L553.957 136.181L554.203 136.706L554.327 136.765L554.696 138.1L555.066 139.126L555.189 139.207L555.681 138.388L556.051 138.292L556.297 137.953L556.42 137.777L556.544 137.894L556.667 137.759L556.913 138.118L557.036 138.032L557.283 138.35L557.406 138.421L557.652 138.907L557.775 139.397L558.022 139.626L558.268 139.91L558.761 139.677L559.007 139.822L559.254 139.665L559.623 138.961L560.116 139.061L560.485 139.482L560.608 139.519L560.978 140.707L561.101 141.14L561.347 142.312L561.471 142.212L561.717 141.296L561.84 141.37L562.087 141.999L562.333 142.741L562.579 142.621L562.949 143.059L563.441 144.646L563.565 144.682L563.811 144.187L564.057 143.853L564.55 145.505L565.412 147.098L565.659 147.148L565.782 147.296L566.028 147.19L566.151 147.381L566.275 147.395L566.521 146.838L566.767 146.252L567.014 145.976L567.26 146.079L567.506 145.895L567.629 146.01L567.999 145.431L568.245 144.683L568.368 145.243L568.492 145.307L568.861 144.845L568.984 144.556L569.231 143.583L569.354 143.438L569.477 143.579L569.6 144.465L569.723 144.58L569.97 146.141L570.093 146.885L570.216 146.86L570.339 146.954L570.462 146.559L570.709 146.421L571.202 144.466L571.325 144.488L571.571 144.356L572.31 140.979L572.433 141.427L572.556 141.133L572.926 139.007L573.049 138.965L573.419 139.586L573.788 140.181L574.158 139.379L574.527 137.655L575.143 134.944L575.882 131.485L576.375 130.849L576.498 131.02L576.991 129.291L577.114 129.129L577.36 129.34L577.483 129.152L577.73 128.435L577.853 128.455L578.099 128.252L578.223 128.651L578.346 128.72L578.592 129.052L578.838 128.899L578.962 129.112L579.085 129.128L579.577 130.53L579.824 131.614L580.07 132.281L580.193 132.145L580.932 130.033L581.548 129.094L581.671 129.173L581.918 128.857L582.041 128.722L582.287 128.112L582.78 125.117L583.15 123.086L583.519 122.08L583.642 122.165L583.765 122.064L584.012 121.298L585.12 116.1L585.613 117.575L585.736 117.7L585.859 117.547L585.983 117.591L586.352 117.202L586.475 116.917L586.598 117.063L586.968 119.845L587.214 120.484L587.584 120.706L587.707 120.767L587.83 121.001L587.953 120.983L588.2 120.512L588.323 120.237L588.446 120.216L588.692 119.753L588.816 119.718L589.431 118.738L589.555 118.65L589.801 118.295L590.294 117.969L590.417 117.736L590.54 117.781L591.279 116.579L591.402 116.425L591.649 116.882L591.772 117.002L591.895 117.435L592.018 117.457L592.264 118.041L592.388 118.352L592.634 118.399L593.004 116.954L593.496 114.797L593.743 114.397L594.112 114.898L594.235 115.222L594.358 115.052L594.482 115.293L594.605 115.244L594.851 115.649L595.098 115.814L595.713 113.821L595.96 113.437L596.083 113.4L596.206 113.523L596.329 113.827L596.699 113.708L596.822 113.539L596.945 113.581L597.438 113.278L597.561 113.396L597.807 113.286L598.3 113.91L598.423 113.78L599.162 111.995L599.655 112.146L599.901 111.926L600.394 111.557L601.01 112.556L601.133 112.609L601.503 112.321L601.872 111.519L602.611 109.759L602.858 109.419L603.227 108.577L603.72 107.476L603.966 107.235L604.089 107.354L604.336 107.869L604.459 107.857L604.828 107.424L605.075 107.418L605.321 107.259L605.444 107.481L605.567 107.511L605.814 107.333L606.06 107.399L606.43 107.118L606.676 106.45L606.922 106.069L607.292 105.214L607.415 105.105L608.154 103.539L608.524 102.104L608.647 102.075L609.755 98.0912L610.125 97.6433L610.618 96.4067L610.741 96.4678L610.987 95.9159L611.48 94.3957L611.973 93.1075L612.096 92.9349L612.465 91.8363L612.588 91.7283L612.835 90.8975L612.958 90.5684L613.328 88.9385L613.82 86.9047L614.067 84.9986L614.313 83.2117L614.682 80.9676L614.929 79.9747L615.052 79.5414L615.175 79.9889L615.914 79.3454L616.037 79.3685L616.284 80.2073L616.407 80.3078L616.776 79.3193L616.9 79.2152L617.392 80.193L617.515 80.452L617.639 80.4014L617.885 80.1308L618.255 80.2143L618.501 80.9147L618.747 80.6939L618.994 79.9725L619.117 80.149L619.363 80.1049L619.609 79.072L619.856 77.7832L620.102 77.2153L620.225 77.2868L620.349 77.1608L620.472 77.188L620.718 76.3865L621.088 76.6225L621.211 76.5229L621.457 75.3002L621.58 75.3732L621.827 76.2758L622.196 77.8903L622.442 79.6505L622.689 80.359L622.812 80.4753L622.935 80.7113L623.182 81.459L623.305 81.4634L623.797 80.9253L623.921 80.8845L624.044 81.0946L624.536 80.9475L624.783 81.7193L624.906 81.8538L625.029 81.8229L625.645 80.0715L625.768 80.0358L625.891 80.505L626.015 80.2532L626.261 80.1804L626.63 80.5425L626.754 80.7668L626.877 80.7928L627 81.2769" stroke="white" stroke-width="2.66667" stroke-linecap="square"/>
<path d="M646.06 219.393C646.646 218.807 646.646 217.857 646.06 217.271L636.514 207.725C635.929 207.14 634.979 207.14 634.393 207.725C633.807 208.311 633.807 209.261 634.393 209.847L642.878 218.332L634.393 226.817C633.807 227.403 633.807 228.353 634.393 228.939C634.979 229.524 635.929 229.524 636.514 228.939L646.06 219.393ZM11.2803 219.832H645V216.832H11.2803V219.832Z" fill="white"/>
<path d="M12.3451 0.939384C11.7593 0.35359 10.8096 0.353578 10.2238 0.939357L0.677677 10.4852C0.0918794 11.071 0.0918612 12.0207 0.677636 12.6065C1.26341 13.1923 2.21316 13.1923 2.79896 12.6065L11.2844 4.12135L19.7695 12.6067C20.3553 13.1925 21.305 13.1925 21.8908 12.6068C22.4766 12.021 22.4767 11.0712 21.8909 10.4854L12.3451 0.939384ZM12.7803 219.24L12.7844 2.00005L9.78444 2.00001L9.78027 219.24L12.7803 219.24Z" fill="white"/>
</svg>
